G75*
%MOIN*%
%OFA0B0*%
%FSLAX25Y25*%
%IPPOS*%
%LPD*%
%AMOC8*
5,1,8,0,0,1.08239X$1,22.5*
%
%ADD10C,0.00000*%
D10*
X0001224Y0006878D02*
X0001000Y0401448D01*
X0268904Y0401445D01*
X0269128Y0006875D01*
X0001224Y0006878D01*
X0010934Y0023536D02*
X0010936Y0023689D01*
X0010942Y0023843D01*
X0010952Y0023996D01*
X0010966Y0024148D01*
X0010984Y0024301D01*
X0011006Y0024452D01*
X0011031Y0024603D01*
X0011061Y0024754D01*
X0011095Y0024904D01*
X0011132Y0025052D01*
X0011173Y0025200D01*
X0011218Y0025346D01*
X0011267Y0025492D01*
X0011320Y0025636D01*
X0011376Y0025778D01*
X0011436Y0025919D01*
X0011500Y0026059D01*
X0011567Y0026197D01*
X0011638Y0026333D01*
X0011713Y0026467D01*
X0011790Y0026599D01*
X0011872Y0026729D01*
X0011956Y0026857D01*
X0012044Y0026983D01*
X0012135Y0027106D01*
X0012229Y0027227D01*
X0012327Y0027345D01*
X0012427Y0027461D01*
X0012531Y0027574D01*
X0012637Y0027685D01*
X0012746Y0027793D01*
X0012858Y0027898D01*
X0012972Y0027999D01*
X0013090Y0028098D01*
X0013209Y0028194D01*
X0013331Y0028287D01*
X0013456Y0028376D01*
X0013583Y0028463D01*
X0013712Y0028545D01*
X0013843Y0028625D01*
X0013976Y0028701D01*
X0014111Y0028774D01*
X0014248Y0028843D01*
X0014387Y0028908D01*
X0014527Y0028970D01*
X0014669Y0029028D01*
X0014812Y0029083D01*
X0014957Y0029134D01*
X0015103Y0029181D01*
X0015250Y0029224D01*
X0015398Y0029263D01*
X0015547Y0029299D01*
X0015697Y0029330D01*
X0015848Y0029358D01*
X0015999Y0029382D01*
X0016152Y0029402D01*
X0016304Y0029418D01*
X0016457Y0029430D01*
X0016610Y0029438D01*
X0016763Y0029442D01*
X0016917Y0029442D01*
X0017070Y0029438D01*
X0017223Y0029430D01*
X0017376Y0029418D01*
X0017528Y0029402D01*
X0017681Y0029382D01*
X0017832Y0029358D01*
X0017983Y0029330D01*
X0018133Y0029299D01*
X0018282Y0029263D01*
X0018430Y0029224D01*
X0018577Y0029181D01*
X0018723Y0029134D01*
X0018868Y0029083D01*
X0019011Y0029028D01*
X0019153Y0028970D01*
X0019293Y0028908D01*
X0019432Y0028843D01*
X0019569Y0028774D01*
X0019704Y0028701D01*
X0019837Y0028625D01*
X0019968Y0028545D01*
X0020097Y0028463D01*
X0020224Y0028376D01*
X0020349Y0028287D01*
X0020471Y0028194D01*
X0020590Y0028098D01*
X0020708Y0027999D01*
X0020822Y0027898D01*
X0020934Y0027793D01*
X0021043Y0027685D01*
X0021149Y0027574D01*
X0021253Y0027461D01*
X0021353Y0027345D01*
X0021451Y0027227D01*
X0021545Y0027106D01*
X0021636Y0026983D01*
X0021724Y0026857D01*
X0021808Y0026729D01*
X0021890Y0026599D01*
X0021967Y0026467D01*
X0022042Y0026333D01*
X0022113Y0026197D01*
X0022180Y0026059D01*
X0022244Y0025919D01*
X0022304Y0025778D01*
X0022360Y0025636D01*
X0022413Y0025492D01*
X0022462Y0025346D01*
X0022507Y0025200D01*
X0022548Y0025052D01*
X0022585Y0024904D01*
X0022619Y0024754D01*
X0022649Y0024603D01*
X0022674Y0024452D01*
X0022696Y0024301D01*
X0022714Y0024148D01*
X0022728Y0023996D01*
X0022738Y0023843D01*
X0022744Y0023689D01*
X0022746Y0023536D01*
X0022744Y0023383D01*
X0022738Y0023229D01*
X0022728Y0023076D01*
X0022714Y0022924D01*
X0022696Y0022771D01*
X0022674Y0022620D01*
X0022649Y0022469D01*
X0022619Y0022318D01*
X0022585Y0022168D01*
X0022548Y0022020D01*
X0022507Y0021872D01*
X0022462Y0021726D01*
X0022413Y0021580D01*
X0022360Y0021436D01*
X0022304Y0021294D01*
X0022244Y0021153D01*
X0022180Y0021013D01*
X0022113Y0020875D01*
X0022042Y0020739D01*
X0021967Y0020605D01*
X0021890Y0020473D01*
X0021808Y0020343D01*
X0021724Y0020215D01*
X0021636Y0020089D01*
X0021545Y0019966D01*
X0021451Y0019845D01*
X0021353Y0019727D01*
X0021253Y0019611D01*
X0021149Y0019498D01*
X0021043Y0019387D01*
X0020934Y0019279D01*
X0020822Y0019174D01*
X0020708Y0019073D01*
X0020590Y0018974D01*
X0020471Y0018878D01*
X0020349Y0018785D01*
X0020224Y0018696D01*
X0020097Y0018609D01*
X0019968Y0018527D01*
X0019837Y0018447D01*
X0019704Y0018371D01*
X0019569Y0018298D01*
X0019432Y0018229D01*
X0019293Y0018164D01*
X0019153Y0018102D01*
X0019011Y0018044D01*
X0018868Y0017989D01*
X0018723Y0017938D01*
X0018577Y0017891D01*
X0018430Y0017848D01*
X0018282Y0017809D01*
X0018133Y0017773D01*
X0017983Y0017742D01*
X0017832Y0017714D01*
X0017681Y0017690D01*
X0017528Y0017670D01*
X0017376Y0017654D01*
X0017223Y0017642D01*
X0017070Y0017634D01*
X0016917Y0017630D01*
X0016763Y0017630D01*
X0016610Y0017634D01*
X0016457Y0017642D01*
X0016304Y0017654D01*
X0016152Y0017670D01*
X0015999Y0017690D01*
X0015848Y0017714D01*
X0015697Y0017742D01*
X0015547Y0017773D01*
X0015398Y0017809D01*
X0015250Y0017848D01*
X0015103Y0017891D01*
X0014957Y0017938D01*
X0014812Y0017989D01*
X0014669Y0018044D01*
X0014527Y0018102D01*
X0014387Y0018164D01*
X0014248Y0018229D01*
X0014111Y0018298D01*
X0013976Y0018371D01*
X0013843Y0018447D01*
X0013712Y0018527D01*
X0013583Y0018609D01*
X0013456Y0018696D01*
X0013331Y0018785D01*
X0013209Y0018878D01*
X0013090Y0018974D01*
X0012972Y0019073D01*
X0012858Y0019174D01*
X0012746Y0019279D01*
X0012637Y0019387D01*
X0012531Y0019498D01*
X0012427Y0019611D01*
X0012327Y0019727D01*
X0012229Y0019845D01*
X0012135Y0019966D01*
X0012044Y0020089D01*
X0011956Y0020215D01*
X0011872Y0020343D01*
X0011790Y0020473D01*
X0011713Y0020605D01*
X0011638Y0020739D01*
X0011567Y0020875D01*
X0011500Y0021013D01*
X0011436Y0021153D01*
X0011376Y0021294D01*
X0011320Y0021436D01*
X0011267Y0021580D01*
X0011218Y0021726D01*
X0011173Y0021872D01*
X0011132Y0022020D01*
X0011095Y0022168D01*
X0011061Y0022318D01*
X0011031Y0022469D01*
X0011006Y0022620D01*
X0010984Y0022771D01*
X0010966Y0022924D01*
X0010952Y0023076D01*
X0010942Y0023229D01*
X0010936Y0023383D01*
X0010934Y0023536D01*
X0245571Y0023383D02*
X0245573Y0023536D01*
X0245579Y0023690D01*
X0245589Y0023843D01*
X0245603Y0023995D01*
X0245621Y0024148D01*
X0245643Y0024299D01*
X0245668Y0024450D01*
X0245698Y0024601D01*
X0245732Y0024751D01*
X0245769Y0024899D01*
X0245810Y0025047D01*
X0245855Y0025193D01*
X0245904Y0025339D01*
X0245957Y0025483D01*
X0246013Y0025625D01*
X0246073Y0025766D01*
X0246137Y0025906D01*
X0246204Y0026044D01*
X0246275Y0026180D01*
X0246350Y0026314D01*
X0246427Y0026446D01*
X0246509Y0026576D01*
X0246593Y0026704D01*
X0246681Y0026830D01*
X0246772Y0026953D01*
X0246866Y0027074D01*
X0246964Y0027192D01*
X0247064Y0027308D01*
X0247168Y0027421D01*
X0247274Y0027532D01*
X0247383Y0027640D01*
X0247495Y0027745D01*
X0247609Y0027846D01*
X0247727Y0027945D01*
X0247846Y0028041D01*
X0247968Y0028134D01*
X0248093Y0028223D01*
X0248220Y0028310D01*
X0248349Y0028392D01*
X0248480Y0028472D01*
X0248613Y0028548D01*
X0248748Y0028621D01*
X0248885Y0028690D01*
X0249024Y0028755D01*
X0249164Y0028817D01*
X0249306Y0028875D01*
X0249449Y0028930D01*
X0249594Y0028981D01*
X0249740Y0029028D01*
X0249887Y0029071D01*
X0250035Y0029110D01*
X0250184Y0029146D01*
X0250334Y0029177D01*
X0250485Y0029205D01*
X0250636Y0029229D01*
X0250789Y0029249D01*
X0250941Y0029265D01*
X0251094Y0029277D01*
X0251247Y0029285D01*
X0251400Y0029289D01*
X0251554Y0029289D01*
X0251707Y0029285D01*
X0251860Y0029277D01*
X0252013Y0029265D01*
X0252165Y0029249D01*
X0252318Y0029229D01*
X0252469Y0029205D01*
X0252620Y0029177D01*
X0252770Y0029146D01*
X0252919Y0029110D01*
X0253067Y0029071D01*
X0253214Y0029028D01*
X0253360Y0028981D01*
X0253505Y0028930D01*
X0253648Y0028875D01*
X0253790Y0028817D01*
X0253930Y0028755D01*
X0254069Y0028690D01*
X0254206Y0028621D01*
X0254341Y0028548D01*
X0254474Y0028472D01*
X0254605Y0028392D01*
X0254734Y0028310D01*
X0254861Y0028223D01*
X0254986Y0028134D01*
X0255108Y0028041D01*
X0255227Y0027945D01*
X0255345Y0027846D01*
X0255459Y0027745D01*
X0255571Y0027640D01*
X0255680Y0027532D01*
X0255786Y0027421D01*
X0255890Y0027308D01*
X0255990Y0027192D01*
X0256088Y0027074D01*
X0256182Y0026953D01*
X0256273Y0026830D01*
X0256361Y0026704D01*
X0256445Y0026576D01*
X0256527Y0026446D01*
X0256604Y0026314D01*
X0256679Y0026180D01*
X0256750Y0026044D01*
X0256817Y0025906D01*
X0256881Y0025766D01*
X0256941Y0025625D01*
X0256997Y0025483D01*
X0257050Y0025339D01*
X0257099Y0025193D01*
X0257144Y0025047D01*
X0257185Y0024899D01*
X0257222Y0024751D01*
X0257256Y0024601D01*
X0257286Y0024450D01*
X0257311Y0024299D01*
X0257333Y0024148D01*
X0257351Y0023995D01*
X0257365Y0023843D01*
X0257375Y0023690D01*
X0257381Y0023536D01*
X0257383Y0023383D01*
X0257381Y0023230D01*
X0257375Y0023076D01*
X0257365Y0022923D01*
X0257351Y0022771D01*
X0257333Y0022618D01*
X0257311Y0022467D01*
X0257286Y0022316D01*
X0257256Y0022165D01*
X0257222Y0022015D01*
X0257185Y0021867D01*
X0257144Y0021719D01*
X0257099Y0021573D01*
X0257050Y0021427D01*
X0256997Y0021283D01*
X0256941Y0021141D01*
X0256881Y0021000D01*
X0256817Y0020860D01*
X0256750Y0020722D01*
X0256679Y0020586D01*
X0256604Y0020452D01*
X0256527Y0020320D01*
X0256445Y0020190D01*
X0256361Y0020062D01*
X0256273Y0019936D01*
X0256182Y0019813D01*
X0256088Y0019692D01*
X0255990Y0019574D01*
X0255890Y0019458D01*
X0255786Y0019345D01*
X0255680Y0019234D01*
X0255571Y0019126D01*
X0255459Y0019021D01*
X0255345Y0018920D01*
X0255227Y0018821D01*
X0255108Y0018725D01*
X0254986Y0018632D01*
X0254861Y0018543D01*
X0254734Y0018456D01*
X0254605Y0018374D01*
X0254474Y0018294D01*
X0254341Y0018218D01*
X0254206Y0018145D01*
X0254069Y0018076D01*
X0253930Y0018011D01*
X0253790Y0017949D01*
X0253648Y0017891D01*
X0253505Y0017836D01*
X0253360Y0017785D01*
X0253214Y0017738D01*
X0253067Y0017695D01*
X0252919Y0017656D01*
X0252770Y0017620D01*
X0252620Y0017589D01*
X0252469Y0017561D01*
X0252318Y0017537D01*
X0252165Y0017517D01*
X0252013Y0017501D01*
X0251860Y0017489D01*
X0251707Y0017481D01*
X0251554Y0017477D01*
X0251400Y0017477D01*
X0251247Y0017481D01*
X0251094Y0017489D01*
X0250941Y0017501D01*
X0250789Y0017517D01*
X0250636Y0017537D01*
X0250485Y0017561D01*
X0250334Y0017589D01*
X0250184Y0017620D01*
X0250035Y0017656D01*
X0249887Y0017695D01*
X0249740Y0017738D01*
X0249594Y0017785D01*
X0249449Y0017836D01*
X0249306Y0017891D01*
X0249164Y0017949D01*
X0249024Y0018011D01*
X0248885Y0018076D01*
X0248748Y0018145D01*
X0248613Y0018218D01*
X0248480Y0018294D01*
X0248349Y0018374D01*
X0248220Y0018456D01*
X0248093Y0018543D01*
X0247968Y0018632D01*
X0247846Y0018725D01*
X0247727Y0018821D01*
X0247609Y0018920D01*
X0247495Y0019021D01*
X0247383Y0019126D01*
X0247274Y0019234D01*
X0247168Y0019345D01*
X0247064Y0019458D01*
X0246964Y0019574D01*
X0246866Y0019692D01*
X0246772Y0019813D01*
X0246681Y0019936D01*
X0246593Y0020062D01*
X0246509Y0020190D01*
X0246427Y0020320D01*
X0246350Y0020452D01*
X0246275Y0020586D01*
X0246204Y0020722D01*
X0246137Y0020860D01*
X0246073Y0021000D01*
X0246013Y0021141D01*
X0245957Y0021283D01*
X0245904Y0021427D01*
X0245855Y0021573D01*
X0245810Y0021719D01*
X0245769Y0021867D01*
X0245732Y0022015D01*
X0245698Y0022165D01*
X0245668Y0022316D01*
X0245643Y0022467D01*
X0245621Y0022618D01*
X0245603Y0022771D01*
X0245589Y0022923D01*
X0245579Y0023076D01*
X0245573Y0023230D01*
X0245571Y0023383D01*
X0245002Y0384745D02*
X0245004Y0384898D01*
X0245010Y0385052D01*
X0245020Y0385205D01*
X0245034Y0385357D01*
X0245052Y0385510D01*
X0245074Y0385661D01*
X0245099Y0385812D01*
X0245129Y0385963D01*
X0245163Y0386113D01*
X0245200Y0386261D01*
X0245241Y0386409D01*
X0245286Y0386555D01*
X0245335Y0386701D01*
X0245388Y0386845D01*
X0245444Y0386987D01*
X0245504Y0387128D01*
X0245568Y0387268D01*
X0245635Y0387406D01*
X0245706Y0387542D01*
X0245781Y0387676D01*
X0245858Y0387808D01*
X0245940Y0387938D01*
X0246024Y0388066D01*
X0246112Y0388192D01*
X0246203Y0388315D01*
X0246297Y0388436D01*
X0246395Y0388554D01*
X0246495Y0388670D01*
X0246599Y0388783D01*
X0246705Y0388894D01*
X0246814Y0389002D01*
X0246926Y0389107D01*
X0247040Y0389208D01*
X0247158Y0389307D01*
X0247277Y0389403D01*
X0247399Y0389496D01*
X0247524Y0389585D01*
X0247651Y0389672D01*
X0247780Y0389754D01*
X0247911Y0389834D01*
X0248044Y0389910D01*
X0248179Y0389983D01*
X0248316Y0390052D01*
X0248455Y0390117D01*
X0248595Y0390179D01*
X0248737Y0390237D01*
X0248880Y0390292D01*
X0249025Y0390343D01*
X0249171Y0390390D01*
X0249318Y0390433D01*
X0249466Y0390472D01*
X0249615Y0390508D01*
X0249765Y0390539D01*
X0249916Y0390567D01*
X0250067Y0390591D01*
X0250220Y0390611D01*
X0250372Y0390627D01*
X0250525Y0390639D01*
X0250678Y0390647D01*
X0250831Y0390651D01*
X0250985Y0390651D01*
X0251138Y0390647D01*
X0251291Y0390639D01*
X0251444Y0390627D01*
X0251596Y0390611D01*
X0251749Y0390591D01*
X0251900Y0390567D01*
X0252051Y0390539D01*
X0252201Y0390508D01*
X0252350Y0390472D01*
X0252498Y0390433D01*
X0252645Y0390390D01*
X0252791Y0390343D01*
X0252936Y0390292D01*
X0253079Y0390237D01*
X0253221Y0390179D01*
X0253361Y0390117D01*
X0253500Y0390052D01*
X0253637Y0389983D01*
X0253772Y0389910D01*
X0253905Y0389834D01*
X0254036Y0389754D01*
X0254165Y0389672D01*
X0254292Y0389585D01*
X0254417Y0389496D01*
X0254539Y0389403D01*
X0254658Y0389307D01*
X0254776Y0389208D01*
X0254890Y0389107D01*
X0255002Y0389002D01*
X0255111Y0388894D01*
X0255217Y0388783D01*
X0255321Y0388670D01*
X0255421Y0388554D01*
X0255519Y0388436D01*
X0255613Y0388315D01*
X0255704Y0388192D01*
X0255792Y0388066D01*
X0255876Y0387938D01*
X0255958Y0387808D01*
X0256035Y0387676D01*
X0256110Y0387542D01*
X0256181Y0387406D01*
X0256248Y0387268D01*
X0256312Y0387128D01*
X0256372Y0386987D01*
X0256428Y0386845D01*
X0256481Y0386701D01*
X0256530Y0386555D01*
X0256575Y0386409D01*
X0256616Y0386261D01*
X0256653Y0386113D01*
X0256687Y0385963D01*
X0256717Y0385812D01*
X0256742Y0385661D01*
X0256764Y0385510D01*
X0256782Y0385357D01*
X0256796Y0385205D01*
X0256806Y0385052D01*
X0256812Y0384898D01*
X0256814Y0384745D01*
X0256812Y0384592D01*
X0256806Y0384438D01*
X0256796Y0384285D01*
X0256782Y0384133D01*
X0256764Y0383980D01*
X0256742Y0383829D01*
X0256717Y0383678D01*
X0256687Y0383527D01*
X0256653Y0383377D01*
X0256616Y0383229D01*
X0256575Y0383081D01*
X0256530Y0382935D01*
X0256481Y0382789D01*
X0256428Y0382645D01*
X0256372Y0382503D01*
X0256312Y0382362D01*
X0256248Y0382222D01*
X0256181Y0382084D01*
X0256110Y0381948D01*
X0256035Y0381814D01*
X0255958Y0381682D01*
X0255876Y0381552D01*
X0255792Y0381424D01*
X0255704Y0381298D01*
X0255613Y0381175D01*
X0255519Y0381054D01*
X0255421Y0380936D01*
X0255321Y0380820D01*
X0255217Y0380707D01*
X0255111Y0380596D01*
X0255002Y0380488D01*
X0254890Y0380383D01*
X0254776Y0380282D01*
X0254658Y0380183D01*
X0254539Y0380087D01*
X0254417Y0379994D01*
X0254292Y0379905D01*
X0254165Y0379818D01*
X0254036Y0379736D01*
X0253905Y0379656D01*
X0253772Y0379580D01*
X0253637Y0379507D01*
X0253500Y0379438D01*
X0253361Y0379373D01*
X0253221Y0379311D01*
X0253079Y0379253D01*
X0252936Y0379198D01*
X0252791Y0379147D01*
X0252645Y0379100D01*
X0252498Y0379057D01*
X0252350Y0379018D01*
X0252201Y0378982D01*
X0252051Y0378951D01*
X0251900Y0378923D01*
X0251749Y0378899D01*
X0251596Y0378879D01*
X0251444Y0378863D01*
X0251291Y0378851D01*
X0251138Y0378843D01*
X0250985Y0378839D01*
X0250831Y0378839D01*
X0250678Y0378843D01*
X0250525Y0378851D01*
X0250372Y0378863D01*
X0250220Y0378879D01*
X0250067Y0378899D01*
X0249916Y0378923D01*
X0249765Y0378951D01*
X0249615Y0378982D01*
X0249466Y0379018D01*
X0249318Y0379057D01*
X0249171Y0379100D01*
X0249025Y0379147D01*
X0248880Y0379198D01*
X0248737Y0379253D01*
X0248595Y0379311D01*
X0248455Y0379373D01*
X0248316Y0379438D01*
X0248179Y0379507D01*
X0248044Y0379580D01*
X0247911Y0379656D01*
X0247780Y0379736D01*
X0247651Y0379818D01*
X0247524Y0379905D01*
X0247399Y0379994D01*
X0247277Y0380087D01*
X0247158Y0380183D01*
X0247040Y0380282D01*
X0246926Y0380383D01*
X0246814Y0380488D01*
X0246705Y0380596D01*
X0246599Y0380707D01*
X0246495Y0380820D01*
X0246395Y0380936D01*
X0246297Y0381054D01*
X0246203Y0381175D01*
X0246112Y0381298D01*
X0246024Y0381424D01*
X0245940Y0381552D01*
X0245858Y0381682D01*
X0245781Y0381814D01*
X0245706Y0381948D01*
X0245635Y0382084D01*
X0245568Y0382222D01*
X0245504Y0382362D01*
X0245444Y0382503D01*
X0245388Y0382645D01*
X0245335Y0382789D01*
X0245286Y0382935D01*
X0245241Y0383081D01*
X0245200Y0383229D01*
X0245163Y0383377D01*
X0245129Y0383527D01*
X0245099Y0383678D01*
X0245074Y0383829D01*
X0245052Y0383980D01*
X0245034Y0384133D01*
X0245020Y0384285D01*
X0245010Y0384438D01*
X0245004Y0384592D01*
X0245002Y0384745D01*
X0011807Y0385161D02*
X0011809Y0385314D01*
X0011815Y0385468D01*
X0011825Y0385621D01*
X0011839Y0385773D01*
X0011857Y0385926D01*
X0011879Y0386077D01*
X0011904Y0386228D01*
X0011934Y0386379D01*
X0011968Y0386529D01*
X0012005Y0386677D01*
X0012046Y0386825D01*
X0012091Y0386971D01*
X0012140Y0387117D01*
X0012193Y0387261D01*
X0012249Y0387403D01*
X0012309Y0387544D01*
X0012373Y0387684D01*
X0012440Y0387822D01*
X0012511Y0387958D01*
X0012586Y0388092D01*
X0012663Y0388224D01*
X0012745Y0388354D01*
X0012829Y0388482D01*
X0012917Y0388608D01*
X0013008Y0388731D01*
X0013102Y0388852D01*
X0013200Y0388970D01*
X0013300Y0389086D01*
X0013404Y0389199D01*
X0013510Y0389310D01*
X0013619Y0389418D01*
X0013731Y0389523D01*
X0013845Y0389624D01*
X0013963Y0389723D01*
X0014082Y0389819D01*
X0014204Y0389912D01*
X0014329Y0390001D01*
X0014456Y0390088D01*
X0014585Y0390170D01*
X0014716Y0390250D01*
X0014849Y0390326D01*
X0014984Y0390399D01*
X0015121Y0390468D01*
X0015260Y0390533D01*
X0015400Y0390595D01*
X0015542Y0390653D01*
X0015685Y0390708D01*
X0015830Y0390759D01*
X0015976Y0390806D01*
X0016123Y0390849D01*
X0016271Y0390888D01*
X0016420Y0390924D01*
X0016570Y0390955D01*
X0016721Y0390983D01*
X0016872Y0391007D01*
X0017025Y0391027D01*
X0017177Y0391043D01*
X0017330Y0391055D01*
X0017483Y0391063D01*
X0017636Y0391067D01*
X0017790Y0391067D01*
X0017943Y0391063D01*
X0018096Y0391055D01*
X0018249Y0391043D01*
X0018401Y0391027D01*
X0018554Y0391007D01*
X0018705Y0390983D01*
X0018856Y0390955D01*
X0019006Y0390924D01*
X0019155Y0390888D01*
X0019303Y0390849D01*
X0019450Y0390806D01*
X0019596Y0390759D01*
X0019741Y0390708D01*
X0019884Y0390653D01*
X0020026Y0390595D01*
X0020166Y0390533D01*
X0020305Y0390468D01*
X0020442Y0390399D01*
X0020577Y0390326D01*
X0020710Y0390250D01*
X0020841Y0390170D01*
X0020970Y0390088D01*
X0021097Y0390001D01*
X0021222Y0389912D01*
X0021344Y0389819D01*
X0021463Y0389723D01*
X0021581Y0389624D01*
X0021695Y0389523D01*
X0021807Y0389418D01*
X0021916Y0389310D01*
X0022022Y0389199D01*
X0022126Y0389086D01*
X0022226Y0388970D01*
X0022324Y0388852D01*
X0022418Y0388731D01*
X0022509Y0388608D01*
X0022597Y0388482D01*
X0022681Y0388354D01*
X0022763Y0388224D01*
X0022840Y0388092D01*
X0022915Y0387958D01*
X0022986Y0387822D01*
X0023053Y0387684D01*
X0023117Y0387544D01*
X0023177Y0387403D01*
X0023233Y0387261D01*
X0023286Y0387117D01*
X0023335Y0386971D01*
X0023380Y0386825D01*
X0023421Y0386677D01*
X0023458Y0386529D01*
X0023492Y0386379D01*
X0023522Y0386228D01*
X0023547Y0386077D01*
X0023569Y0385926D01*
X0023587Y0385773D01*
X0023601Y0385621D01*
X0023611Y0385468D01*
X0023617Y0385314D01*
X0023619Y0385161D01*
X0023617Y0385008D01*
X0023611Y0384854D01*
X0023601Y0384701D01*
X0023587Y0384549D01*
X0023569Y0384396D01*
X0023547Y0384245D01*
X0023522Y0384094D01*
X0023492Y0383943D01*
X0023458Y0383793D01*
X0023421Y0383645D01*
X0023380Y0383497D01*
X0023335Y0383351D01*
X0023286Y0383205D01*
X0023233Y0383061D01*
X0023177Y0382919D01*
X0023117Y0382778D01*
X0023053Y0382638D01*
X0022986Y0382500D01*
X0022915Y0382364D01*
X0022840Y0382230D01*
X0022763Y0382098D01*
X0022681Y0381968D01*
X0022597Y0381840D01*
X0022509Y0381714D01*
X0022418Y0381591D01*
X0022324Y0381470D01*
X0022226Y0381352D01*
X0022126Y0381236D01*
X0022022Y0381123D01*
X0021916Y0381012D01*
X0021807Y0380904D01*
X0021695Y0380799D01*
X0021581Y0380698D01*
X0021463Y0380599D01*
X0021344Y0380503D01*
X0021222Y0380410D01*
X0021097Y0380321D01*
X0020970Y0380234D01*
X0020841Y0380152D01*
X0020710Y0380072D01*
X0020577Y0379996D01*
X0020442Y0379923D01*
X0020305Y0379854D01*
X0020166Y0379789D01*
X0020026Y0379727D01*
X0019884Y0379669D01*
X0019741Y0379614D01*
X0019596Y0379563D01*
X0019450Y0379516D01*
X0019303Y0379473D01*
X0019155Y0379434D01*
X0019006Y0379398D01*
X0018856Y0379367D01*
X0018705Y0379339D01*
X0018554Y0379315D01*
X0018401Y0379295D01*
X0018249Y0379279D01*
X0018096Y0379267D01*
X0017943Y0379259D01*
X0017790Y0379255D01*
X0017636Y0379255D01*
X0017483Y0379259D01*
X0017330Y0379267D01*
X0017177Y0379279D01*
X0017025Y0379295D01*
X0016872Y0379315D01*
X0016721Y0379339D01*
X0016570Y0379367D01*
X0016420Y0379398D01*
X0016271Y0379434D01*
X0016123Y0379473D01*
X0015976Y0379516D01*
X0015830Y0379563D01*
X0015685Y0379614D01*
X0015542Y0379669D01*
X0015400Y0379727D01*
X0015260Y0379789D01*
X0015121Y0379854D01*
X0014984Y0379923D01*
X0014849Y0379996D01*
X0014716Y0380072D01*
X0014585Y0380152D01*
X0014456Y0380234D01*
X0014329Y0380321D01*
X0014204Y0380410D01*
X0014082Y0380503D01*
X0013963Y0380599D01*
X0013845Y0380698D01*
X0013731Y0380799D01*
X0013619Y0380904D01*
X0013510Y0381012D01*
X0013404Y0381123D01*
X0013300Y0381236D01*
X0013200Y0381352D01*
X0013102Y0381470D01*
X0013008Y0381591D01*
X0012917Y0381714D01*
X0012829Y0381840D01*
X0012745Y0381968D01*
X0012663Y0382098D01*
X0012586Y0382230D01*
X0012511Y0382364D01*
X0012440Y0382500D01*
X0012373Y0382638D01*
X0012309Y0382778D01*
X0012249Y0382919D01*
X0012193Y0383061D01*
X0012140Y0383205D01*
X0012091Y0383351D01*
X0012046Y0383497D01*
X0012005Y0383645D01*
X0011968Y0383793D01*
X0011934Y0383943D01*
X0011904Y0384094D01*
X0011879Y0384245D01*
X0011857Y0384396D01*
X0011839Y0384549D01*
X0011825Y0384701D01*
X0011815Y0384854D01*
X0011809Y0385008D01*
X0011807Y0385161D01*
M02*
