G75*
%MOIN*%
%OFA0B0*%
%FSLAX25Y25*%
%IPPOS*%
%LPD*%
%AMOC8*
5,1,8,0,0,1.08239X$1,22.5*
%
%ADD10OC8,0.05200*%
%ADD11C,0.06600*%
%ADD12C,0.07677*%
%ADD13OC8,0.06300*%
%ADD14C,0.00600*%
%ADD15C,0.06693*%
%ADD16C,0.01000*%
%ADD17C,0.06500*%
%ADD18C,0.01600*%
D10*
X0083288Y0350185D03*
X0092460Y0377019D03*
X0102460Y0377019D03*
X0113288Y0350185D03*
X0130614Y0349861D03*
X0140059Y0377069D03*
X0150059Y0377069D03*
X0160614Y0349861D03*
X0177877Y0349668D03*
X0186967Y0377087D03*
X0196967Y0377087D03*
X0207877Y0349668D03*
D11*
X0207540Y0318807D02*
X0200940Y0318807D01*
X0200940Y0308807D02*
X0207540Y0308807D01*
X0207540Y0298807D02*
X0200940Y0298807D01*
X0200940Y0288807D02*
X0207540Y0288807D01*
X0207540Y0278807D02*
X0200940Y0278807D01*
X0200940Y0268807D02*
X0207540Y0268807D01*
X0207540Y0258807D02*
X0200940Y0258807D01*
X0166266Y0258807D02*
X0159666Y0258807D01*
X0159666Y0268807D02*
X0166266Y0268807D01*
X0166266Y0278807D02*
X0159666Y0278807D01*
X0159666Y0288807D02*
X0166266Y0288807D01*
X0166266Y0298807D02*
X0159666Y0298807D01*
X0159666Y0308807D02*
X0166266Y0308807D01*
X0166266Y0318807D02*
X0159666Y0318807D01*
X0129666Y0318807D02*
X0123066Y0318807D01*
X0123066Y0308807D02*
X0129666Y0308807D01*
X0129666Y0298807D02*
X0123066Y0298807D01*
X0123066Y0288807D02*
X0129666Y0288807D01*
X0129666Y0278807D02*
X0123066Y0278807D01*
X0123066Y0268807D02*
X0129666Y0268807D01*
X0129666Y0258807D02*
X0123066Y0258807D01*
X0085518Y0258807D02*
X0078918Y0258807D01*
X0078918Y0268807D02*
X0085518Y0268807D01*
X0085518Y0278807D02*
X0078918Y0278807D01*
X0078918Y0288807D02*
X0085518Y0288807D01*
X0085518Y0298807D02*
X0078918Y0298807D01*
X0078918Y0308807D02*
X0085518Y0308807D01*
X0085518Y0318807D02*
X0078918Y0318807D01*
X0048918Y0318807D02*
X0042318Y0318807D01*
X0042318Y0308807D02*
X0048918Y0308807D01*
X0048918Y0298807D02*
X0042318Y0298807D01*
X0042318Y0288807D02*
X0048918Y0288807D01*
X0048918Y0278807D02*
X0042318Y0278807D01*
X0042318Y0268807D02*
X0048918Y0268807D01*
X0048918Y0258807D02*
X0042318Y0258807D01*
X0042284Y0195333D02*
X0048884Y0195333D01*
X0048884Y0185333D02*
X0042284Y0185333D01*
X0042284Y0175333D02*
X0048884Y0175333D01*
X0048884Y0165333D02*
X0042284Y0165333D01*
X0042284Y0155333D02*
X0048884Y0155333D01*
X0048884Y0145333D02*
X0042284Y0145333D01*
X0042284Y0135333D02*
X0048884Y0135333D01*
X0078884Y0135333D02*
X0085484Y0135333D01*
X0085484Y0145333D02*
X0078884Y0145333D01*
X0078884Y0155333D02*
X0085484Y0155333D01*
X0085484Y0165333D02*
X0078884Y0165333D01*
X0078884Y0175333D02*
X0085484Y0175333D01*
X0085484Y0185333D02*
X0078884Y0185333D01*
X0078884Y0195333D02*
X0085484Y0195333D01*
X0123137Y0195657D02*
X0129737Y0195657D01*
X0129737Y0185657D02*
X0123137Y0185657D01*
X0123137Y0175657D02*
X0129737Y0175657D01*
X0129737Y0165657D02*
X0123137Y0165657D01*
X0123137Y0155657D02*
X0129737Y0155657D01*
X0129737Y0145657D02*
X0123137Y0145657D01*
X0123137Y0135657D02*
X0129737Y0135657D01*
X0159737Y0135657D02*
X0166337Y0135657D01*
X0166337Y0145657D02*
X0159737Y0145657D01*
X0159737Y0155657D02*
X0166337Y0155657D01*
X0166337Y0165657D02*
X0159737Y0165657D01*
X0159737Y0175657D02*
X0166337Y0175657D01*
X0166337Y0185657D02*
X0159737Y0185657D01*
X0159737Y0195657D02*
X0166337Y0195657D01*
X0200813Y0195710D02*
X0207413Y0195710D01*
X0207413Y0185710D02*
X0200813Y0185710D01*
X0200813Y0175710D02*
X0207413Y0175710D01*
X0207413Y0165710D02*
X0200813Y0165710D01*
X0200813Y0155710D02*
X0207413Y0155710D01*
X0207413Y0145710D02*
X0200813Y0145710D01*
X0200813Y0135710D02*
X0207413Y0135710D01*
X0237413Y0135710D02*
X0244013Y0135710D01*
X0244013Y0145710D02*
X0237413Y0145710D01*
X0237413Y0155710D02*
X0244013Y0155710D01*
X0244013Y0165710D02*
X0237413Y0165710D01*
X0237413Y0175710D02*
X0244013Y0175710D01*
X0244013Y0185710D02*
X0237413Y0185710D01*
X0237413Y0195710D02*
X0244013Y0195710D01*
X0244140Y0258807D02*
X0237540Y0258807D01*
X0237540Y0268807D02*
X0244140Y0268807D01*
X0244140Y0278807D02*
X0237540Y0278807D01*
X0237540Y0288807D02*
X0244140Y0288807D01*
X0244140Y0298807D02*
X0237540Y0298807D01*
X0237540Y0308807D02*
X0244140Y0308807D01*
X0244140Y0318807D02*
X0237540Y0318807D01*
D12*
X0213006Y0094886D02*
X0213006Y0087209D01*
X0203006Y0087209D02*
X0203006Y0094886D01*
X0193006Y0094886D02*
X0193006Y0087209D01*
X0183006Y0087209D02*
X0183006Y0094886D01*
X0173006Y0094886D02*
X0173006Y0087209D01*
X0163006Y0087209D02*
X0163006Y0094886D01*
X0153006Y0094886D02*
X0153006Y0087209D01*
X0143006Y0087209D02*
X0143006Y0094886D01*
X0133006Y0094886D02*
X0133006Y0087209D01*
X0123006Y0087209D02*
X0123006Y0094886D01*
X0113006Y0094886D02*
X0113006Y0087209D01*
X0103006Y0087209D02*
X0103006Y0094886D01*
X0093006Y0094886D02*
X0093006Y0087209D01*
X0083006Y0087209D02*
X0083006Y0094886D01*
X0073006Y0094886D02*
X0073006Y0087209D01*
X0073006Y0027209D02*
X0073006Y0019532D01*
X0083006Y0019532D02*
X0083006Y0027209D01*
X0093006Y0027209D02*
X0093006Y0019532D01*
X0103006Y0019532D02*
X0103006Y0027209D01*
X0113006Y0027209D02*
X0113006Y0019532D01*
X0123006Y0019532D02*
X0123006Y0027209D01*
X0133006Y0027209D02*
X0133006Y0019532D01*
X0143006Y0019532D02*
X0143006Y0027209D01*
X0153006Y0027209D02*
X0153006Y0019532D01*
X0163006Y0019532D02*
X0163006Y0027209D01*
X0173006Y0027209D02*
X0173006Y0019532D01*
X0183006Y0019532D02*
X0183006Y0027209D01*
X0193006Y0027209D02*
X0193006Y0019532D01*
X0203006Y0019532D02*
X0203006Y0027209D01*
X0213006Y0027209D02*
X0213006Y0019532D01*
D13*
X0242267Y0052194D03*
X0252267Y0052194D03*
X0252417Y0069962D03*
X0242417Y0069962D03*
X0098295Y0218493D03*
X0098225Y0232547D03*
X0088225Y0232547D03*
X0088295Y0218493D03*
D14*
X0089498Y0203599D02*
X0057150Y0203599D01*
X0049304Y0195753D01*
X0049011Y0196046D01*
X0049011Y0227537D01*
X0046536Y0229948D01*
X0035665Y0229965D01*
X0035613Y0229976D01*
X0027421Y0229976D01*
X0022927Y0225482D01*
X0022927Y0220830D01*
X0026412Y0234887D02*
X0018389Y0234810D01*
X0015859Y0236879D01*
X0015804Y0236881D01*
X0013777Y0238701D01*
X0013662Y0312732D01*
X0032230Y0331301D01*
X0032143Y0318807D02*
X0028295Y0314959D01*
X0028295Y0245464D01*
X0031596Y0242163D01*
X0068485Y0242163D01*
X0073734Y0236914D01*
X0073965Y0236914D01*
X0073950Y0236914D01*
X0063662Y0231214D02*
X0060379Y0234948D01*
X0030495Y0234948D01*
X0026412Y0234887D01*
X0037479Y0248577D02*
X0033764Y0252291D01*
X0033764Y0294782D01*
X0037790Y0298807D01*
X0048918Y0298807D01*
X0048918Y0318807D02*
X0032143Y0318807D01*
X0048918Y0318807D02*
X0048918Y0335116D01*
X0054845Y0341044D01*
X0067599Y0341044D01*
X0067602Y0341040D01*
X0204151Y0341040D01*
X0207877Y0344766D01*
X0207877Y0349668D01*
X0211909Y0326062D02*
X0250628Y0326062D01*
X0252485Y0324205D01*
X0252485Y0188161D01*
X0249876Y0185552D01*
X0237571Y0185552D01*
X0237413Y0185710D01*
X0237413Y0175710D01*
X0237413Y0155710D02*
X0237413Y0145710D01*
X0213662Y0166646D02*
X0212745Y0165729D01*
X0207432Y0165729D01*
X0207413Y0165710D01*
X0213662Y0166646D02*
X0213662Y0206292D01*
X0217329Y0209959D01*
X0244180Y0209959D01*
X0237413Y0195710D02*
X0228725Y0195710D01*
X0223081Y0190067D01*
X0223081Y0113208D01*
X0231076Y0105213D01*
X0231076Y0057932D01*
X0227498Y0054354D01*
X0189045Y0054354D01*
X0182934Y0048243D01*
X0182934Y0027281D01*
X0183006Y0027209D01*
X0182934Y0048243D02*
X0176885Y0054293D01*
X0038955Y0054293D01*
X0027825Y0065422D01*
X0027825Y0201689D01*
X0041960Y0215825D01*
X0041960Y0222696D01*
X0037479Y0248577D02*
X0172955Y0248577D01*
X0173006Y0248526D01*
X0173006Y0087209D01*
X0192512Y0114225D02*
X0192512Y0141453D01*
X0196770Y0145710D01*
X0207413Y0145710D01*
X0207413Y0185710D02*
X0207413Y0195710D01*
X0187976Y0240188D02*
X0180682Y0240188D01*
X0183932Y0248596D02*
X0172955Y0248577D01*
X0183932Y0248596D02*
X0187698Y0252473D01*
X0187695Y0292109D01*
X0196364Y0298632D01*
X0207365Y0298632D01*
X0207540Y0298807D01*
X0214106Y0298807D01*
X0224241Y0288673D01*
X0237405Y0288673D01*
X0237540Y0288807D01*
X0237540Y0268807D02*
X0237524Y0268791D01*
X0220025Y0268791D01*
X0216586Y0265352D01*
X0216586Y0254667D01*
X0212047Y0250129D01*
X0199252Y0250129D01*
X0187976Y0240188D01*
X0153424Y0241172D02*
X0152433Y0242163D01*
X0153424Y0241172D02*
X0153424Y0137574D01*
X0155341Y0135657D01*
X0159737Y0135657D01*
X0159737Y0145657D02*
X0159737Y0155657D01*
X0159737Y0175657D02*
X0159737Y0185657D01*
X0144508Y0155657D02*
X0144596Y0155570D01*
X0144508Y0155657D02*
X0129737Y0155657D01*
X0129737Y0165657D01*
X0129737Y0145657D02*
X0129413Y0145333D01*
X0078884Y0145333D01*
X0078884Y0155333D01*
X0069530Y0172805D02*
X0073933Y0175281D01*
X0078832Y0175281D01*
X0078884Y0175333D01*
X0078884Y0185333D02*
X0078780Y0185438D01*
X0071214Y0185438D01*
X0063752Y0180866D01*
X0063752Y0112712D01*
X0072555Y0107899D01*
X0083012Y0107899D01*
X0085350Y0110237D01*
X0088102Y0110237D01*
X0078335Y0115600D02*
X0073657Y0115600D01*
X0069530Y0117800D01*
X0069530Y0172805D01*
X0048884Y0165333D02*
X0048884Y0155333D01*
X0048884Y0185333D02*
X0048884Y0195333D01*
X0049304Y0195753D01*
X0063754Y0213968D02*
X0063662Y0231214D01*
X0089498Y0203599D02*
X0093676Y0199421D01*
X0093676Y0195292D01*
X0103310Y0185657D01*
X0129737Y0185657D01*
X0123057Y0212084D02*
X0115530Y0212084D01*
X0106428Y0202981D01*
X0129666Y0278807D02*
X0129666Y0288807D01*
X0129666Y0308807D02*
X0129666Y0318807D01*
X0115592Y0333410D02*
X0113138Y0333423D01*
X0115592Y0333410D02*
X0186300Y0333410D01*
X0190455Y0329805D01*
X0190449Y0322422D01*
X0194063Y0318807D01*
X0207540Y0318807D01*
X0207540Y0321692D01*
X0211909Y0326062D01*
X0177877Y0349668D02*
X0177877Y0367996D01*
X0186967Y0377087D01*
X0140059Y0377069D02*
X0130614Y0367624D01*
X0130614Y0349861D01*
X0092460Y0377019D02*
X0083288Y0367846D01*
X0083288Y0350185D01*
D15*
X0113138Y0333423D03*
X0152433Y0242163D03*
X0180682Y0240188D03*
X0144596Y0155570D03*
X0192512Y0114225D03*
X0244180Y0209959D03*
X0088102Y0110237D03*
X0078335Y0115600D03*
X0063754Y0213968D03*
X0073965Y0236914D03*
X0041960Y0222696D03*
X0022927Y0220830D03*
X0032230Y0331301D03*
D16*
X0005503Y0396948D02*
X0005722Y0011378D01*
X0264626Y0011375D01*
X0264407Y0396945D01*
X0005503Y0396948D01*
X0005503Y0396909D02*
X0264407Y0396909D01*
X0264407Y0395910D02*
X0005503Y0395910D01*
X0005504Y0394912D02*
X0013899Y0394912D01*
X0013697Y0394858D02*
X0011324Y0393488D01*
X0009386Y0391550D01*
X0008017Y0389178D01*
X0007307Y0386531D01*
X0007307Y0383791D01*
X0008017Y0381145D01*
X0009386Y0378772D01*
X0011324Y0376835D01*
X0013697Y0375465D01*
X0016343Y0374756D01*
X0019083Y0374756D01*
X0021729Y0375465D01*
X0024102Y0376835D01*
X0026039Y0378772D01*
X0027409Y0381145D01*
X0028118Y0383791D01*
X0028118Y0386531D01*
X0027409Y0389178D01*
X0026039Y0391550D01*
X0024102Y0393488D01*
X0021729Y0394858D01*
X0019083Y0395567D01*
X0016343Y0395567D01*
X0013697Y0394858D01*
X0012061Y0393913D02*
X0005504Y0393913D01*
X0005505Y0392915D02*
X0010751Y0392915D01*
X0009752Y0391916D02*
X0005505Y0391916D01*
X0005506Y0390918D02*
X0009021Y0390918D01*
X0008445Y0389919D02*
X0005507Y0389919D01*
X0005507Y0388921D02*
X0007948Y0388921D01*
X0007680Y0387922D02*
X0005508Y0387922D01*
X0005508Y0386924D02*
X0007413Y0386924D01*
X0007307Y0385925D02*
X0005509Y0385925D01*
X0005509Y0384927D02*
X0007307Y0384927D01*
X0007307Y0383928D02*
X0005510Y0383928D01*
X0005511Y0382930D02*
X0007538Y0382930D01*
X0007806Y0381931D02*
X0005511Y0381931D01*
X0005512Y0380933D02*
X0008139Y0380933D01*
X0008715Y0379934D02*
X0005512Y0379934D01*
X0005513Y0378936D02*
X0009292Y0378936D01*
X0010221Y0377937D02*
X0005513Y0377937D01*
X0005514Y0376939D02*
X0011220Y0376939D01*
X0012873Y0375940D02*
X0005515Y0375940D01*
X0005515Y0374942D02*
X0015649Y0374942D01*
X0019777Y0374942D02*
X0086989Y0374942D01*
X0087760Y0375713D02*
X0081253Y0369206D01*
X0080888Y0368324D01*
X0080888Y0354432D01*
X0078588Y0352132D01*
X0078588Y0348238D01*
X0081341Y0345485D01*
X0085235Y0345485D01*
X0087988Y0348238D01*
X0087988Y0352132D01*
X0085688Y0354432D01*
X0085688Y0366852D01*
X0091154Y0372319D01*
X0094407Y0372319D01*
X0097160Y0375072D01*
X0097160Y0378965D01*
X0094407Y0381719D01*
X0090513Y0381719D01*
X0087760Y0378965D01*
X0087760Y0375713D01*
X0087760Y0375940D02*
X0022553Y0375940D01*
X0024206Y0376939D02*
X0087760Y0376939D01*
X0087760Y0377937D02*
X0025204Y0377937D01*
X0026134Y0378936D02*
X0087760Y0378936D01*
X0088729Y0379934D02*
X0026710Y0379934D01*
X0027287Y0380933D02*
X0089728Y0380933D01*
X0095193Y0380933D02*
X0100576Y0380933D01*
X0100762Y0381119D02*
X0098360Y0378717D01*
X0098360Y0377319D01*
X0102160Y0377319D01*
X0102160Y0381119D01*
X0100762Y0381119D01*
X0102160Y0380933D02*
X0102760Y0380933D01*
X0102760Y0381119D02*
X0104158Y0381119D01*
X0106560Y0378717D01*
X0106560Y0377319D01*
X0102760Y0377319D01*
X0102160Y0377319D01*
X0102160Y0376719D01*
X0098360Y0376719D01*
X0098360Y0375320D01*
X0100762Y0372919D01*
X0102160Y0372919D01*
X0102160Y0376718D01*
X0102760Y0376718D01*
X0102760Y0372919D01*
X0104158Y0372919D01*
X0106560Y0375320D01*
X0106560Y0376719D01*
X0102760Y0376719D01*
X0102760Y0377319D01*
X0102760Y0381119D01*
X0102760Y0379934D02*
X0102160Y0379934D01*
X0102160Y0378936D02*
X0102760Y0378936D01*
X0102760Y0377937D02*
X0102160Y0377937D01*
X0102160Y0376939D02*
X0097160Y0376939D01*
X0097160Y0377937D02*
X0098360Y0377937D01*
X0098579Y0378936D02*
X0097160Y0378936D01*
X0096191Y0379934D02*
X0099578Y0379934D01*
X0098360Y0375940D02*
X0097160Y0375940D01*
X0097030Y0374942D02*
X0098739Y0374942D01*
X0099737Y0373943D02*
X0096032Y0373943D01*
X0095033Y0372945D02*
X0100736Y0372945D01*
X0102160Y0372945D02*
X0102760Y0372945D01*
X0102760Y0373943D02*
X0102160Y0373943D01*
X0102160Y0374942D02*
X0102760Y0374942D01*
X0102760Y0375940D02*
X0102160Y0375940D01*
X0102760Y0376939D02*
X0135359Y0376939D01*
X0135359Y0377937D02*
X0106560Y0377937D01*
X0106341Y0378936D02*
X0135359Y0378936D01*
X0135359Y0379016D02*
X0135359Y0375763D01*
X0128579Y0368984D01*
X0128214Y0368102D01*
X0128214Y0354108D01*
X0125914Y0351808D01*
X0125914Y0347914D01*
X0128667Y0345161D01*
X0132561Y0345161D01*
X0135314Y0347914D01*
X0135314Y0351808D01*
X0133014Y0354108D01*
X0133014Y0366630D01*
X0138753Y0372369D01*
X0142006Y0372369D01*
X0144759Y0375122D01*
X0144759Y0379016D01*
X0142006Y0381769D01*
X0138112Y0381769D01*
X0135359Y0379016D01*
X0136277Y0379934D02*
X0105343Y0379934D01*
X0104344Y0380933D02*
X0137276Y0380933D01*
X0135359Y0375940D02*
X0106560Y0375940D01*
X0106182Y0374942D02*
X0134538Y0374942D01*
X0133539Y0373943D02*
X0105183Y0373943D01*
X0104185Y0372945D02*
X0132541Y0372945D01*
X0131542Y0371946D02*
X0090782Y0371946D01*
X0089783Y0370948D02*
X0130544Y0370948D01*
X0129545Y0369949D02*
X0088785Y0369949D01*
X0087786Y0368951D02*
X0128566Y0368951D01*
X0128214Y0367952D02*
X0086788Y0367952D01*
X0085789Y0366954D02*
X0128214Y0366954D01*
X0128214Y0365955D02*
X0085688Y0365955D01*
X0085688Y0364957D02*
X0128214Y0364957D01*
X0128214Y0363958D02*
X0085688Y0363958D01*
X0085688Y0362960D02*
X0128214Y0362960D01*
X0128214Y0361961D02*
X0085688Y0361961D01*
X0085688Y0360963D02*
X0128214Y0360963D01*
X0128214Y0359964D02*
X0085688Y0359964D01*
X0085688Y0358966D02*
X0128214Y0358966D01*
X0128214Y0357967D02*
X0085688Y0357967D01*
X0085688Y0356969D02*
X0128214Y0356969D01*
X0128214Y0355970D02*
X0085688Y0355970D01*
X0085688Y0354972D02*
X0128214Y0354972D01*
X0128080Y0353973D02*
X0116147Y0353973D01*
X0115235Y0354885D02*
X0111341Y0354885D01*
X0108588Y0352132D01*
X0108588Y0348238D01*
X0111341Y0345485D01*
X0115235Y0345485D01*
X0117988Y0348238D01*
X0117988Y0352132D01*
X0115235Y0354885D01*
X0117145Y0352974D02*
X0127081Y0352974D01*
X0126083Y0351976D02*
X0117988Y0351976D01*
X0117988Y0350977D02*
X0125914Y0350977D01*
X0125914Y0349979D02*
X0117988Y0349979D01*
X0117988Y0348980D02*
X0125914Y0348980D01*
X0125914Y0347982D02*
X0117731Y0347982D01*
X0116733Y0346983D02*
X0126845Y0346983D01*
X0127843Y0345985D02*
X0115734Y0345985D01*
X0110841Y0345985D02*
X0085734Y0345985D01*
X0086733Y0346983D02*
X0109843Y0346983D01*
X0108844Y0347982D02*
X0087731Y0347982D01*
X0087988Y0348980D02*
X0108588Y0348980D01*
X0108588Y0349979D02*
X0087988Y0349979D01*
X0087988Y0350977D02*
X0108588Y0350977D01*
X0108588Y0351976D02*
X0087988Y0351976D01*
X0087145Y0352974D02*
X0109430Y0352974D01*
X0110429Y0353973D02*
X0086147Y0353973D01*
X0080888Y0354972D02*
X0005526Y0354972D01*
X0005526Y0355970D02*
X0080888Y0355970D01*
X0080888Y0356969D02*
X0005525Y0356969D01*
X0005525Y0357967D02*
X0080888Y0357967D01*
X0080888Y0358966D02*
X0005524Y0358966D01*
X0005524Y0359964D02*
X0080888Y0359964D01*
X0080888Y0360963D02*
X0005523Y0360963D01*
X0005522Y0361961D02*
X0080888Y0361961D01*
X0080888Y0362960D02*
X0005522Y0362960D01*
X0005521Y0363958D02*
X0080888Y0363958D01*
X0080888Y0364957D02*
X0005521Y0364957D01*
X0005520Y0365955D02*
X0080888Y0365955D01*
X0080888Y0366954D02*
X0005520Y0366954D01*
X0005519Y0367952D02*
X0080888Y0367952D01*
X0081148Y0368951D02*
X0005518Y0368951D01*
X0005518Y0369949D02*
X0081997Y0369949D01*
X0082995Y0370948D02*
X0005517Y0370948D01*
X0005517Y0371946D02*
X0083994Y0371946D01*
X0084992Y0372945D02*
X0005516Y0372945D01*
X0005516Y0373943D02*
X0085991Y0373943D01*
X0080429Y0353973D02*
X0005527Y0353973D01*
X0005528Y0352974D02*
X0079430Y0352974D01*
X0078588Y0351976D02*
X0005528Y0351976D01*
X0005529Y0350977D02*
X0078588Y0350977D01*
X0078588Y0349979D02*
X0005529Y0349979D01*
X0005530Y0348980D02*
X0078588Y0348980D01*
X0078844Y0347982D02*
X0005530Y0347982D01*
X0005531Y0346983D02*
X0079843Y0346983D01*
X0080841Y0345985D02*
X0005532Y0345985D01*
X0005532Y0344986D02*
X0175911Y0344986D01*
X0175930Y0344968D02*
X0179823Y0344968D01*
X0182577Y0347721D01*
X0182577Y0351615D01*
X0180277Y0353915D01*
X0180277Y0367002D01*
X0185661Y0372387D01*
X0188914Y0372387D01*
X0191667Y0375140D01*
X0191667Y0379033D01*
X0188914Y0381787D01*
X0185020Y0381787D01*
X0182267Y0379033D01*
X0182267Y0375781D01*
X0175842Y0369356D01*
X0175477Y0368474D01*
X0175477Y0353915D01*
X0173177Y0351615D01*
X0173177Y0347721D01*
X0175930Y0344968D01*
X0174913Y0345985D02*
X0163385Y0345985D01*
X0162561Y0345161D02*
X0165314Y0347914D01*
X0165314Y0351808D01*
X0162561Y0354561D01*
X0158667Y0354561D01*
X0155914Y0351808D01*
X0155914Y0347914D01*
X0158667Y0345161D01*
X0162561Y0345161D01*
X0164384Y0346983D02*
X0173914Y0346983D01*
X0173177Y0347982D02*
X0165314Y0347982D01*
X0165314Y0348980D02*
X0173177Y0348980D01*
X0173177Y0349979D02*
X0165314Y0349979D01*
X0165314Y0350977D02*
X0173177Y0350977D01*
X0173538Y0351976D02*
X0165146Y0351976D01*
X0164147Y0352974D02*
X0174536Y0352974D01*
X0175477Y0353973D02*
X0163149Y0353973D01*
X0158080Y0353973D02*
X0133149Y0353973D01*
X0133014Y0354972D02*
X0175477Y0354972D01*
X0175477Y0355970D02*
X0133014Y0355970D01*
X0133014Y0356969D02*
X0175477Y0356969D01*
X0175477Y0357967D02*
X0133014Y0357967D01*
X0133014Y0358966D02*
X0175477Y0358966D01*
X0175477Y0359964D02*
X0133014Y0359964D01*
X0133014Y0360963D02*
X0175477Y0360963D01*
X0175477Y0361961D02*
X0133014Y0361961D01*
X0133014Y0362960D02*
X0175477Y0362960D01*
X0175477Y0363958D02*
X0133014Y0363958D01*
X0133014Y0364957D02*
X0175477Y0364957D01*
X0175477Y0365955D02*
X0133014Y0365955D01*
X0133338Y0366954D02*
X0175477Y0366954D01*
X0175477Y0367952D02*
X0134336Y0367952D01*
X0135335Y0368951D02*
X0175674Y0368951D01*
X0176435Y0369949D02*
X0136333Y0369949D01*
X0137332Y0370948D02*
X0177434Y0370948D01*
X0178432Y0371946D02*
X0138330Y0371946D01*
X0142581Y0372945D02*
X0179431Y0372945D01*
X0180429Y0373943D02*
X0152731Y0373943D01*
X0151757Y0372969D02*
X0154159Y0375371D01*
X0154159Y0376769D01*
X0150359Y0376769D01*
X0150359Y0377369D01*
X0154159Y0377369D01*
X0154159Y0378767D01*
X0151757Y0381169D01*
X0150359Y0381169D01*
X0150359Y0377369D01*
X0149759Y0377369D01*
X0149759Y0381169D01*
X0148361Y0381169D01*
X0145959Y0378767D01*
X0145959Y0377369D01*
X0149759Y0377369D01*
X0149759Y0376769D01*
X0150359Y0376769D01*
X0150359Y0372969D01*
X0151757Y0372969D01*
X0150359Y0373943D02*
X0149759Y0373943D01*
X0149759Y0372969D02*
X0149759Y0376769D01*
X0145959Y0376769D01*
X0145959Y0375371D01*
X0148361Y0372969D01*
X0149759Y0372969D01*
X0149759Y0374942D02*
X0150359Y0374942D01*
X0150359Y0375940D02*
X0149759Y0375940D01*
X0149759Y0376939D02*
X0144759Y0376939D01*
X0144759Y0377937D02*
X0145959Y0377937D01*
X0146127Y0378936D02*
X0144759Y0378936D01*
X0143840Y0379934D02*
X0147126Y0379934D01*
X0148124Y0380933D02*
X0142842Y0380933D01*
X0144759Y0375940D02*
X0145959Y0375940D01*
X0146388Y0374942D02*
X0144578Y0374942D01*
X0143580Y0373943D02*
X0147386Y0373943D01*
X0150359Y0376939D02*
X0182267Y0376939D01*
X0182267Y0377937D02*
X0154159Y0377937D01*
X0153990Y0378936D02*
X0182267Y0378936D01*
X0183168Y0379934D02*
X0152992Y0379934D01*
X0151993Y0380933D02*
X0184166Y0380933D01*
X0182267Y0375940D02*
X0154159Y0375940D01*
X0153730Y0374942D02*
X0181428Y0374942D01*
X0185221Y0371946D02*
X0264421Y0371946D01*
X0264421Y0370948D02*
X0184222Y0370948D01*
X0183224Y0369949D02*
X0264422Y0369949D01*
X0264422Y0368951D02*
X0182225Y0368951D01*
X0181227Y0367952D02*
X0264423Y0367952D01*
X0264424Y0366954D02*
X0180277Y0366954D01*
X0180277Y0365955D02*
X0264424Y0365955D01*
X0264425Y0364957D02*
X0180277Y0364957D01*
X0180277Y0363958D02*
X0264425Y0363958D01*
X0264426Y0362960D02*
X0180277Y0362960D01*
X0180277Y0361961D02*
X0264426Y0361961D01*
X0264427Y0360963D02*
X0180277Y0360963D01*
X0180277Y0359964D02*
X0264428Y0359964D01*
X0264428Y0358966D02*
X0180277Y0358966D01*
X0180277Y0357967D02*
X0264429Y0357967D01*
X0264429Y0356969D02*
X0180277Y0356969D01*
X0180277Y0355970D02*
X0264430Y0355970D01*
X0264430Y0354972D02*
X0180277Y0354972D01*
X0180277Y0353973D02*
X0205535Y0353973D01*
X0205930Y0354368D02*
X0203177Y0351615D01*
X0203177Y0347721D01*
X0205307Y0345591D01*
X0203156Y0343440D01*
X0068085Y0343440D01*
X0068077Y0343444D01*
X0054367Y0343444D01*
X0053485Y0343078D01*
X0052810Y0342403D01*
X0046883Y0336476D01*
X0046518Y0335594D01*
X0046518Y0324207D01*
X0041244Y0324207D01*
X0039259Y0323385D01*
X0037740Y0321866D01*
X0037467Y0321207D01*
X0031666Y0321207D01*
X0030783Y0320842D01*
X0026935Y0316994D01*
X0026260Y0316319D01*
X0025895Y0315436D01*
X0025895Y0244987D01*
X0026260Y0244105D01*
X0029561Y0240804D01*
X0030236Y0240128D01*
X0031119Y0239763D01*
X0067491Y0239763D01*
X0068735Y0238519D01*
X0068519Y0237998D01*
X0068519Y0235831D01*
X0069348Y0233829D01*
X0070880Y0232297D01*
X0072882Y0231468D01*
X0075048Y0231468D01*
X0077050Y0232297D01*
X0078582Y0233829D01*
X0079412Y0235831D01*
X0079412Y0237998D01*
X0078582Y0240000D01*
X0077050Y0241532D01*
X0075048Y0242361D01*
X0072882Y0242361D01*
X0072033Y0242009D01*
X0069845Y0244198D01*
X0068963Y0244563D01*
X0032590Y0244563D01*
X0030695Y0246458D01*
X0030695Y0313965D01*
X0033137Y0316407D01*
X0037467Y0316407D01*
X0037740Y0315748D01*
X0039259Y0314229D01*
X0040278Y0313807D01*
X0039259Y0313385D01*
X0037740Y0311866D01*
X0036918Y0309881D01*
X0036918Y0307733D01*
X0037740Y0305748D01*
X0039259Y0304229D01*
X0040278Y0303807D01*
X0039259Y0303385D01*
X0037740Y0301866D01*
X0037467Y0301207D01*
X0037313Y0301207D01*
X0036430Y0300842D01*
X0032405Y0296816D01*
X0031730Y0296141D01*
X0031364Y0295259D01*
X0031364Y0251813D01*
X0031730Y0250931D01*
X0035444Y0247217D01*
X0036119Y0246542D01*
X0037001Y0246177D01*
X0148744Y0246177D01*
X0147816Y0245248D01*
X0146986Y0243246D01*
X0146986Y0241080D01*
X0147816Y0239078D01*
X0149348Y0237546D01*
X0151024Y0236852D01*
X0151024Y0137097D01*
X0151389Y0136215D01*
X0152064Y0135540D01*
X0153981Y0133623D01*
X0154863Y0133257D01*
X0154886Y0133257D01*
X0155159Y0132599D01*
X0156678Y0131079D01*
X0158662Y0130257D01*
X0167411Y0130257D01*
X0169395Y0131079D01*
X0170606Y0132290D01*
X0170606Y0100320D01*
X0169642Y0099921D01*
X0168006Y0098285D01*
X0166370Y0099921D01*
X0164187Y0100825D01*
X0161824Y0100825D01*
X0159642Y0099921D01*
X0158006Y0098285D01*
X0156370Y0099921D01*
X0154187Y0100825D01*
X0151824Y0100825D01*
X0149642Y0099921D01*
X0148006Y0098285D01*
X0146370Y0099921D01*
X0144187Y0100825D01*
X0141824Y0100825D01*
X0139642Y0099921D01*
X0138006Y0098285D01*
X0136370Y0099921D01*
X0134187Y0100825D01*
X0131824Y0100825D01*
X0129642Y0099921D01*
X0128006Y0098285D01*
X0126370Y0099921D01*
X0124187Y0100825D01*
X0121824Y0100825D01*
X0119642Y0099921D01*
X0118006Y0098285D01*
X0116370Y0099921D01*
X0114187Y0100825D01*
X0111824Y0100825D01*
X0109642Y0099921D01*
X0108006Y0098285D01*
X0106370Y0099921D01*
X0104187Y0100825D01*
X0101824Y0100825D01*
X0099642Y0099921D01*
X0098006Y0098285D01*
X0096370Y0099921D01*
X0094187Y0100825D01*
X0091824Y0100825D01*
X0089642Y0099921D01*
X0088006Y0098285D01*
X0086370Y0099921D01*
X0084187Y0100825D01*
X0081824Y0100825D01*
X0079642Y0099921D01*
X0078006Y0098285D01*
X0076370Y0099921D01*
X0074187Y0100825D01*
X0071824Y0100825D01*
X0069642Y0099921D01*
X0067971Y0098250D01*
X0067067Y0096068D01*
X0067067Y0086028D01*
X0067971Y0083845D01*
X0069642Y0082175D01*
X0071824Y0081271D01*
X0074187Y0081271D01*
X0076370Y0082175D01*
X0078006Y0083811D01*
X0079642Y0082175D01*
X0081824Y0081271D01*
X0084187Y0081271D01*
X0086370Y0082175D01*
X0088006Y0083811D01*
X0089642Y0082175D01*
X0091824Y0081271D01*
X0094187Y0081271D01*
X0096370Y0082175D01*
X0098006Y0083811D01*
X0099642Y0082175D01*
X0101824Y0081271D01*
X0104187Y0081271D01*
X0106370Y0082175D01*
X0108006Y0083811D01*
X0109642Y0082175D01*
X0111824Y0081271D01*
X0114187Y0081271D01*
X0116370Y0082175D01*
X0118006Y0083811D01*
X0119642Y0082175D01*
X0121824Y0081271D01*
X0124187Y0081271D01*
X0126370Y0082175D01*
X0128006Y0083811D01*
X0129642Y0082175D01*
X0131824Y0081271D01*
X0134187Y0081271D01*
X0136370Y0082175D01*
X0138006Y0083811D01*
X0139642Y0082175D01*
X0141824Y0081271D01*
X0144187Y0081271D01*
X0146370Y0082175D01*
X0148006Y0083811D01*
X0149642Y0082175D01*
X0151824Y0081271D01*
X0154187Y0081271D01*
X0156370Y0082175D01*
X0158006Y0083811D01*
X0159642Y0082175D01*
X0161824Y0081271D01*
X0164187Y0081271D01*
X0166370Y0082175D01*
X0168006Y0083811D01*
X0169642Y0082175D01*
X0171824Y0081271D01*
X0174187Y0081271D01*
X0176370Y0082175D01*
X0178040Y0083845D01*
X0178349Y0084590D01*
X0178440Y0084411D01*
X0178934Y0083731D01*
X0179528Y0083137D01*
X0180208Y0082643D01*
X0180956Y0082262D01*
X0181756Y0082002D01*
X0182506Y0081883D01*
X0182506Y0086709D01*
X0183506Y0086709D01*
X0183506Y0081883D01*
X0184256Y0082002D01*
X0185055Y0082262D01*
X0185804Y0082643D01*
X0186484Y0083137D01*
X0187078Y0083731D01*
X0187572Y0084411D01*
X0187663Y0084590D01*
X0187971Y0083845D01*
X0189642Y0082175D01*
X0191824Y0081271D01*
X0194187Y0081271D01*
X0196370Y0082175D01*
X0198006Y0083811D01*
X0199642Y0082175D01*
X0201824Y0081271D01*
X0204187Y0081271D01*
X0206370Y0082175D01*
X0208006Y0083811D01*
X0209642Y0082175D01*
X0211824Y0081271D01*
X0214187Y0081271D01*
X0216370Y0082175D01*
X0218040Y0083845D01*
X0218944Y0086028D01*
X0218944Y0096068D01*
X0218040Y0098250D01*
X0216370Y0099921D01*
X0214187Y0100825D01*
X0211824Y0100825D01*
X0209642Y0099921D01*
X0208006Y0098285D01*
X0206370Y0099921D01*
X0204187Y0100825D01*
X0201824Y0100825D01*
X0199642Y0099921D01*
X0198006Y0098285D01*
X0196370Y0099921D01*
X0194187Y0100825D01*
X0191824Y0100825D01*
X0189642Y0099921D01*
X0187971Y0098250D01*
X0187663Y0097506D01*
X0187572Y0097684D01*
X0187078Y0098364D01*
X0186484Y0098958D01*
X0185804Y0099452D01*
X0185055Y0099834D01*
X0184256Y0100094D01*
X0183506Y0100212D01*
X0183506Y0087709D01*
X0182506Y0087709D01*
X0182506Y0100212D01*
X0181756Y0100094D01*
X0180956Y0099834D01*
X0180208Y0099452D01*
X0179528Y0098958D01*
X0178934Y0098364D01*
X0178440Y0097684D01*
X0178349Y0097506D01*
X0178040Y0098250D01*
X0176370Y0099921D01*
X0175406Y0100320D01*
X0175406Y0238693D01*
X0176064Y0237103D01*
X0177596Y0235571D01*
X0179598Y0234742D01*
X0181765Y0234742D01*
X0183767Y0235571D01*
X0185299Y0237103D01*
X0185583Y0237788D01*
X0187901Y0237788D01*
X0188302Y0237763D01*
X0188376Y0237788D01*
X0188454Y0237788D01*
X0188825Y0237942D01*
X0189205Y0238072D01*
X0189264Y0238124D01*
X0189336Y0238154D01*
X0189620Y0238438D01*
X0200159Y0247729D01*
X0212524Y0247729D01*
X0213406Y0248094D01*
X0213487Y0248175D01*
X0214082Y0248769D01*
X0214082Y0248769D01*
X0218540Y0253228D01*
X0218620Y0253308D01*
X0218985Y0254190D01*
X0218985Y0264358D01*
X0221019Y0266391D01*
X0232696Y0266391D01*
X0232962Y0265748D01*
X0234481Y0264229D01*
X0236333Y0263462D01*
X0235697Y0263255D01*
X0235024Y0262912D01*
X0234413Y0262468D01*
X0233879Y0261934D01*
X0233434Y0261323D01*
X0233091Y0260650D01*
X0232858Y0259931D01*
X0232759Y0259307D01*
X0237040Y0259307D01*
X0237040Y0258307D01*
X0238040Y0258307D01*
X0238040Y0259307D01*
X0248920Y0259307D01*
X0248822Y0259931D01*
X0248588Y0260650D01*
X0248245Y0261323D01*
X0247801Y0261934D01*
X0247267Y0262468D01*
X0246656Y0262912D01*
X0245982Y0263255D01*
X0245346Y0263462D01*
X0247199Y0264229D01*
X0248718Y0265748D01*
X0249540Y0267733D01*
X0249540Y0269881D01*
X0248718Y0271866D01*
X0247199Y0273385D01*
X0245346Y0274152D01*
X0245982Y0274359D01*
X0246656Y0274702D01*
X0247267Y0275146D01*
X0247801Y0275680D01*
X0248245Y0276291D01*
X0248588Y0276965D01*
X0248822Y0277683D01*
X0248920Y0278307D01*
X0238040Y0278307D01*
X0238040Y0279307D01*
X0248920Y0279307D01*
X0248822Y0279931D01*
X0248588Y0280650D01*
X0248245Y0281323D01*
X0247801Y0281934D01*
X0247267Y0282468D01*
X0246656Y0282912D01*
X0245982Y0283255D01*
X0245346Y0283462D01*
X0247199Y0284229D01*
X0248718Y0285748D01*
X0249540Y0287733D01*
X0249540Y0289881D01*
X0248718Y0291866D01*
X0247199Y0293385D01*
X0246180Y0293807D01*
X0247199Y0294229D01*
X0248718Y0295748D01*
X0249540Y0297733D01*
X0249540Y0299881D01*
X0248718Y0301866D01*
X0247199Y0303385D01*
X0246180Y0303807D01*
X0247199Y0304229D01*
X0248718Y0305748D01*
X0249540Y0307733D01*
X0249540Y0309881D01*
X0248718Y0311866D01*
X0247199Y0313385D01*
X0246180Y0313807D01*
X0247199Y0314229D01*
X0248718Y0315748D01*
X0249540Y0317733D01*
X0249540Y0319881D01*
X0248718Y0321866D01*
X0247199Y0323385D01*
X0246531Y0323662D01*
X0249634Y0323662D01*
X0250085Y0323211D01*
X0250085Y0189155D01*
X0248915Y0187986D01*
X0248591Y0188769D01*
X0247072Y0190288D01*
X0246053Y0190710D01*
X0247072Y0191133D01*
X0248591Y0192652D01*
X0249413Y0194636D01*
X0249413Y0196785D01*
X0248591Y0198769D01*
X0247072Y0200288D01*
X0245087Y0201110D01*
X0236339Y0201110D01*
X0234354Y0200288D01*
X0232835Y0198769D01*
X0232562Y0198110D01*
X0228247Y0198110D01*
X0227365Y0197745D01*
X0221722Y0192101D01*
X0221046Y0191426D01*
X0220681Y0190544D01*
X0220681Y0112730D01*
X0221046Y0111848D01*
X0228676Y0104218D01*
X0228676Y0058926D01*
X0226504Y0056754D01*
X0188568Y0056754D01*
X0187686Y0056389D01*
X0182934Y0051637D01*
X0178244Y0056327D01*
X0177362Y0056693D01*
X0039949Y0056693D01*
X0030225Y0066416D01*
X0030225Y0200695D01*
X0043995Y0214465D01*
X0044360Y0215347D01*
X0044360Y0217795D01*
X0045045Y0218079D01*
X0046577Y0219611D01*
X0046611Y0219693D01*
X0046611Y0200733D01*
X0041210Y0200733D01*
X0039225Y0199911D01*
X0037706Y0198392D01*
X0036884Y0196408D01*
X0036884Y0194259D01*
X0037706Y0192275D01*
X0039225Y0190755D01*
X0040244Y0190333D01*
X0039225Y0189911D01*
X0037706Y0188392D01*
X0036884Y0186408D01*
X0036884Y0184259D01*
X0037706Y0182275D01*
X0039225Y0180755D01*
X0040244Y0180333D01*
X0039225Y0179911D01*
X0037706Y0178392D01*
X0036884Y0176408D01*
X0036884Y0174259D01*
X0037706Y0172275D01*
X0039225Y0170755D01*
X0040244Y0170333D01*
X0039225Y0169911D01*
X0037706Y0168392D01*
X0036884Y0166408D01*
X0036884Y0164259D01*
X0037706Y0162275D01*
X0039225Y0160755D01*
X0040244Y0160333D01*
X0039225Y0159911D01*
X0037706Y0158392D01*
X0036884Y0156408D01*
X0036884Y0154259D01*
X0037706Y0152275D01*
X0039225Y0150755D01*
X0040244Y0150333D01*
X0039225Y0149911D01*
X0037706Y0148392D01*
X0036884Y0146408D01*
X0036884Y0144259D01*
X0037706Y0142275D01*
X0039225Y0140755D01*
X0041077Y0139988D01*
X0040441Y0139782D01*
X0039768Y0139439D01*
X0039157Y0138995D01*
X0038623Y0138460D01*
X0038178Y0137849D01*
X0037835Y0137176D01*
X0037602Y0136457D01*
X0037503Y0135833D01*
X0048384Y0135833D01*
X0048384Y0134833D01*
X0049384Y0134833D01*
X0049384Y0130553D01*
X0050008Y0130652D01*
X0050726Y0130885D01*
X0051400Y0131228D01*
X0052011Y0131672D01*
X0052545Y0132206D01*
X0052989Y0132818D01*
X0053332Y0133491D01*
X0053566Y0134209D01*
X0053664Y0134833D01*
X0049384Y0134833D01*
X0049384Y0135833D01*
X0053664Y0135833D01*
X0053566Y0136457D01*
X0053332Y0137176D01*
X0052989Y0137849D01*
X0052545Y0138460D01*
X0052011Y0138995D01*
X0051400Y0139439D01*
X0050726Y0139782D01*
X0050090Y0139988D01*
X0051943Y0140755D01*
X0053462Y0142275D01*
X0054284Y0144259D01*
X0054284Y0146408D01*
X0053462Y0148392D01*
X0051943Y0149911D01*
X0050924Y0150333D01*
X0051943Y0150755D01*
X0053462Y0152275D01*
X0054284Y0154259D01*
X0054284Y0156408D01*
X0053462Y0158392D01*
X0051943Y0159911D01*
X0051284Y0160184D01*
X0051284Y0160483D01*
X0051943Y0160755D01*
X0053462Y0162275D01*
X0054284Y0164259D01*
X0054284Y0166408D01*
X0053462Y0168392D01*
X0051943Y0169911D01*
X0050924Y0170333D01*
X0051943Y0170755D01*
X0053462Y0172275D01*
X0054284Y0174259D01*
X0054284Y0176408D01*
X0053462Y0178392D01*
X0051943Y0179911D01*
X0050924Y0180333D01*
X0051943Y0180755D01*
X0053462Y0182275D01*
X0054284Y0184259D01*
X0054284Y0186408D01*
X0053462Y0188392D01*
X0051943Y0189911D01*
X0051284Y0190184D01*
X0051284Y0190483D01*
X0051943Y0190755D01*
X0053462Y0192275D01*
X0054284Y0194259D01*
X0054284Y0196408D01*
X0054011Y0197066D01*
X0058144Y0201199D01*
X0088504Y0201199D01*
X0091276Y0198427D01*
X0091276Y0194814D01*
X0091641Y0193932D01*
X0092316Y0193257D01*
X0101951Y0183623D01*
X0102833Y0183257D01*
X0118286Y0183257D01*
X0118559Y0182599D01*
X0120078Y0181079D01*
X0121097Y0180657D01*
X0120078Y0180235D01*
X0118559Y0178716D01*
X0117737Y0176731D01*
X0117737Y0174583D01*
X0118559Y0172599D01*
X0120078Y0171079D01*
X0121097Y0170657D01*
X0120078Y0170235D01*
X0118559Y0168716D01*
X0117737Y0166731D01*
X0117737Y0164583D01*
X0118559Y0162599D01*
X0120078Y0161079D01*
X0121097Y0160657D01*
X0120078Y0160235D01*
X0118559Y0158716D01*
X0117737Y0156731D01*
X0117737Y0154583D01*
X0118559Y0152599D01*
X0120078Y0151079D01*
X0121097Y0150657D01*
X0120078Y0150235D01*
X0118559Y0148716D01*
X0118152Y0147733D01*
X0090335Y0147733D01*
X0090062Y0148392D01*
X0088543Y0149911D01*
X0087524Y0150333D01*
X0088543Y0150755D01*
X0090062Y0152275D01*
X0090884Y0154259D01*
X0090884Y0156408D01*
X0090062Y0158392D01*
X0088543Y0159911D01*
X0087524Y0160333D01*
X0088543Y0160755D01*
X0090062Y0162275D01*
X0090884Y0164259D01*
X0090884Y0166408D01*
X0090062Y0168392D01*
X0088543Y0169911D01*
X0087524Y0170333D01*
X0088543Y0170755D01*
X0090062Y0172275D01*
X0090884Y0174259D01*
X0090884Y0176408D01*
X0090062Y0178392D01*
X0088543Y0179911D01*
X0087524Y0180333D01*
X0088543Y0180755D01*
X0090062Y0182275D01*
X0090884Y0184259D01*
X0090884Y0186408D01*
X0090062Y0188392D01*
X0088543Y0189911D01*
X0087524Y0190333D01*
X0088543Y0190755D01*
X0090062Y0192275D01*
X0090884Y0194259D01*
X0090884Y0196408D01*
X0090062Y0198392D01*
X0088543Y0199911D01*
X0086558Y0200733D01*
X0077810Y0200733D01*
X0075825Y0199911D01*
X0074306Y0198392D01*
X0073484Y0196408D01*
X0073484Y0194259D01*
X0074306Y0192275D01*
X0075825Y0190755D01*
X0076844Y0190333D01*
X0075825Y0189911D01*
X0074306Y0188392D01*
X0074076Y0187838D01*
X0071498Y0187838D01*
X0071310Y0187883D01*
X0071025Y0187838D01*
X0070737Y0187838D01*
X0070558Y0187764D01*
X0070367Y0187733D01*
X0070121Y0187583D01*
X0069855Y0187472D01*
X0069718Y0187336D01*
X0062659Y0183011D01*
X0062393Y0182900D01*
X0062256Y0182764D01*
X0062091Y0182663D01*
X0061922Y0182429D01*
X0061718Y0182225D01*
X0061644Y0182047D01*
X0061530Y0181890D01*
X0061463Y0181610D01*
X0061352Y0181343D01*
X0061352Y0181150D01*
X0061307Y0180962D01*
X0061352Y0180677D01*
X0061352Y0112841D01*
X0061315Y0112495D01*
X0061352Y0112368D01*
X0061352Y0112235D01*
X0061486Y0111913D01*
X0061583Y0111579D01*
X0061667Y0111475D01*
X0061718Y0111353D01*
X0061964Y0111106D01*
X0062182Y0110835D01*
X0062299Y0110771D01*
X0062393Y0110677D01*
X0062714Y0110544D01*
X0071102Y0105958D01*
X0071196Y0105864D01*
X0071517Y0105731D01*
X0071823Y0105564D01*
X0071955Y0105550D01*
X0072078Y0105499D01*
X0072426Y0105499D01*
X0072772Y0105462D01*
X0072900Y0105499D01*
X0083489Y0105499D01*
X0084371Y0105864D01*
X0084572Y0106065D01*
X0085017Y0105619D01*
X0087018Y0104790D01*
X0089185Y0104790D01*
X0091187Y0105619D01*
X0092719Y0107152D01*
X0093548Y0109153D01*
X0093548Y0111320D01*
X0092719Y0113322D01*
X0091187Y0114854D01*
X0089185Y0115683D01*
X0087018Y0115683D01*
X0085017Y0114854D01*
X0083484Y0113322D01*
X0082655Y0111320D01*
X0082655Y0110936D01*
X0082018Y0110299D01*
X0079770Y0110299D01*
X0081420Y0110983D01*
X0082952Y0112515D01*
X0083781Y0114516D01*
X0083781Y0116683D01*
X0082952Y0118685D01*
X0081420Y0120217D01*
X0079418Y0121046D01*
X0077251Y0121046D01*
X0075250Y0120217D01*
X0073718Y0118685D01*
X0073583Y0118359D01*
X0071930Y0119240D01*
X0071930Y0171401D01*
X0074150Y0172650D01*
X0074306Y0172275D01*
X0075825Y0170755D01*
X0076844Y0170333D01*
X0075825Y0169911D01*
X0074306Y0168392D01*
X0073484Y0166408D01*
X0073484Y0164259D01*
X0074306Y0162275D01*
X0075825Y0160755D01*
X0076844Y0160333D01*
X0075825Y0159911D01*
X0074306Y0158392D01*
X0073484Y0156408D01*
X0073484Y0154259D01*
X0074306Y0152275D01*
X0075825Y0150755D01*
X0076484Y0150483D01*
X0076484Y0150184D01*
X0075825Y0149911D01*
X0074306Y0148392D01*
X0073484Y0146408D01*
X0073484Y0144259D01*
X0074306Y0142275D01*
X0075825Y0140755D01*
X0076844Y0140333D01*
X0075825Y0139911D01*
X0074306Y0138392D01*
X0073484Y0136408D01*
X0073484Y0134259D01*
X0074306Y0132275D01*
X0075825Y0130755D01*
X0077810Y0129933D01*
X0086558Y0129933D01*
X0088543Y0130755D01*
X0090062Y0132275D01*
X0090884Y0134259D01*
X0090884Y0136408D01*
X0090062Y0138392D01*
X0088543Y0139911D01*
X0087524Y0140333D01*
X0088543Y0140755D01*
X0090062Y0142275D01*
X0090335Y0142933D01*
X0118420Y0142933D01*
X0118559Y0142599D01*
X0120078Y0141079D01*
X0121930Y0140312D01*
X0121294Y0140106D01*
X0120621Y0139763D01*
X0120010Y0139319D01*
X0119475Y0138784D01*
X0119031Y0138173D01*
X0118688Y0137500D01*
X0118455Y0136781D01*
X0118356Y0136157D01*
X0129236Y0136157D01*
X0129236Y0135157D01*
X0118356Y0135157D01*
X0118455Y0134533D01*
X0118688Y0133815D01*
X0119031Y0133142D01*
X0119475Y0132530D01*
X0120010Y0131996D01*
X0120621Y0131552D01*
X0121294Y0131209D01*
X0122013Y0130976D01*
X0122759Y0130857D01*
X0129237Y0130857D01*
X0129237Y0135157D01*
X0130237Y0135157D01*
X0130237Y0136157D01*
X0134517Y0136157D01*
X0134418Y0136781D01*
X0134185Y0137500D01*
X0133842Y0138173D01*
X0133398Y0138784D01*
X0132864Y0139319D01*
X0132252Y0139763D01*
X0131579Y0140106D01*
X0130943Y0140312D01*
X0132795Y0141079D01*
X0134314Y0142599D01*
X0135137Y0144583D01*
X0135137Y0146731D01*
X0134314Y0148716D01*
X0132795Y0150235D01*
X0131776Y0150657D01*
X0132795Y0151079D01*
X0134314Y0152599D01*
X0134587Y0153257D01*
X0139658Y0153257D01*
X0139979Y0152484D01*
X0141511Y0150952D01*
X0143513Y0150123D01*
X0145679Y0150123D01*
X0147681Y0150952D01*
X0149213Y0152484D01*
X0150042Y0154486D01*
X0150042Y0156653D01*
X0149213Y0158655D01*
X0147681Y0160187D01*
X0145679Y0161016D01*
X0143513Y0161016D01*
X0141511Y0160187D01*
X0139979Y0158655D01*
X0139731Y0158057D01*
X0134587Y0158057D01*
X0134314Y0158716D01*
X0132795Y0160235D01*
X0132137Y0160508D01*
X0132137Y0160807D01*
X0132795Y0161079D01*
X0134314Y0162599D01*
X0135137Y0164583D01*
X0135137Y0166731D01*
X0134314Y0168716D01*
X0132795Y0170235D01*
X0131776Y0170657D01*
X0132795Y0171079D01*
X0134314Y0172599D01*
X0135137Y0174583D01*
X0135137Y0176731D01*
X0134314Y0178716D01*
X0132795Y0180235D01*
X0131776Y0180657D01*
X0132795Y0181079D01*
X0134314Y0182599D01*
X0135137Y0184583D01*
X0135137Y0186731D01*
X0134314Y0188716D01*
X0132795Y0190235D01*
X0131776Y0190657D01*
X0132795Y0191079D01*
X0134314Y0192599D01*
X0135137Y0194583D01*
X0135137Y0196731D01*
X0134314Y0198716D01*
X0132795Y0200235D01*
X0130811Y0201057D01*
X0122062Y0201057D01*
X0120078Y0200235D01*
X0118559Y0198716D01*
X0117737Y0196731D01*
X0117737Y0194583D01*
X0118559Y0192599D01*
X0120078Y0191079D01*
X0121097Y0190657D01*
X0120078Y0190235D01*
X0118559Y0188716D01*
X0118286Y0188057D01*
X0104304Y0188057D01*
X0096076Y0196286D01*
X0096076Y0199899D01*
X0095710Y0200781D01*
X0091533Y0204959D01*
X0090858Y0205634D01*
X0089975Y0205999D01*
X0056672Y0205999D01*
X0055790Y0205634D01*
X0051411Y0201255D01*
X0051411Y0227076D01*
X0051417Y0227091D01*
X0051411Y0227553D01*
X0051411Y0228014D01*
X0051405Y0228029D01*
X0051405Y0228046D01*
X0051222Y0228470D01*
X0051046Y0228896D01*
X0051034Y0228908D01*
X0051028Y0228923D01*
X0050697Y0229245D01*
X0050371Y0229571D01*
X0050356Y0229578D01*
X0048223Y0231655D01*
X0047899Y0231981D01*
X0047882Y0231988D01*
X0047869Y0232000D01*
X0047442Y0232171D01*
X0047017Y0232347D01*
X0046999Y0232347D01*
X0046982Y0232354D01*
X0046522Y0232348D01*
X0036119Y0232364D01*
X0036090Y0232376D01*
X0035866Y0232376D01*
X0035647Y0232423D01*
X0035393Y0232376D01*
X0026944Y0232376D01*
X0026062Y0232011D01*
X0025387Y0231335D01*
X0020892Y0226841D01*
X0020527Y0225959D01*
X0020527Y0225732D01*
X0019842Y0225448D01*
X0018310Y0223916D01*
X0017480Y0221914D01*
X0017480Y0219747D01*
X0018310Y0217745D01*
X0019842Y0216213D01*
X0021843Y0215384D01*
X0024010Y0215384D01*
X0026012Y0216213D01*
X0027544Y0217745D01*
X0028373Y0219747D01*
X0028373Y0221914D01*
X0027544Y0223916D01*
X0026149Y0225310D01*
X0028415Y0227576D01*
X0035159Y0227576D01*
X0035184Y0227565D01*
X0035410Y0227565D01*
X0035631Y0227518D01*
X0035883Y0227564D01*
X0039467Y0227559D01*
X0038875Y0227314D01*
X0037343Y0225782D01*
X0036514Y0223780D01*
X0036514Y0221613D01*
X0037343Y0219611D01*
X0038875Y0218079D01*
X0039560Y0217795D01*
X0039560Y0216819D01*
X0026465Y0203724D01*
X0025790Y0203049D01*
X0025425Y0202167D01*
X0025425Y0064945D01*
X0025790Y0064063D01*
X0036920Y0052933D01*
X0037595Y0052258D01*
X0038477Y0051893D01*
X0175891Y0051893D01*
X0180534Y0047249D01*
X0180534Y0032613D01*
X0179642Y0032244D01*
X0178006Y0030608D01*
X0176370Y0032244D01*
X0174187Y0033148D01*
X0171824Y0033148D01*
X0169642Y0032244D01*
X0168006Y0030608D01*
X0166370Y0032244D01*
X0164187Y0033148D01*
X0161824Y0033148D01*
X0159642Y0032244D01*
X0158006Y0030608D01*
X0156370Y0032244D01*
X0154187Y0033148D01*
X0151824Y0033148D01*
X0149642Y0032244D01*
X0148006Y0030608D01*
X0146370Y0032244D01*
X0144187Y0033148D01*
X0141824Y0033148D01*
X0139642Y0032244D01*
X0138006Y0030608D01*
X0136370Y0032244D01*
X0134187Y0033148D01*
X0131824Y0033148D01*
X0129642Y0032244D01*
X0128006Y0030608D01*
X0126370Y0032244D01*
X0124187Y0033148D01*
X0121824Y0033148D01*
X0119642Y0032244D01*
X0118006Y0030608D01*
X0116370Y0032244D01*
X0114187Y0033148D01*
X0111824Y0033148D01*
X0109642Y0032244D01*
X0108006Y0030608D01*
X0106370Y0032244D01*
X0104187Y0033148D01*
X0101824Y0033148D01*
X0099642Y0032244D01*
X0098006Y0030608D01*
X0096370Y0032244D01*
X0094187Y0033148D01*
X0091824Y0033148D01*
X0089642Y0032244D01*
X0088006Y0030608D01*
X0086370Y0032244D01*
X0084187Y0033148D01*
X0081824Y0033148D01*
X0079642Y0032244D01*
X0078006Y0030608D01*
X0076370Y0032244D01*
X0074187Y0033148D01*
X0071824Y0033148D01*
X0069642Y0032244D01*
X0067971Y0030573D01*
X0067067Y0028391D01*
X0067067Y0018351D01*
X0067971Y0016168D01*
X0069642Y0014498D01*
X0071824Y0013594D01*
X0074187Y0013594D01*
X0076370Y0014498D01*
X0078006Y0016134D01*
X0079642Y0014498D01*
X0081824Y0013594D01*
X0084187Y0013594D01*
X0086370Y0014498D01*
X0088006Y0016134D01*
X0089642Y0014498D01*
X0091824Y0013594D01*
X0094187Y0013594D01*
X0096370Y0014498D01*
X0098006Y0016134D01*
X0099642Y0014498D01*
X0101824Y0013594D01*
X0104187Y0013594D01*
X0106370Y0014498D01*
X0108006Y0016134D01*
X0109642Y0014498D01*
X0111824Y0013594D01*
X0114187Y0013594D01*
X0116370Y0014498D01*
X0118006Y0016134D01*
X0119642Y0014498D01*
X0121824Y0013594D01*
X0124187Y0013594D01*
X0126370Y0014498D01*
X0128006Y0016134D01*
X0129642Y0014498D01*
X0131824Y0013594D01*
X0134187Y0013594D01*
X0136370Y0014498D01*
X0138006Y0016134D01*
X0139642Y0014498D01*
X0141824Y0013594D01*
X0144187Y0013594D01*
X0146370Y0014498D01*
X0148006Y0016134D01*
X0149642Y0014498D01*
X0151824Y0013594D01*
X0154187Y0013594D01*
X0156370Y0014498D01*
X0158006Y0016134D01*
X0159642Y0014498D01*
X0161824Y0013594D01*
X0164187Y0013594D01*
X0166370Y0014498D01*
X0168006Y0016134D01*
X0169642Y0014498D01*
X0171824Y0013594D01*
X0174187Y0013594D01*
X0176370Y0014498D01*
X0178006Y0016134D01*
X0179642Y0014498D01*
X0181824Y0013594D01*
X0184187Y0013594D01*
X0186370Y0014498D01*
X0188006Y0016134D01*
X0189642Y0014498D01*
X0191824Y0013594D01*
X0194187Y0013594D01*
X0196370Y0014498D01*
X0198006Y0016134D01*
X0199642Y0014498D01*
X0201824Y0013594D01*
X0204187Y0013594D01*
X0206370Y0014498D01*
X0208006Y0016134D01*
X0209642Y0014498D01*
X0211824Y0013594D01*
X0214187Y0013594D01*
X0216370Y0014498D01*
X0218040Y0016168D01*
X0218944Y0018351D01*
X0218944Y0028391D01*
X0218040Y0030573D01*
X0216370Y0032244D01*
X0214187Y0033148D01*
X0211824Y0033148D01*
X0209642Y0032244D01*
X0208006Y0030608D01*
X0206370Y0032244D01*
X0204187Y0033148D01*
X0201824Y0033148D01*
X0199642Y0032244D01*
X0198006Y0030608D01*
X0196370Y0032244D01*
X0194187Y0033148D01*
X0191824Y0033148D01*
X0189642Y0032244D01*
X0188006Y0030608D01*
X0186370Y0032244D01*
X0185334Y0032673D01*
X0185334Y0047249D01*
X0190039Y0051954D01*
X0227976Y0051954D01*
X0228858Y0052320D01*
X0229533Y0052995D01*
X0233111Y0056573D01*
X0233476Y0057455D01*
X0233476Y0105690D01*
X0233111Y0106572D01*
X0232436Y0107247D01*
X0225481Y0114202D01*
X0225481Y0189073D01*
X0229719Y0193310D01*
X0232562Y0193310D01*
X0232835Y0192652D01*
X0234354Y0191133D01*
X0235373Y0190710D01*
X0234354Y0190288D01*
X0232835Y0188769D01*
X0232013Y0186785D01*
X0232013Y0184636D01*
X0232835Y0182652D01*
X0234354Y0181133D01*
X0235013Y0180860D01*
X0235013Y0180561D01*
X0234354Y0180288D01*
X0232835Y0178769D01*
X0232013Y0176785D01*
X0232013Y0174636D01*
X0232835Y0172652D01*
X0234354Y0171133D01*
X0235373Y0170710D01*
X0234354Y0170288D01*
X0232835Y0168769D01*
X0232013Y0166785D01*
X0232013Y0164636D01*
X0232835Y0162652D01*
X0234354Y0161133D01*
X0235373Y0160710D01*
X0234354Y0160288D01*
X0232835Y0158769D01*
X0232013Y0156785D01*
X0232013Y0154636D01*
X0232835Y0152652D01*
X0234354Y0151133D01*
X0235013Y0150860D01*
X0235013Y0150561D01*
X0234354Y0150288D01*
X0232835Y0148769D01*
X0232013Y0146785D01*
X0232013Y0144636D01*
X0232835Y0142652D01*
X0234354Y0141133D01*
X0235373Y0140710D01*
X0234354Y0140288D01*
X0232835Y0138769D01*
X0232013Y0136785D01*
X0232013Y0134636D01*
X0232835Y0132652D01*
X0234354Y0131133D01*
X0236339Y0130310D01*
X0245087Y0130310D01*
X0247072Y0131133D01*
X0248591Y0132652D01*
X0249413Y0134636D01*
X0249413Y0136785D01*
X0248591Y0138769D01*
X0247072Y0140288D01*
X0246053Y0140710D01*
X0247072Y0141133D01*
X0248591Y0142652D01*
X0249413Y0144636D01*
X0249413Y0146785D01*
X0248591Y0148769D01*
X0247072Y0150288D01*
X0246053Y0150710D01*
X0247072Y0151133D01*
X0248591Y0152652D01*
X0249413Y0154636D01*
X0249413Y0156785D01*
X0248591Y0158769D01*
X0247072Y0160288D01*
X0246053Y0160710D01*
X0247072Y0161133D01*
X0248591Y0162652D01*
X0249413Y0164636D01*
X0249413Y0166785D01*
X0248591Y0168769D01*
X0247072Y0170288D01*
X0246053Y0170710D01*
X0247072Y0171133D01*
X0248591Y0172652D01*
X0249413Y0174636D01*
X0249413Y0176785D01*
X0248591Y0178769D01*
X0247072Y0180288D01*
X0246053Y0180710D01*
X0247072Y0181133D01*
X0248591Y0182652D01*
X0248798Y0183152D01*
X0250353Y0183152D01*
X0251235Y0183518D01*
X0251910Y0184193D01*
X0254519Y0186802D01*
X0254885Y0187684D01*
X0254885Y0324683D01*
X0254519Y0325565D01*
X0253844Y0326240D01*
X0251988Y0328096D01*
X0251106Y0328461D01*
X0211432Y0328461D01*
X0210550Y0328096D01*
X0209874Y0327421D01*
X0206661Y0324207D01*
X0199866Y0324207D01*
X0197881Y0323385D01*
X0196362Y0321866D01*
X0196089Y0321207D01*
X0195058Y0321207D01*
X0192849Y0323415D01*
X0192855Y0329415D01*
X0192883Y0329499D01*
X0192855Y0329889D01*
X0192855Y0330281D01*
X0192822Y0330363D01*
X0192815Y0330451D01*
X0192640Y0330801D01*
X0192491Y0331163D01*
X0192428Y0331226D01*
X0192388Y0331305D01*
X0192093Y0331562D01*
X0191816Y0331839D01*
X0191734Y0331873D01*
X0187937Y0335168D01*
X0187660Y0335445D01*
X0187579Y0335479D01*
X0187512Y0335536D01*
X0187140Y0335660D01*
X0186777Y0335810D01*
X0186690Y0335810D01*
X0186607Y0335838D01*
X0186215Y0335810D01*
X0118045Y0335810D01*
X0117755Y0336508D01*
X0116223Y0338040D01*
X0114775Y0338640D01*
X0204628Y0338640D01*
X0205510Y0339006D01*
X0206185Y0339681D01*
X0209911Y0343407D01*
X0210277Y0344289D01*
X0210277Y0345421D01*
X0212577Y0347721D01*
X0212577Y0351615D01*
X0209823Y0354368D01*
X0205930Y0354368D01*
X0204536Y0352974D02*
X0181217Y0352974D01*
X0182215Y0351976D02*
X0203538Y0351976D01*
X0203177Y0350977D02*
X0182577Y0350977D01*
X0182577Y0349979D02*
X0203177Y0349979D01*
X0203177Y0348980D02*
X0182577Y0348980D01*
X0182577Y0347982D02*
X0203177Y0347982D01*
X0203914Y0346983D02*
X0181839Y0346983D01*
X0180840Y0345985D02*
X0204913Y0345985D01*
X0204703Y0344986D02*
X0179842Y0344986D01*
X0188129Y0335001D02*
X0264442Y0335001D01*
X0264442Y0334003D02*
X0189279Y0334003D01*
X0190430Y0333004D02*
X0264443Y0333004D01*
X0264443Y0332006D02*
X0191581Y0332006D01*
X0192555Y0331007D02*
X0264444Y0331007D01*
X0264445Y0330009D02*
X0192855Y0330009D01*
X0192854Y0329010D02*
X0264445Y0329010D01*
X0264446Y0328012D02*
X0252072Y0328012D01*
X0253071Y0327013D02*
X0264446Y0327013D01*
X0264447Y0326015D02*
X0254069Y0326015D01*
X0254746Y0325016D02*
X0264447Y0325016D01*
X0264448Y0324018D02*
X0254885Y0324018D01*
X0254885Y0323019D02*
X0264449Y0323019D01*
X0264449Y0322021D02*
X0254885Y0322021D01*
X0254885Y0321022D02*
X0264450Y0321022D01*
X0264450Y0320024D02*
X0254885Y0320024D01*
X0254885Y0319025D02*
X0264451Y0319025D01*
X0264451Y0318027D02*
X0254885Y0318027D01*
X0254885Y0317028D02*
X0264452Y0317028D01*
X0264453Y0316030D02*
X0254885Y0316030D01*
X0254885Y0315031D02*
X0264453Y0315031D01*
X0264454Y0314033D02*
X0254885Y0314033D01*
X0254885Y0313034D02*
X0264454Y0313034D01*
X0264455Y0312036D02*
X0254885Y0312036D01*
X0254885Y0311037D02*
X0264455Y0311037D01*
X0264456Y0310039D02*
X0254885Y0310039D01*
X0254885Y0309040D02*
X0264457Y0309040D01*
X0264457Y0308041D02*
X0254885Y0308041D01*
X0254885Y0307043D02*
X0264458Y0307043D01*
X0264458Y0306044D02*
X0254885Y0306044D01*
X0254885Y0305046D02*
X0264459Y0305046D01*
X0264459Y0304047D02*
X0254885Y0304047D01*
X0254885Y0303049D02*
X0264460Y0303049D01*
X0264461Y0302050D02*
X0254885Y0302050D01*
X0254885Y0301052D02*
X0264461Y0301052D01*
X0264462Y0300053D02*
X0254885Y0300053D01*
X0254885Y0299055D02*
X0264462Y0299055D01*
X0264463Y0298056D02*
X0254885Y0298056D01*
X0254885Y0297058D02*
X0264463Y0297058D01*
X0264464Y0296059D02*
X0254885Y0296059D01*
X0254885Y0295061D02*
X0264464Y0295061D01*
X0264465Y0294062D02*
X0254885Y0294062D01*
X0254885Y0293064D02*
X0264466Y0293064D01*
X0264466Y0292065D02*
X0254885Y0292065D01*
X0254885Y0291067D02*
X0264467Y0291067D01*
X0264467Y0290068D02*
X0254885Y0290068D01*
X0254885Y0289070D02*
X0264468Y0289070D01*
X0264468Y0288071D02*
X0254885Y0288071D01*
X0254885Y0287073D02*
X0264469Y0287073D01*
X0264470Y0286074D02*
X0254885Y0286074D01*
X0254885Y0285076D02*
X0264470Y0285076D01*
X0264471Y0284077D02*
X0254885Y0284077D01*
X0254885Y0283079D02*
X0264471Y0283079D01*
X0264472Y0282080D02*
X0254885Y0282080D01*
X0254885Y0281082D02*
X0264472Y0281082D01*
X0264473Y0280083D02*
X0254885Y0280083D01*
X0254885Y0279085D02*
X0264474Y0279085D01*
X0264474Y0278086D02*
X0254885Y0278086D01*
X0254885Y0277088D02*
X0264475Y0277088D01*
X0264475Y0276089D02*
X0254885Y0276089D01*
X0254885Y0275091D02*
X0264476Y0275091D01*
X0264476Y0274092D02*
X0254885Y0274092D01*
X0254885Y0273094D02*
X0264477Y0273094D01*
X0264478Y0272095D02*
X0254885Y0272095D01*
X0254885Y0271097D02*
X0264478Y0271097D01*
X0264479Y0270098D02*
X0254885Y0270098D01*
X0254885Y0269100D02*
X0264479Y0269100D01*
X0264480Y0268101D02*
X0254885Y0268101D01*
X0254885Y0267103D02*
X0264480Y0267103D01*
X0264481Y0266104D02*
X0254885Y0266104D01*
X0254885Y0265105D02*
X0264482Y0265105D01*
X0264482Y0264107D02*
X0254885Y0264107D01*
X0254885Y0263108D02*
X0264483Y0263108D01*
X0264483Y0262110D02*
X0254885Y0262110D01*
X0254885Y0261111D02*
X0264484Y0261111D01*
X0264484Y0260113D02*
X0254885Y0260113D01*
X0254885Y0259114D02*
X0264485Y0259114D01*
X0264485Y0258116D02*
X0254885Y0258116D01*
X0254885Y0257117D02*
X0264486Y0257117D01*
X0264487Y0256119D02*
X0254885Y0256119D01*
X0254885Y0255120D02*
X0264487Y0255120D01*
X0264488Y0254122D02*
X0254885Y0254122D01*
X0254885Y0253123D02*
X0264488Y0253123D01*
X0264489Y0252125D02*
X0254885Y0252125D01*
X0254885Y0251126D02*
X0264489Y0251126D01*
X0264490Y0250128D02*
X0254885Y0250128D01*
X0254885Y0249129D02*
X0264491Y0249129D01*
X0264491Y0248131D02*
X0254885Y0248131D01*
X0254885Y0247132D02*
X0264492Y0247132D01*
X0264492Y0246134D02*
X0254885Y0246134D01*
X0254885Y0245135D02*
X0264493Y0245135D01*
X0264493Y0244137D02*
X0254885Y0244137D01*
X0254885Y0243138D02*
X0264494Y0243138D01*
X0264495Y0242140D02*
X0254885Y0242140D01*
X0254885Y0241141D02*
X0264495Y0241141D01*
X0264496Y0240143D02*
X0254885Y0240143D01*
X0254885Y0239144D02*
X0264496Y0239144D01*
X0264497Y0238146D02*
X0254885Y0238146D01*
X0254885Y0237147D02*
X0264497Y0237147D01*
X0264498Y0236149D02*
X0254885Y0236149D01*
X0254885Y0235150D02*
X0264499Y0235150D01*
X0264499Y0234152D02*
X0254885Y0234152D01*
X0254885Y0233153D02*
X0264500Y0233153D01*
X0264500Y0232155D02*
X0254885Y0232155D01*
X0254885Y0231156D02*
X0264501Y0231156D01*
X0264501Y0230158D02*
X0254885Y0230158D01*
X0254885Y0229159D02*
X0264502Y0229159D01*
X0264503Y0228161D02*
X0254885Y0228161D01*
X0254885Y0227162D02*
X0264503Y0227162D01*
X0264504Y0226164D02*
X0254885Y0226164D01*
X0254885Y0225165D02*
X0264504Y0225165D01*
X0264505Y0224167D02*
X0254885Y0224167D01*
X0254885Y0223168D02*
X0264505Y0223168D01*
X0264506Y0222170D02*
X0254885Y0222170D01*
X0254885Y0221171D02*
X0264507Y0221171D01*
X0264507Y0220172D02*
X0254885Y0220172D01*
X0254885Y0219174D02*
X0264508Y0219174D01*
X0264508Y0218175D02*
X0254885Y0218175D01*
X0254885Y0217177D02*
X0264509Y0217177D01*
X0264509Y0216178D02*
X0254885Y0216178D01*
X0254885Y0215180D02*
X0264510Y0215180D01*
X0264510Y0214181D02*
X0254885Y0214181D01*
X0254885Y0213183D02*
X0264511Y0213183D01*
X0264512Y0212184D02*
X0254885Y0212184D01*
X0254885Y0211186D02*
X0264512Y0211186D01*
X0264513Y0210187D02*
X0254885Y0210187D01*
X0254885Y0209189D02*
X0264513Y0209189D01*
X0264514Y0208190D02*
X0254885Y0208190D01*
X0254885Y0207192D02*
X0264514Y0207192D01*
X0264515Y0206193D02*
X0254885Y0206193D01*
X0254885Y0205195D02*
X0264516Y0205195D01*
X0264516Y0204196D02*
X0254885Y0204196D01*
X0254885Y0203198D02*
X0264517Y0203198D01*
X0264517Y0202199D02*
X0254885Y0202199D01*
X0254885Y0201201D02*
X0264518Y0201201D01*
X0264518Y0200202D02*
X0254885Y0200202D01*
X0254885Y0199204D02*
X0264519Y0199204D01*
X0264520Y0198205D02*
X0254885Y0198205D01*
X0254885Y0197207D02*
X0264520Y0197207D01*
X0264521Y0196208D02*
X0254885Y0196208D01*
X0254885Y0195210D02*
X0264521Y0195210D01*
X0264522Y0194211D02*
X0254885Y0194211D01*
X0254885Y0193213D02*
X0264522Y0193213D01*
X0264523Y0192214D02*
X0254885Y0192214D01*
X0254885Y0191216D02*
X0264524Y0191216D01*
X0264524Y0190217D02*
X0254885Y0190217D01*
X0254885Y0189219D02*
X0264525Y0189219D01*
X0264525Y0188220D02*
X0254885Y0188220D01*
X0254693Y0187222D02*
X0264526Y0187222D01*
X0264526Y0186223D02*
X0253941Y0186223D01*
X0252942Y0185225D02*
X0264527Y0185225D01*
X0264528Y0184226D02*
X0251944Y0184226D01*
X0250535Y0183228D02*
X0264528Y0183228D01*
X0264529Y0182229D02*
X0248168Y0182229D01*
X0247170Y0181231D02*
X0264529Y0181231D01*
X0264530Y0180232D02*
X0247128Y0180232D01*
X0248127Y0179234D02*
X0264530Y0179234D01*
X0264531Y0178235D02*
X0248812Y0178235D01*
X0249226Y0177237D02*
X0264532Y0177237D01*
X0264532Y0176238D02*
X0249413Y0176238D01*
X0249413Y0175239D02*
X0264533Y0175239D01*
X0264533Y0174241D02*
X0249249Y0174241D01*
X0248836Y0173242D02*
X0264534Y0173242D01*
X0264534Y0172244D02*
X0248183Y0172244D01*
X0247185Y0171245D02*
X0264535Y0171245D01*
X0264535Y0170247D02*
X0247113Y0170247D01*
X0248112Y0169248D02*
X0264536Y0169248D01*
X0264537Y0168250D02*
X0248806Y0168250D01*
X0249220Y0167251D02*
X0264537Y0167251D01*
X0264538Y0166253D02*
X0249413Y0166253D01*
X0249413Y0165254D02*
X0264538Y0165254D01*
X0264539Y0164256D02*
X0249255Y0164256D01*
X0248842Y0163257D02*
X0264539Y0163257D01*
X0264540Y0162259D02*
X0248198Y0162259D01*
X0247200Y0161260D02*
X0264541Y0161260D01*
X0264541Y0160262D02*
X0247098Y0160262D01*
X0248097Y0159263D02*
X0264542Y0159263D01*
X0264542Y0158265D02*
X0248800Y0158265D01*
X0249214Y0157266D02*
X0264543Y0157266D01*
X0264543Y0156268D02*
X0249413Y0156268D01*
X0249413Y0155269D02*
X0264544Y0155269D01*
X0264545Y0154271D02*
X0249262Y0154271D01*
X0248848Y0153272D02*
X0264545Y0153272D01*
X0264546Y0152274D02*
X0248213Y0152274D01*
X0247215Y0151275D02*
X0264546Y0151275D01*
X0264547Y0150277D02*
X0247084Y0150277D01*
X0248082Y0149278D02*
X0264547Y0149278D01*
X0264548Y0148280D02*
X0248794Y0148280D01*
X0249207Y0147281D02*
X0264549Y0147281D01*
X0264549Y0146283D02*
X0249413Y0146283D01*
X0249413Y0145284D02*
X0264550Y0145284D01*
X0264550Y0144286D02*
X0249268Y0144286D01*
X0248854Y0143287D02*
X0264551Y0143287D01*
X0264551Y0142289D02*
X0248228Y0142289D01*
X0247230Y0141290D02*
X0264552Y0141290D01*
X0264553Y0140292D02*
X0247064Y0140292D01*
X0248067Y0139293D02*
X0264553Y0139293D01*
X0264554Y0138295D02*
X0248788Y0138295D01*
X0249201Y0137296D02*
X0264554Y0137296D01*
X0264555Y0136298D02*
X0249413Y0136298D01*
X0249413Y0135299D02*
X0264555Y0135299D01*
X0264556Y0134301D02*
X0249274Y0134301D01*
X0248860Y0133302D02*
X0264556Y0133302D01*
X0264557Y0132303D02*
X0248243Y0132303D01*
X0247244Y0131305D02*
X0264558Y0131305D01*
X0264558Y0130306D02*
X0225481Y0130306D01*
X0225481Y0129308D02*
X0264559Y0129308D01*
X0264559Y0128309D02*
X0225481Y0128309D01*
X0225481Y0127311D02*
X0264560Y0127311D01*
X0264560Y0126312D02*
X0225481Y0126312D01*
X0225481Y0125314D02*
X0264561Y0125314D01*
X0264562Y0124315D02*
X0225481Y0124315D01*
X0225481Y0123317D02*
X0264562Y0123317D01*
X0264563Y0122318D02*
X0225481Y0122318D01*
X0225481Y0121320D02*
X0264563Y0121320D01*
X0264564Y0120321D02*
X0225481Y0120321D01*
X0225481Y0119323D02*
X0264564Y0119323D01*
X0264565Y0118324D02*
X0225481Y0118324D01*
X0225481Y0117326D02*
X0264566Y0117326D01*
X0264566Y0116327D02*
X0225481Y0116327D01*
X0225481Y0115329D02*
X0264567Y0115329D01*
X0264567Y0114330D02*
X0225481Y0114330D01*
X0226351Y0113332D02*
X0264568Y0113332D01*
X0264568Y0112333D02*
X0227349Y0112333D01*
X0228348Y0111335D02*
X0264569Y0111335D01*
X0264570Y0110336D02*
X0229346Y0110336D01*
X0230345Y0109338D02*
X0264570Y0109338D01*
X0264571Y0108339D02*
X0231343Y0108339D01*
X0232342Y0107341D02*
X0264571Y0107341D01*
X0264572Y0106342D02*
X0233206Y0106342D01*
X0233476Y0105344D02*
X0264572Y0105344D01*
X0264573Y0104345D02*
X0233476Y0104345D01*
X0233476Y0103347D02*
X0264574Y0103347D01*
X0264574Y0102348D02*
X0233476Y0102348D01*
X0233476Y0101350D02*
X0264575Y0101350D01*
X0264575Y0100351D02*
X0233476Y0100351D01*
X0233476Y0099353D02*
X0264576Y0099353D01*
X0264576Y0098354D02*
X0233476Y0098354D01*
X0233476Y0097356D02*
X0264577Y0097356D01*
X0264578Y0096357D02*
X0233476Y0096357D01*
X0233476Y0095359D02*
X0264578Y0095359D01*
X0264579Y0094360D02*
X0233476Y0094360D01*
X0233476Y0093362D02*
X0264579Y0093362D01*
X0264580Y0092363D02*
X0233476Y0092363D01*
X0233476Y0091365D02*
X0264580Y0091365D01*
X0264581Y0090366D02*
X0233476Y0090366D01*
X0233476Y0089368D02*
X0264581Y0089368D01*
X0264582Y0088369D02*
X0233476Y0088369D01*
X0233476Y0087370D02*
X0264583Y0087370D01*
X0264583Y0086372D02*
X0233476Y0086372D01*
X0233476Y0085373D02*
X0264584Y0085373D01*
X0264584Y0084375D02*
X0233476Y0084375D01*
X0233476Y0083376D02*
X0264585Y0083376D01*
X0264585Y0082378D02*
X0233476Y0082378D01*
X0233476Y0081379D02*
X0264586Y0081379D01*
X0264587Y0080381D02*
X0233476Y0080381D01*
X0233476Y0079382D02*
X0264587Y0079382D01*
X0264588Y0078384D02*
X0233476Y0078384D01*
X0233476Y0077385D02*
X0264588Y0077385D01*
X0264589Y0076387D02*
X0233476Y0076387D01*
X0233476Y0075388D02*
X0264589Y0075388D01*
X0264590Y0074390D02*
X0254565Y0074390D01*
X0254343Y0074612D02*
X0252717Y0074612D01*
X0252717Y0070262D01*
X0257067Y0070262D01*
X0257067Y0071888D01*
X0254343Y0074612D01*
X0252717Y0074390D02*
X0252117Y0074390D01*
X0252117Y0074612D02*
X0250491Y0074612D01*
X0247767Y0071888D01*
X0247767Y0070262D01*
X0252117Y0070262D01*
X0252117Y0074612D01*
X0252117Y0073391D02*
X0252717Y0073391D01*
X0252717Y0072393D02*
X0252117Y0072393D01*
X0252117Y0071394D02*
X0252717Y0071394D01*
X0252717Y0070396D02*
X0252117Y0070396D01*
X0252117Y0070262D02*
X0252717Y0070262D01*
X0252717Y0069662D01*
X0257067Y0069662D01*
X0257067Y0068036D01*
X0254343Y0065312D01*
X0252717Y0065312D01*
X0252717Y0069662D01*
X0252117Y0069662D01*
X0252117Y0065312D01*
X0250491Y0065312D01*
X0247767Y0068036D01*
X0247767Y0069662D01*
X0252117Y0069662D01*
X0252117Y0070262D01*
X0252117Y0069397D02*
X0252717Y0069397D01*
X0252717Y0068399D02*
X0252117Y0068399D01*
X0252117Y0067400D02*
X0252717Y0067400D01*
X0252717Y0066402D02*
X0252117Y0066402D01*
X0252117Y0065403D02*
X0252717Y0065403D01*
X0254434Y0065403D02*
X0264595Y0065403D01*
X0264596Y0064405D02*
X0233476Y0064405D01*
X0233476Y0065403D02*
X0239551Y0065403D01*
X0240242Y0064712D02*
X0244591Y0064712D01*
X0247667Y0067787D01*
X0247667Y0072136D01*
X0244591Y0075212D01*
X0240242Y0075212D01*
X0237167Y0072136D01*
X0237167Y0067787D01*
X0240242Y0064712D01*
X0238552Y0066402D02*
X0233476Y0066402D01*
X0233476Y0067400D02*
X0237554Y0067400D01*
X0237167Y0068399D02*
X0233476Y0068399D01*
X0233476Y0069397D02*
X0237167Y0069397D01*
X0237167Y0070396D02*
X0233476Y0070396D01*
X0233476Y0071394D02*
X0237167Y0071394D01*
X0237423Y0072393D02*
X0233476Y0072393D01*
X0233476Y0073391D02*
X0238422Y0073391D01*
X0239420Y0074390D02*
X0233476Y0074390D01*
X0228676Y0074390D02*
X0030225Y0074390D01*
X0030225Y0075388D02*
X0228676Y0075388D01*
X0228676Y0076387D02*
X0030225Y0076387D01*
X0030225Y0077385D02*
X0228676Y0077385D01*
X0228676Y0078384D02*
X0030225Y0078384D01*
X0030225Y0079382D02*
X0228676Y0079382D01*
X0228676Y0080381D02*
X0030225Y0080381D01*
X0030225Y0081379D02*
X0071562Y0081379D01*
X0069439Y0082378D02*
X0030225Y0082378D01*
X0030225Y0083376D02*
X0068440Y0083376D01*
X0067752Y0084375D02*
X0030225Y0084375D01*
X0030225Y0085373D02*
X0067338Y0085373D01*
X0067067Y0086372D02*
X0030225Y0086372D01*
X0030225Y0087370D02*
X0067067Y0087370D01*
X0067067Y0088369D02*
X0030225Y0088369D01*
X0030225Y0089368D02*
X0067067Y0089368D01*
X0067067Y0090366D02*
X0030225Y0090366D01*
X0030225Y0091365D02*
X0067067Y0091365D01*
X0067067Y0092363D02*
X0030225Y0092363D01*
X0030225Y0093362D02*
X0067067Y0093362D01*
X0067067Y0094360D02*
X0030225Y0094360D01*
X0030225Y0095359D02*
X0067067Y0095359D01*
X0067187Y0096357D02*
X0030225Y0096357D01*
X0030225Y0097356D02*
X0067601Y0097356D01*
X0068075Y0098354D02*
X0030225Y0098354D01*
X0030225Y0099353D02*
X0069074Y0099353D01*
X0070680Y0100351D02*
X0030225Y0100351D01*
X0030225Y0101350D02*
X0170606Y0101350D01*
X0170606Y0102348D02*
X0030225Y0102348D01*
X0030225Y0103347D02*
X0170606Y0103347D01*
X0170606Y0104345D02*
X0030225Y0104345D01*
X0030225Y0105344D02*
X0085682Y0105344D01*
X0082055Y0110336D02*
X0079860Y0110336D01*
X0081772Y0111335D02*
X0082661Y0111335D01*
X0082771Y0112333D02*
X0083075Y0112333D01*
X0083291Y0113332D02*
X0083494Y0113332D01*
X0083704Y0114330D02*
X0084493Y0114330D01*
X0083781Y0115329D02*
X0086163Y0115329D01*
X0083781Y0116327D02*
X0170606Y0116327D01*
X0170606Y0115329D02*
X0090041Y0115329D01*
X0091711Y0114330D02*
X0170606Y0114330D01*
X0170606Y0113332D02*
X0092709Y0113332D01*
X0093129Y0112333D02*
X0170606Y0112333D01*
X0170606Y0111335D02*
X0093542Y0111335D01*
X0093548Y0110336D02*
X0170606Y0110336D01*
X0170606Y0109338D02*
X0093548Y0109338D01*
X0093211Y0108339D02*
X0170606Y0108339D01*
X0170606Y0107341D02*
X0092797Y0107341D01*
X0091910Y0106342D02*
X0170606Y0106342D01*
X0170606Y0105344D02*
X0090521Y0105344D01*
X0090680Y0100351D02*
X0085331Y0100351D01*
X0086938Y0099353D02*
X0089074Y0099353D01*
X0088075Y0098354D02*
X0087936Y0098354D01*
X0080680Y0100351D02*
X0075331Y0100351D01*
X0076938Y0099353D02*
X0079074Y0099353D01*
X0078075Y0098354D02*
X0077936Y0098354D01*
X0070400Y0106342D02*
X0030225Y0106342D01*
X0030225Y0107341D02*
X0068574Y0107341D01*
X0066747Y0108339D02*
X0030225Y0108339D01*
X0030225Y0109338D02*
X0064921Y0109338D01*
X0063095Y0110336D02*
X0030225Y0110336D01*
X0030225Y0111335D02*
X0061735Y0111335D01*
X0061352Y0112333D02*
X0030225Y0112333D01*
X0030225Y0113332D02*
X0061352Y0113332D01*
X0061352Y0114330D02*
X0030225Y0114330D01*
X0030225Y0115329D02*
X0061352Y0115329D01*
X0061352Y0116327D02*
X0030225Y0116327D01*
X0030225Y0117326D02*
X0061352Y0117326D01*
X0061352Y0118324D02*
X0030225Y0118324D01*
X0030225Y0119323D02*
X0061352Y0119323D01*
X0061352Y0120321D02*
X0030225Y0120321D01*
X0030225Y0121320D02*
X0061352Y0121320D01*
X0061352Y0122318D02*
X0030225Y0122318D01*
X0030225Y0123317D02*
X0061352Y0123317D01*
X0061352Y0124315D02*
X0030225Y0124315D01*
X0030225Y0125314D02*
X0061352Y0125314D01*
X0061352Y0126312D02*
X0030225Y0126312D01*
X0030225Y0127311D02*
X0061352Y0127311D01*
X0061352Y0128309D02*
X0030225Y0128309D01*
X0030225Y0129308D02*
X0061352Y0129308D01*
X0061352Y0130306D02*
X0030225Y0130306D01*
X0030225Y0131305D02*
X0039662Y0131305D01*
X0039768Y0131228D02*
X0040441Y0130885D01*
X0041160Y0130652D01*
X0041906Y0130533D01*
X0048384Y0130533D01*
X0048384Y0134833D01*
X0037503Y0134833D01*
X0037602Y0134209D01*
X0037835Y0133491D01*
X0038178Y0132818D01*
X0038623Y0132206D01*
X0039157Y0131672D01*
X0039768Y0131228D01*
X0038552Y0132303D02*
X0030225Y0132303D01*
X0030225Y0133302D02*
X0037932Y0133302D01*
X0037588Y0134301D02*
X0030225Y0134301D01*
X0030225Y0135299D02*
X0048384Y0135299D01*
X0048384Y0134301D02*
X0049384Y0134301D01*
X0049384Y0135299D02*
X0061352Y0135299D01*
X0061352Y0134301D02*
X0053580Y0134301D01*
X0053236Y0133302D02*
X0061352Y0133302D01*
X0061352Y0132303D02*
X0052616Y0132303D01*
X0051505Y0131305D02*
X0061352Y0131305D01*
X0061352Y0136298D02*
X0053591Y0136298D01*
X0053271Y0137296D02*
X0061352Y0137296D01*
X0061352Y0138295D02*
X0052665Y0138295D01*
X0051600Y0139293D02*
X0061352Y0139293D01*
X0061352Y0140292D02*
X0050823Y0140292D01*
X0052477Y0141290D02*
X0061352Y0141290D01*
X0061352Y0142289D02*
X0053467Y0142289D01*
X0053881Y0143287D02*
X0061352Y0143287D01*
X0061352Y0144286D02*
X0054284Y0144286D01*
X0054284Y0145284D02*
X0061352Y0145284D01*
X0061352Y0146283D02*
X0054284Y0146283D01*
X0053922Y0147281D02*
X0061352Y0147281D01*
X0061352Y0148280D02*
X0053508Y0148280D01*
X0052576Y0149278D02*
X0061352Y0149278D01*
X0061352Y0150277D02*
X0051060Y0150277D01*
X0052462Y0151275D02*
X0061352Y0151275D01*
X0061352Y0152274D02*
X0053461Y0152274D01*
X0053875Y0153272D02*
X0061352Y0153272D01*
X0061352Y0154271D02*
X0054284Y0154271D01*
X0054284Y0155269D02*
X0061352Y0155269D01*
X0061352Y0156268D02*
X0054284Y0156268D01*
X0053928Y0157266D02*
X0061352Y0157266D01*
X0061352Y0158265D02*
X0053514Y0158265D01*
X0052591Y0159263D02*
X0061352Y0159263D01*
X0061352Y0160262D02*
X0051284Y0160262D01*
X0052447Y0161260D02*
X0061352Y0161260D01*
X0061352Y0162259D02*
X0053446Y0162259D01*
X0053869Y0163257D02*
X0061352Y0163257D01*
X0061352Y0164256D02*
X0054282Y0164256D01*
X0054284Y0165254D02*
X0061352Y0165254D01*
X0061352Y0166253D02*
X0054284Y0166253D01*
X0053934Y0167251D02*
X0061352Y0167251D01*
X0061352Y0168250D02*
X0053521Y0168250D01*
X0052605Y0169248D02*
X0061352Y0169248D01*
X0061352Y0170247D02*
X0051132Y0170247D01*
X0052433Y0171245D02*
X0061352Y0171245D01*
X0061352Y0172244D02*
X0053431Y0172244D01*
X0053863Y0173242D02*
X0061352Y0173242D01*
X0061352Y0174241D02*
X0054276Y0174241D01*
X0054284Y0175239D02*
X0061352Y0175239D01*
X0061352Y0176238D02*
X0054284Y0176238D01*
X0053940Y0177237D02*
X0061352Y0177237D01*
X0061352Y0178235D02*
X0053527Y0178235D01*
X0052620Y0179234D02*
X0061352Y0179234D01*
X0061352Y0180232D02*
X0051168Y0180232D01*
X0052418Y0181231D02*
X0061352Y0181231D01*
X0061722Y0182229D02*
X0053416Y0182229D01*
X0053856Y0183228D02*
X0063013Y0183228D01*
X0064643Y0184226D02*
X0054270Y0184226D01*
X0054284Y0185225D02*
X0066273Y0185225D01*
X0067902Y0186223D02*
X0054284Y0186223D01*
X0053947Y0187222D02*
X0069532Y0187222D01*
X0074235Y0188220D02*
X0053533Y0188220D01*
X0052635Y0189219D02*
X0075132Y0189219D01*
X0076563Y0190217D02*
X0051284Y0190217D01*
X0052403Y0191216D02*
X0075365Y0191216D01*
X0074366Y0192214D02*
X0053401Y0192214D01*
X0053850Y0193213D02*
X0073917Y0193213D01*
X0073504Y0194211D02*
X0054264Y0194211D01*
X0054284Y0195210D02*
X0073484Y0195210D01*
X0073484Y0196208D02*
X0054284Y0196208D01*
X0054151Y0197207D02*
X0073815Y0197207D01*
X0074228Y0198205D02*
X0055150Y0198205D01*
X0056148Y0199204D02*
X0075117Y0199204D01*
X0076527Y0200202D02*
X0057147Y0200202D01*
X0054353Y0204196D02*
X0051411Y0204196D01*
X0051411Y0203198D02*
X0053354Y0203198D01*
X0052356Y0202199D02*
X0051411Y0202199D01*
X0051411Y0205195D02*
X0055351Y0205195D01*
X0051411Y0206193D02*
X0151024Y0206193D01*
X0151024Y0205195D02*
X0091296Y0205195D01*
X0092295Y0204196D02*
X0151024Y0204196D01*
X0151024Y0203198D02*
X0093293Y0203198D01*
X0094292Y0202199D02*
X0151024Y0202199D01*
X0151024Y0201201D02*
X0095290Y0201201D01*
X0095950Y0200202D02*
X0120045Y0200202D01*
X0119046Y0199204D02*
X0096076Y0199204D01*
X0096076Y0198205D02*
X0118347Y0198205D01*
X0117933Y0197207D02*
X0096076Y0197207D01*
X0096153Y0196208D02*
X0117737Y0196208D01*
X0117737Y0195210D02*
X0097152Y0195210D01*
X0098151Y0194211D02*
X0117891Y0194211D01*
X0118304Y0193213D02*
X0099149Y0193213D01*
X0100148Y0192214D02*
X0118943Y0192214D01*
X0119941Y0191216D02*
X0101146Y0191216D01*
X0102145Y0190217D02*
X0120060Y0190217D01*
X0119061Y0189219D02*
X0103143Y0189219D01*
X0104142Y0188220D02*
X0118353Y0188220D01*
X0118298Y0183228D02*
X0090456Y0183228D01*
X0090870Y0184226D02*
X0101347Y0184226D01*
X0100349Y0185225D02*
X0090884Y0185225D01*
X0090884Y0186223D02*
X0099350Y0186223D01*
X0098352Y0187222D02*
X0090547Y0187222D01*
X0090133Y0188220D02*
X0097353Y0188220D01*
X0096355Y0189219D02*
X0089235Y0189219D01*
X0087804Y0190217D02*
X0095356Y0190217D01*
X0094358Y0191216D02*
X0089003Y0191216D01*
X0090001Y0192214D02*
X0093359Y0192214D01*
X0092361Y0193213D02*
X0090450Y0193213D01*
X0090864Y0194211D02*
X0091526Y0194211D01*
X0091276Y0195210D02*
X0090884Y0195210D01*
X0090884Y0196208D02*
X0091276Y0196208D01*
X0091276Y0197207D02*
X0090553Y0197207D01*
X0090139Y0198205D02*
X0091276Y0198205D01*
X0090499Y0199204D02*
X0089250Y0199204D01*
X0089501Y0200202D02*
X0087840Y0200202D01*
X0086120Y0213243D02*
X0090470Y0213243D01*
X0093545Y0216318D01*
X0093545Y0220667D01*
X0090470Y0223743D01*
X0086120Y0223743D01*
X0083045Y0220667D01*
X0083045Y0216318D01*
X0086120Y0213243D01*
X0085182Y0214181D02*
X0069200Y0214181D01*
X0069200Y0215051D02*
X0068371Y0217053D01*
X0066839Y0218585D01*
X0066128Y0218879D01*
X0066062Y0231143D01*
X0066088Y0231536D01*
X0066060Y0231618D01*
X0066059Y0231704D01*
X0065907Y0232067D01*
X0065780Y0232440D01*
X0065723Y0232505D01*
X0065689Y0232584D01*
X0065409Y0232861D01*
X0062444Y0236234D01*
X0062414Y0236307D01*
X0062130Y0236590D01*
X0061866Y0236891D01*
X0061795Y0236926D01*
X0061739Y0236982D01*
X0061369Y0237136D01*
X0061009Y0237312D01*
X0060930Y0237317D01*
X0060856Y0237348D01*
X0060456Y0237348D01*
X0060057Y0237373D01*
X0059981Y0237348D01*
X0030953Y0237348D01*
X0030936Y0237355D01*
X0030476Y0237348D01*
X0030017Y0237348D01*
X0030000Y0237341D01*
X0026382Y0237286D01*
X0019236Y0237218D01*
X0017497Y0238640D01*
X0017273Y0238877D01*
X0017130Y0238940D01*
X0017009Y0239039D01*
X0016984Y0239047D01*
X0016175Y0239773D01*
X0016063Y0311740D01*
X0030462Y0326138D01*
X0031147Y0325855D01*
X0033314Y0325855D01*
X0035316Y0326684D01*
X0036848Y0328216D01*
X0037677Y0330218D01*
X0037677Y0332384D01*
X0036848Y0334386D01*
X0035316Y0335918D01*
X0033314Y0336747D01*
X0031147Y0336747D01*
X0029145Y0335918D01*
X0027613Y0334386D01*
X0026784Y0332384D01*
X0026784Y0330218D01*
X0027068Y0329532D01*
X0012301Y0314765D01*
X0012299Y0314765D01*
X0011962Y0314427D01*
X0011627Y0314092D01*
X0011626Y0314090D01*
X0011625Y0314088D01*
X0011443Y0313647D01*
X0011262Y0313210D01*
X0011262Y0313208D01*
X0011261Y0313206D01*
X0011262Y0312731D01*
X0011262Y0312255D01*
X0011262Y0312253D01*
X0011376Y0239110D01*
X0011354Y0239049D01*
X0011377Y0238635D01*
X0011377Y0238220D01*
X0011402Y0238160D01*
X0011406Y0238096D01*
X0011585Y0237722D01*
X0011744Y0237339D01*
X0011790Y0237293D01*
X0011818Y0237235D01*
X0012127Y0236957D01*
X0012420Y0236665D01*
X0012480Y0236640D01*
X0014129Y0235160D01*
X0014390Y0234883D01*
X0014481Y0234843D01*
X0014556Y0234776D01*
X0014704Y0234724D01*
X0016786Y0233021D01*
X0017049Y0232762D01*
X0017153Y0232721D01*
X0017239Y0232650D01*
X0017592Y0232543D01*
X0017935Y0232405D01*
X0018046Y0232407D01*
X0018153Y0232374D01*
X0018520Y0232411D01*
X0025965Y0232482D01*
X0025971Y0232480D01*
X0026442Y0232487D01*
X0026913Y0232491D01*
X0026919Y0232494D01*
X0030513Y0232548D01*
X0059293Y0232548D01*
X0061267Y0230303D01*
X0061328Y0218858D01*
X0060669Y0218585D01*
X0059137Y0217053D01*
X0058308Y0215051D01*
X0058308Y0212884D01*
X0059137Y0210882D01*
X0060669Y0209350D01*
X0062671Y0208521D01*
X0064837Y0208521D01*
X0066839Y0209350D01*
X0068371Y0210882D01*
X0069200Y0212884D01*
X0069200Y0215051D01*
X0069147Y0215180D02*
X0084183Y0215180D01*
X0083185Y0216178D02*
X0068733Y0216178D01*
X0068247Y0217177D02*
X0083045Y0217177D01*
X0083045Y0218175D02*
X0067248Y0218175D01*
X0066126Y0219174D02*
X0083045Y0219174D01*
X0083045Y0220172D02*
X0066121Y0220172D01*
X0066116Y0221171D02*
X0083549Y0221171D01*
X0084547Y0222170D02*
X0066110Y0222170D01*
X0066105Y0223168D02*
X0085546Y0223168D01*
X0086051Y0227297D02*
X0090400Y0227297D01*
X0093475Y0230372D01*
X0093475Y0234721D01*
X0090400Y0237797D01*
X0086051Y0237797D01*
X0082975Y0234721D01*
X0082975Y0230372D01*
X0086051Y0227297D01*
X0085187Y0228161D02*
X0066078Y0228161D01*
X0066073Y0229159D02*
X0084188Y0229159D01*
X0083190Y0230158D02*
X0066068Y0230158D01*
X0066063Y0231156D02*
X0082975Y0231156D01*
X0082975Y0232155D02*
X0076706Y0232155D01*
X0077906Y0233153D02*
X0082975Y0233153D01*
X0082975Y0234152D02*
X0078716Y0234152D01*
X0079130Y0235150D02*
X0083404Y0235150D01*
X0084402Y0236149D02*
X0079412Y0236149D01*
X0079412Y0237147D02*
X0085401Y0237147D01*
X0091049Y0237147D02*
X0096249Y0237147D01*
X0096299Y0237197D02*
X0093575Y0234473D01*
X0093575Y0232847D01*
X0097925Y0232847D01*
X0097925Y0232247D01*
X0093575Y0232247D01*
X0093575Y0230621D01*
X0096299Y0227897D01*
X0097925Y0227897D01*
X0097925Y0232247D01*
X0098525Y0232247D01*
X0098525Y0227897D01*
X0100151Y0227897D01*
X0102875Y0230621D01*
X0102875Y0232247D01*
X0098525Y0232247D01*
X0098525Y0232847D01*
X0097925Y0232847D01*
X0097925Y0237197D01*
X0096299Y0237197D01*
X0095251Y0236149D02*
X0092048Y0236149D01*
X0093046Y0235150D02*
X0094252Y0235150D01*
X0093575Y0234152D02*
X0093475Y0234152D01*
X0093475Y0233153D02*
X0093575Y0233153D01*
X0093575Y0232155D02*
X0093475Y0232155D01*
X0093475Y0231156D02*
X0093575Y0231156D01*
X0093261Y0230158D02*
X0094038Y0230158D01*
X0095037Y0229159D02*
X0092262Y0229159D01*
X0091264Y0228161D02*
X0096035Y0228161D01*
X0097925Y0228161D02*
X0098525Y0228161D01*
X0098525Y0229159D02*
X0097925Y0229159D01*
X0097925Y0230158D02*
X0098525Y0230158D01*
X0098525Y0231156D02*
X0097925Y0231156D01*
X0097925Y0232155D02*
X0098525Y0232155D01*
X0098525Y0232847D02*
X0102875Y0232847D01*
X0102875Y0234473D01*
X0100151Y0237197D01*
X0098525Y0237197D01*
X0098525Y0232847D01*
X0098525Y0233153D02*
X0097925Y0233153D01*
X0097925Y0234152D02*
X0098525Y0234152D01*
X0098525Y0235150D02*
X0097925Y0235150D01*
X0097925Y0236149D02*
X0098525Y0236149D01*
X0098525Y0237147D02*
X0097925Y0237147D01*
X0100201Y0237147D02*
X0150310Y0237147D01*
X0151024Y0236149D02*
X0101199Y0236149D01*
X0102198Y0235150D02*
X0151024Y0235150D01*
X0151024Y0234152D02*
X0102875Y0234152D01*
X0102875Y0233153D02*
X0151024Y0233153D01*
X0151024Y0232155D02*
X0102875Y0232155D01*
X0102875Y0231156D02*
X0151024Y0231156D01*
X0151024Y0230158D02*
X0102412Y0230158D01*
X0101414Y0229159D02*
X0151024Y0229159D01*
X0151024Y0228161D02*
X0100415Y0228161D01*
X0100221Y0223143D02*
X0098595Y0223143D01*
X0098595Y0218793D01*
X0097995Y0218793D01*
X0097995Y0223143D01*
X0096369Y0223143D01*
X0093645Y0220419D01*
X0093645Y0218793D01*
X0097995Y0218793D01*
X0097995Y0218193D01*
X0093645Y0218193D01*
X0093645Y0216567D01*
X0096369Y0213843D01*
X0097995Y0213843D01*
X0097995Y0218193D01*
X0098595Y0218193D01*
X0098595Y0218793D01*
X0102945Y0218793D01*
X0102945Y0220419D01*
X0100221Y0223143D01*
X0101194Y0222170D02*
X0151024Y0222170D01*
X0151024Y0223168D02*
X0091044Y0223168D01*
X0092043Y0222170D02*
X0095396Y0222170D01*
X0094397Y0221171D02*
X0093041Y0221171D01*
X0093545Y0220172D02*
X0093645Y0220172D01*
X0093645Y0219174D02*
X0093545Y0219174D01*
X0093545Y0218175D02*
X0093645Y0218175D01*
X0093645Y0217177D02*
X0093545Y0217177D01*
X0093405Y0216178D02*
X0094033Y0216178D01*
X0095032Y0215180D02*
X0092407Y0215180D01*
X0091408Y0214181D02*
X0096030Y0214181D01*
X0097995Y0214181D02*
X0098595Y0214181D01*
X0098595Y0213843D02*
X0100221Y0213843D01*
X0102945Y0216567D01*
X0102945Y0218193D01*
X0098595Y0218193D01*
X0098595Y0213843D01*
X0098595Y0215180D02*
X0097995Y0215180D01*
X0097995Y0216178D02*
X0098595Y0216178D01*
X0098595Y0217177D02*
X0097995Y0217177D01*
X0097995Y0218175D02*
X0098595Y0218175D01*
X0098595Y0219174D02*
X0097995Y0219174D01*
X0097995Y0220172D02*
X0098595Y0220172D01*
X0098595Y0221171D02*
X0097995Y0221171D01*
X0097995Y0222170D02*
X0098595Y0222170D01*
X0102193Y0221171D02*
X0151024Y0221171D01*
X0151024Y0220172D02*
X0102945Y0220172D01*
X0102945Y0219174D02*
X0151024Y0219174D01*
X0151024Y0218175D02*
X0102945Y0218175D01*
X0102945Y0217177D02*
X0151024Y0217177D01*
X0151024Y0216178D02*
X0102557Y0216178D01*
X0101558Y0215180D02*
X0151024Y0215180D01*
X0151024Y0214181D02*
X0100560Y0214181D01*
X0079350Y0238146D02*
X0148748Y0238146D01*
X0147788Y0239144D02*
X0078937Y0239144D01*
X0078439Y0240143D02*
X0147374Y0240143D01*
X0146986Y0241141D02*
X0077441Y0241141D01*
X0075583Y0242140D02*
X0146986Y0242140D01*
X0146986Y0243138D02*
X0070904Y0243138D01*
X0071903Y0242140D02*
X0072348Y0242140D01*
X0069906Y0244137D02*
X0147355Y0244137D01*
X0147769Y0245135D02*
X0032018Y0245135D01*
X0031019Y0246134D02*
X0148701Y0246134D01*
X0156607Y0254229D02*
X0158592Y0253407D01*
X0167340Y0253407D01*
X0169325Y0254229D01*
X0170844Y0255748D01*
X0171666Y0257733D01*
X0171666Y0259881D01*
X0170844Y0261866D01*
X0169325Y0263385D01*
X0168306Y0263807D01*
X0169325Y0264229D01*
X0170844Y0265748D01*
X0171666Y0267733D01*
X0171666Y0269881D01*
X0170844Y0271866D01*
X0169325Y0273385D01*
X0168306Y0273807D01*
X0169325Y0274229D01*
X0170844Y0275748D01*
X0171666Y0277733D01*
X0171666Y0279881D01*
X0170844Y0281866D01*
X0169325Y0283385D01*
X0168306Y0283807D01*
X0169325Y0284229D01*
X0170844Y0285748D01*
X0171666Y0287733D01*
X0171666Y0289881D01*
X0170844Y0291866D01*
X0169325Y0293385D01*
X0168306Y0293807D01*
X0169325Y0294229D01*
X0170844Y0295748D01*
X0171666Y0297733D01*
X0171666Y0299881D01*
X0170844Y0301866D01*
X0169325Y0303385D01*
X0168306Y0303807D01*
X0169325Y0304229D01*
X0170844Y0305748D01*
X0171666Y0307733D01*
X0171666Y0309881D01*
X0170844Y0311866D01*
X0169325Y0313385D01*
X0168306Y0313807D01*
X0169325Y0314229D01*
X0170844Y0315748D01*
X0171666Y0317733D01*
X0171666Y0319881D01*
X0170844Y0321866D01*
X0169325Y0323385D01*
X0167340Y0324207D01*
X0158592Y0324207D01*
X0156607Y0323385D01*
X0155088Y0321866D01*
X0154266Y0319881D01*
X0154266Y0317733D01*
X0155088Y0315748D01*
X0156607Y0314229D01*
X0157626Y0313807D01*
X0156607Y0313385D01*
X0155088Y0311866D01*
X0154266Y0309881D01*
X0154266Y0307733D01*
X0155088Y0305748D01*
X0156607Y0304229D01*
X0157626Y0303807D01*
X0156607Y0303385D01*
X0155088Y0301866D01*
X0154266Y0299881D01*
X0154266Y0297733D01*
X0155088Y0295748D01*
X0156607Y0294229D01*
X0157626Y0293807D01*
X0156607Y0293385D01*
X0155088Y0291866D01*
X0154266Y0289881D01*
X0154266Y0287733D01*
X0155088Y0285748D01*
X0156607Y0284229D01*
X0157626Y0283807D01*
X0156607Y0283385D01*
X0155088Y0281866D01*
X0154266Y0279881D01*
X0154266Y0277733D01*
X0155088Y0275748D01*
X0156607Y0274229D01*
X0157626Y0273807D01*
X0156607Y0273385D01*
X0155088Y0271866D01*
X0154266Y0269881D01*
X0154266Y0267733D01*
X0155088Y0265748D01*
X0156607Y0264229D01*
X0157626Y0263807D01*
X0156607Y0263385D01*
X0155088Y0261866D01*
X0154266Y0259881D01*
X0154266Y0257733D01*
X0155088Y0255748D01*
X0156607Y0254229D01*
X0156866Y0254122D02*
X0130768Y0254122D01*
X0130790Y0254125D02*
X0131508Y0254359D01*
X0132181Y0254702D01*
X0132793Y0255146D01*
X0133327Y0255680D01*
X0133771Y0256291D01*
X0134114Y0256965D01*
X0134348Y0257683D01*
X0134446Y0258307D01*
X0130166Y0258307D01*
X0130166Y0259307D01*
X0134446Y0259307D01*
X0134348Y0259931D01*
X0134114Y0260650D01*
X0133771Y0261323D01*
X0133327Y0261934D01*
X0132793Y0262468D01*
X0132181Y0262912D01*
X0131508Y0263255D01*
X0130872Y0263462D01*
X0132725Y0264229D01*
X0134244Y0265748D01*
X0135066Y0267733D01*
X0135066Y0269881D01*
X0134244Y0271866D01*
X0132725Y0273385D01*
X0131706Y0273807D01*
X0132725Y0274229D01*
X0134244Y0275748D01*
X0135066Y0277733D01*
X0135066Y0279881D01*
X0134244Y0281866D01*
X0132725Y0283385D01*
X0132066Y0283658D01*
X0132066Y0283956D01*
X0132725Y0284229D01*
X0134244Y0285748D01*
X0135066Y0287733D01*
X0135066Y0289881D01*
X0134244Y0291866D01*
X0132725Y0293385D01*
X0131706Y0293807D01*
X0132725Y0294229D01*
X0134244Y0295748D01*
X0135066Y0297733D01*
X0135066Y0299881D01*
X0134244Y0301866D01*
X0132725Y0303385D01*
X0131706Y0303807D01*
X0132725Y0304229D01*
X0134244Y0305748D01*
X0135066Y0307733D01*
X0135066Y0309881D01*
X0134244Y0311866D01*
X0132725Y0313385D01*
X0132066Y0313658D01*
X0132066Y0313956D01*
X0132725Y0314229D01*
X0134244Y0315748D01*
X0135066Y0317733D01*
X0135066Y0319881D01*
X0134244Y0321866D01*
X0132725Y0323385D01*
X0130740Y0324207D01*
X0121992Y0324207D01*
X0120007Y0323385D01*
X0118488Y0321866D01*
X0117666Y0319881D01*
X0117666Y0317733D01*
X0118488Y0315748D01*
X0120007Y0314229D01*
X0121026Y0313807D01*
X0120007Y0313385D01*
X0118488Y0311866D01*
X0117666Y0309881D01*
X0117666Y0307733D01*
X0118488Y0305748D01*
X0120007Y0304229D01*
X0121026Y0303807D01*
X0120007Y0303385D01*
X0118488Y0301866D01*
X0117666Y0299881D01*
X0117666Y0297733D01*
X0118488Y0295748D01*
X0120007Y0294229D01*
X0121026Y0293807D01*
X0120007Y0293385D01*
X0118488Y0291866D01*
X0117666Y0289881D01*
X0117666Y0287733D01*
X0118488Y0285748D01*
X0120007Y0284229D01*
X0121026Y0283807D01*
X0120007Y0283385D01*
X0118488Y0281866D01*
X0117666Y0279881D01*
X0117666Y0277733D01*
X0118488Y0275748D01*
X0120007Y0274229D01*
X0121026Y0273807D01*
X0120007Y0273385D01*
X0118488Y0271866D01*
X0117666Y0269881D01*
X0117666Y0267733D01*
X0118488Y0265748D01*
X0120007Y0264229D01*
X0121859Y0263462D01*
X0121223Y0263255D01*
X0120550Y0262912D01*
X0119939Y0262468D01*
X0119405Y0261934D01*
X0118960Y0261323D01*
X0118617Y0260650D01*
X0118384Y0259931D01*
X0118285Y0259307D01*
X0129166Y0259307D01*
X0129166Y0258307D01*
X0130166Y0258307D01*
X0130166Y0254026D01*
X0130790Y0254125D01*
X0130166Y0254122D02*
X0129166Y0254122D01*
X0129166Y0254007D02*
X0129166Y0258307D01*
X0118285Y0258307D01*
X0118384Y0257683D01*
X0118617Y0256965D01*
X0118960Y0256291D01*
X0119405Y0255680D01*
X0119939Y0255146D01*
X0120550Y0254702D01*
X0121223Y0254359D01*
X0121942Y0254125D01*
X0122688Y0254007D01*
X0129166Y0254007D01*
X0129166Y0255120D02*
X0130166Y0255120D01*
X0130166Y0256119D02*
X0129166Y0256119D01*
X0129166Y0257117D02*
X0130166Y0257117D01*
X0130166Y0258116D02*
X0129166Y0258116D01*
X0129166Y0259114D02*
X0090918Y0259114D01*
X0090918Y0259881D02*
X0090096Y0261866D01*
X0088577Y0263385D01*
X0087558Y0263807D01*
X0088577Y0264229D01*
X0090096Y0265748D01*
X0090918Y0267733D01*
X0090918Y0269881D01*
X0090096Y0271866D01*
X0088577Y0273385D01*
X0087558Y0273807D01*
X0088577Y0274229D01*
X0090096Y0275748D01*
X0090918Y0277733D01*
X0090918Y0279881D01*
X0090096Y0281866D01*
X0088577Y0283385D01*
X0087558Y0283807D01*
X0088577Y0284229D01*
X0090096Y0285748D01*
X0090918Y0287733D01*
X0090918Y0289881D01*
X0090096Y0291866D01*
X0088577Y0293385D01*
X0087558Y0293807D01*
X0088577Y0294229D01*
X0090096Y0295748D01*
X0090918Y0297733D01*
X0090918Y0299881D01*
X0090096Y0301866D01*
X0088577Y0303385D01*
X0087558Y0303807D01*
X0088577Y0304229D01*
X0090096Y0305748D01*
X0090918Y0307733D01*
X0090918Y0309881D01*
X0090096Y0311866D01*
X0088577Y0313385D01*
X0087558Y0313807D01*
X0088577Y0314229D01*
X0090096Y0315748D01*
X0090918Y0317733D01*
X0090918Y0319881D01*
X0090096Y0321866D01*
X0088577Y0323385D01*
X0086592Y0324207D01*
X0077844Y0324207D01*
X0075859Y0323385D01*
X0074340Y0321866D01*
X0073518Y0319881D01*
X0073518Y0317733D01*
X0074340Y0315748D01*
X0075859Y0314229D01*
X0076878Y0313807D01*
X0075859Y0313385D01*
X0074340Y0311866D01*
X0073518Y0309881D01*
X0073518Y0307733D01*
X0074340Y0305748D01*
X0075859Y0304229D01*
X0076878Y0303807D01*
X0075859Y0303385D01*
X0074340Y0301866D01*
X0073518Y0299881D01*
X0073518Y0297733D01*
X0074340Y0295748D01*
X0075859Y0294229D01*
X0076878Y0293807D01*
X0075859Y0293385D01*
X0074340Y0291866D01*
X0073518Y0289881D01*
X0073518Y0287733D01*
X0074340Y0285748D01*
X0075859Y0284229D01*
X0076878Y0283807D01*
X0075859Y0283385D01*
X0074340Y0281866D01*
X0073518Y0279881D01*
X0073518Y0277733D01*
X0074340Y0275748D01*
X0075859Y0274229D01*
X0076878Y0273807D01*
X0075859Y0273385D01*
X0074340Y0271866D01*
X0073518Y0269881D01*
X0073518Y0267733D01*
X0074340Y0265748D01*
X0075859Y0264229D01*
X0076878Y0263807D01*
X0075859Y0263385D01*
X0074340Y0261866D01*
X0073518Y0259881D01*
X0073518Y0257733D01*
X0074340Y0255748D01*
X0075859Y0254229D01*
X0077844Y0253407D01*
X0086592Y0253407D01*
X0088577Y0254229D01*
X0090096Y0255748D01*
X0090918Y0257733D01*
X0090918Y0259881D01*
X0090822Y0260113D02*
X0118443Y0260113D01*
X0118853Y0261111D02*
X0090408Y0261111D01*
X0089852Y0262110D02*
X0119580Y0262110D01*
X0120935Y0263108D02*
X0088853Y0263108D01*
X0088282Y0264107D02*
X0120302Y0264107D01*
X0119131Y0265105D02*
X0089453Y0265105D01*
X0090243Y0266104D02*
X0118340Y0266104D01*
X0117927Y0267103D02*
X0090657Y0267103D01*
X0090918Y0268101D02*
X0117666Y0268101D01*
X0117666Y0269100D02*
X0090918Y0269100D01*
X0090828Y0270098D02*
X0117756Y0270098D01*
X0118169Y0271097D02*
X0090414Y0271097D01*
X0089866Y0272095D02*
X0118717Y0272095D01*
X0119716Y0273094D02*
X0088868Y0273094D01*
X0088246Y0274092D02*
X0120338Y0274092D01*
X0119145Y0275091D02*
X0089438Y0275091D01*
X0090237Y0276089D02*
X0118347Y0276089D01*
X0117933Y0277088D02*
X0090650Y0277088D01*
X0090918Y0278086D02*
X0117666Y0278086D01*
X0117666Y0279085D02*
X0090918Y0279085D01*
X0090834Y0280083D02*
X0117749Y0280083D01*
X0118163Y0281082D02*
X0090420Y0281082D01*
X0089881Y0282080D02*
X0118702Y0282080D01*
X0119701Y0283079D02*
X0088883Y0283079D01*
X0088210Y0284077D02*
X0120374Y0284077D01*
X0119160Y0285076D02*
X0089423Y0285076D01*
X0090231Y0286074D02*
X0118353Y0286074D01*
X0117939Y0287073D02*
X0090644Y0287073D01*
X0090918Y0288071D02*
X0117666Y0288071D01*
X0117666Y0289070D02*
X0090918Y0289070D01*
X0090840Y0290068D02*
X0117743Y0290068D01*
X0118157Y0291067D02*
X0090427Y0291067D01*
X0089896Y0292065D02*
X0118687Y0292065D01*
X0119686Y0293064D02*
X0088898Y0293064D01*
X0088174Y0294062D02*
X0120410Y0294062D01*
X0119175Y0295061D02*
X0089408Y0295061D01*
X0090224Y0296059D02*
X0118359Y0296059D01*
X0117945Y0297058D02*
X0090638Y0297058D01*
X0090918Y0298056D02*
X0117666Y0298056D01*
X0117666Y0299055D02*
X0090918Y0299055D01*
X0090846Y0300053D02*
X0117737Y0300053D01*
X0118151Y0301052D02*
X0090433Y0301052D01*
X0089911Y0302050D02*
X0118672Y0302050D01*
X0119671Y0303049D02*
X0088913Y0303049D01*
X0088138Y0304047D02*
X0120446Y0304047D01*
X0119190Y0305046D02*
X0089393Y0305046D01*
X0090218Y0306044D02*
X0118365Y0306044D01*
X0117952Y0307043D02*
X0090632Y0307043D01*
X0090918Y0308041D02*
X0117666Y0308041D01*
X0117666Y0309040D02*
X0090918Y0309040D01*
X0090853Y0310039D02*
X0117731Y0310039D01*
X0118145Y0311037D02*
X0090439Y0311037D01*
X0089926Y0312036D02*
X0118657Y0312036D01*
X0119656Y0313034D02*
X0088928Y0313034D01*
X0088102Y0314033D02*
X0120482Y0314033D01*
X0119205Y0315031D02*
X0089378Y0315031D01*
X0090212Y0316030D02*
X0118371Y0316030D01*
X0117958Y0317028D02*
X0090626Y0317028D01*
X0090918Y0318027D02*
X0117666Y0318027D01*
X0117666Y0319025D02*
X0090918Y0319025D01*
X0090859Y0320024D02*
X0117725Y0320024D01*
X0118138Y0321022D02*
X0090445Y0321022D01*
X0089941Y0322021D02*
X0118643Y0322021D01*
X0119641Y0323019D02*
X0088942Y0323019D01*
X0087049Y0324018D02*
X0121534Y0324018D01*
X0116428Y0329010D02*
X0187709Y0329010D01*
X0188054Y0328711D02*
X0188049Y0322900D01*
X0188049Y0322899D01*
X0188049Y0322427D01*
X0188048Y0321947D01*
X0188049Y0321946D01*
X0188049Y0321945D01*
X0188231Y0321505D01*
X0188413Y0321064D01*
X0188414Y0321064D01*
X0188414Y0321063D01*
X0188750Y0320727D01*
X0189087Y0320389D01*
X0189088Y0320388D01*
X0192704Y0316772D01*
X0193586Y0316407D01*
X0196089Y0316407D01*
X0196362Y0315748D01*
X0197881Y0314229D01*
X0198900Y0313807D01*
X0197881Y0313385D01*
X0196362Y0311866D01*
X0195540Y0309881D01*
X0195540Y0307733D01*
X0196362Y0305748D01*
X0197881Y0304229D01*
X0198900Y0303807D01*
X0197881Y0303385D01*
X0196362Y0301866D01*
X0196016Y0301032D01*
X0195886Y0301032D01*
X0195601Y0300914D01*
X0195302Y0300837D01*
X0195164Y0300733D01*
X0195004Y0300667D01*
X0194786Y0300448D01*
X0186495Y0294210D01*
X0186335Y0294144D01*
X0186117Y0293926D01*
X0185870Y0293740D01*
X0185782Y0293591D01*
X0185660Y0293469D01*
X0185542Y0293184D01*
X0185385Y0292918D01*
X0185361Y0292747D01*
X0185295Y0292587D01*
X0185295Y0292278D01*
X0185251Y0291973D01*
X0185295Y0291805D01*
X0185298Y0253447D01*
X0182916Y0250994D01*
X0172951Y0250977D01*
X0038473Y0250977D01*
X0036164Y0253285D01*
X0036164Y0293787D01*
X0037933Y0295556D01*
X0039259Y0294229D01*
X0041111Y0293462D01*
X0040475Y0293255D01*
X0039802Y0292912D01*
X0039191Y0292468D01*
X0038656Y0291934D01*
X0038212Y0291323D01*
X0037869Y0290650D01*
X0037636Y0289931D01*
X0037537Y0289307D01*
X0048418Y0289307D01*
X0048418Y0288307D01*
X0037537Y0288307D01*
X0037636Y0287683D01*
X0037869Y0286965D01*
X0038212Y0286291D01*
X0038656Y0285680D01*
X0039191Y0285146D01*
X0039802Y0284702D01*
X0040475Y0284359D01*
X0041111Y0284152D01*
X0039259Y0283385D01*
X0037740Y0281866D01*
X0036918Y0279881D01*
X0036918Y0277733D01*
X0037740Y0275748D01*
X0039259Y0274229D01*
X0041111Y0273462D01*
X0040475Y0273255D01*
X0039802Y0272912D01*
X0039191Y0272468D01*
X0038656Y0271934D01*
X0038212Y0271323D01*
X0037869Y0270650D01*
X0037636Y0269931D01*
X0037537Y0269307D01*
X0048418Y0269307D01*
X0048418Y0268307D01*
X0049418Y0268307D01*
X0049418Y0269307D01*
X0053698Y0269307D01*
X0053600Y0269931D01*
X0053366Y0270650D01*
X0053023Y0271323D01*
X0052579Y0271934D01*
X0052045Y0272468D01*
X0051433Y0272912D01*
X0050760Y0273255D01*
X0050124Y0273462D01*
X0051977Y0274229D01*
X0053496Y0275748D01*
X0054318Y0277733D01*
X0054318Y0279881D01*
X0053496Y0281866D01*
X0051977Y0283385D01*
X0050124Y0284152D01*
X0050760Y0284359D01*
X0051433Y0284702D01*
X0052045Y0285146D01*
X0052579Y0285680D01*
X0053023Y0286291D01*
X0053366Y0286965D01*
X0053600Y0287683D01*
X0053698Y0288307D01*
X0049418Y0288307D01*
X0049418Y0289307D01*
X0053698Y0289307D01*
X0053600Y0289931D01*
X0053366Y0290650D01*
X0053023Y0291323D01*
X0052579Y0291934D01*
X0052045Y0292468D01*
X0051433Y0292912D01*
X0050760Y0293255D01*
X0050124Y0293462D01*
X0051977Y0294229D01*
X0053496Y0295748D01*
X0054318Y0297733D01*
X0054318Y0299881D01*
X0053496Y0301866D01*
X0051977Y0303385D01*
X0050958Y0303807D01*
X0051977Y0304229D01*
X0053496Y0305748D01*
X0054318Y0307733D01*
X0054318Y0309881D01*
X0053496Y0311866D01*
X0051977Y0313385D01*
X0050958Y0313807D01*
X0051977Y0314229D01*
X0053496Y0315748D01*
X0054318Y0317733D01*
X0054318Y0319881D01*
X0053496Y0321866D01*
X0051977Y0323385D01*
X0051318Y0323658D01*
X0051318Y0334122D01*
X0055839Y0338644D01*
X0067117Y0338644D01*
X0067125Y0338640D01*
X0111501Y0338640D01*
X0110053Y0338040D01*
X0108521Y0336508D01*
X0107692Y0334507D01*
X0107692Y0332340D01*
X0108521Y0330338D01*
X0110053Y0328806D01*
X0112055Y0327977D01*
X0114222Y0327977D01*
X0116223Y0328806D01*
X0117755Y0330338D01*
X0118034Y0331010D01*
X0185404Y0331010D01*
X0188054Y0328711D01*
X0188053Y0328012D02*
X0114306Y0328012D01*
X0111970Y0328012D02*
X0051318Y0328012D01*
X0051318Y0329010D02*
X0109849Y0329010D01*
X0108850Y0330009D02*
X0051318Y0330009D01*
X0051318Y0331007D02*
X0108244Y0331007D01*
X0107830Y0332006D02*
X0051318Y0332006D01*
X0051318Y0333004D02*
X0107692Y0333004D01*
X0107692Y0334003D02*
X0051318Y0334003D01*
X0052197Y0335001D02*
X0107897Y0335001D01*
X0108310Y0336000D02*
X0053195Y0336000D01*
X0054194Y0336998D02*
X0109011Y0336998D01*
X0110009Y0337997D02*
X0055192Y0337997D01*
X0051399Y0340992D02*
X0005534Y0340992D01*
X0005535Y0339994D02*
X0050401Y0339994D01*
X0049402Y0338995D02*
X0005536Y0338995D01*
X0005536Y0337997D02*
X0048404Y0337997D01*
X0047405Y0336998D02*
X0005537Y0336998D01*
X0005537Y0336000D02*
X0029342Y0336000D01*
X0028228Y0335001D02*
X0005538Y0335001D01*
X0005538Y0334003D02*
X0027454Y0334003D01*
X0027041Y0333004D02*
X0005539Y0333004D01*
X0005539Y0332006D02*
X0026784Y0332006D01*
X0026784Y0331007D02*
X0005540Y0331007D01*
X0005541Y0330009D02*
X0026870Y0330009D01*
X0026546Y0329010D02*
X0005541Y0329010D01*
X0005542Y0328012D02*
X0025547Y0328012D01*
X0024548Y0327013D02*
X0005542Y0327013D01*
X0005543Y0326015D02*
X0023550Y0326015D01*
X0022551Y0325016D02*
X0005543Y0325016D01*
X0005544Y0324018D02*
X0021553Y0324018D01*
X0020554Y0323019D02*
X0005545Y0323019D01*
X0005545Y0322021D02*
X0019556Y0322021D01*
X0018557Y0321022D02*
X0005546Y0321022D01*
X0005546Y0320024D02*
X0017559Y0320024D01*
X0016560Y0319025D02*
X0005547Y0319025D01*
X0005547Y0318027D02*
X0015562Y0318027D01*
X0014563Y0317028D02*
X0005548Y0317028D01*
X0005549Y0316030D02*
X0013565Y0316030D01*
X0012566Y0315031D02*
X0005549Y0315031D01*
X0005550Y0314033D02*
X0011602Y0314033D01*
X0011261Y0313034D02*
X0005550Y0313034D01*
X0005551Y0312036D02*
X0011263Y0312036D01*
X0011264Y0311037D02*
X0005551Y0311037D01*
X0005552Y0310039D02*
X0011266Y0310039D01*
X0011267Y0309040D02*
X0005553Y0309040D01*
X0005553Y0308041D02*
X0011269Y0308041D01*
X0011270Y0307043D02*
X0005554Y0307043D01*
X0005554Y0306044D02*
X0011272Y0306044D01*
X0011273Y0305046D02*
X0005555Y0305046D01*
X0005555Y0304047D02*
X0011275Y0304047D01*
X0011277Y0303049D02*
X0005556Y0303049D01*
X0005557Y0302050D02*
X0011278Y0302050D01*
X0011280Y0301052D02*
X0005557Y0301052D01*
X0005558Y0300053D02*
X0011281Y0300053D01*
X0011283Y0299055D02*
X0005558Y0299055D01*
X0005559Y0298056D02*
X0011284Y0298056D01*
X0011286Y0297058D02*
X0005559Y0297058D01*
X0005560Y0296059D02*
X0011287Y0296059D01*
X0011289Y0295061D02*
X0005561Y0295061D01*
X0005561Y0294062D02*
X0011291Y0294062D01*
X0011292Y0293064D02*
X0005562Y0293064D01*
X0005562Y0292065D02*
X0011294Y0292065D01*
X0011295Y0291067D02*
X0005563Y0291067D01*
X0005563Y0290068D02*
X0011297Y0290068D01*
X0011298Y0289070D02*
X0005564Y0289070D01*
X0005564Y0288071D02*
X0011300Y0288071D01*
X0011301Y0287073D02*
X0005565Y0287073D01*
X0005566Y0286074D02*
X0011303Y0286074D01*
X0011305Y0285076D02*
X0005566Y0285076D01*
X0005567Y0284077D02*
X0011306Y0284077D01*
X0011308Y0283079D02*
X0005567Y0283079D01*
X0005568Y0282080D02*
X0011309Y0282080D01*
X0011311Y0281082D02*
X0005568Y0281082D01*
X0005569Y0280083D02*
X0011312Y0280083D01*
X0011314Y0279085D02*
X0005570Y0279085D01*
X0005570Y0278086D02*
X0011315Y0278086D01*
X0011317Y0277088D02*
X0005571Y0277088D01*
X0005571Y0276089D02*
X0011318Y0276089D01*
X0011320Y0275091D02*
X0005572Y0275091D01*
X0005572Y0274092D02*
X0011322Y0274092D01*
X0011323Y0273094D02*
X0005573Y0273094D01*
X0005574Y0272095D02*
X0011325Y0272095D01*
X0011326Y0271097D02*
X0005574Y0271097D01*
X0005575Y0270098D02*
X0011328Y0270098D01*
X0011329Y0269100D02*
X0005575Y0269100D01*
X0005576Y0268101D02*
X0011331Y0268101D01*
X0011332Y0267103D02*
X0005576Y0267103D01*
X0005577Y0266104D02*
X0011334Y0266104D01*
X0011336Y0265105D02*
X0005578Y0265105D01*
X0005578Y0264107D02*
X0011337Y0264107D01*
X0011339Y0263108D02*
X0005579Y0263108D01*
X0005579Y0262110D02*
X0011340Y0262110D01*
X0011342Y0261111D02*
X0005580Y0261111D01*
X0005580Y0260113D02*
X0011343Y0260113D01*
X0011345Y0259114D02*
X0005581Y0259114D01*
X0005582Y0258116D02*
X0011346Y0258116D01*
X0011348Y0257117D02*
X0005582Y0257117D01*
X0005583Y0256119D02*
X0011350Y0256119D01*
X0011351Y0255120D02*
X0005583Y0255120D01*
X0005584Y0254122D02*
X0011353Y0254122D01*
X0011354Y0253123D02*
X0005584Y0253123D01*
X0005585Y0252125D02*
X0011356Y0252125D01*
X0011357Y0251126D02*
X0005586Y0251126D01*
X0005586Y0250128D02*
X0011359Y0250128D01*
X0011360Y0249129D02*
X0005587Y0249129D01*
X0005587Y0248131D02*
X0011362Y0248131D01*
X0011363Y0247132D02*
X0005588Y0247132D01*
X0005588Y0246134D02*
X0011365Y0246134D01*
X0011367Y0245135D02*
X0005589Y0245135D01*
X0005589Y0244137D02*
X0011368Y0244137D01*
X0011370Y0243138D02*
X0005590Y0243138D01*
X0005591Y0242140D02*
X0011371Y0242140D01*
X0011373Y0241141D02*
X0005591Y0241141D01*
X0005592Y0240143D02*
X0011374Y0240143D01*
X0011376Y0239144D02*
X0005592Y0239144D01*
X0005593Y0238146D02*
X0011403Y0238146D01*
X0011915Y0237147D02*
X0005593Y0237147D01*
X0005594Y0236149D02*
X0013027Y0236149D01*
X0014138Y0235150D02*
X0005595Y0235150D01*
X0005595Y0234152D02*
X0015403Y0234152D01*
X0016624Y0233153D02*
X0005596Y0233153D01*
X0005596Y0232155D02*
X0026409Y0232155D01*
X0025207Y0231156D02*
X0005597Y0231156D01*
X0005597Y0230158D02*
X0024209Y0230158D01*
X0023210Y0229159D02*
X0005598Y0229159D01*
X0005599Y0228161D02*
X0022212Y0228161D01*
X0021213Y0227162D02*
X0005599Y0227162D01*
X0005600Y0226164D02*
X0020612Y0226164D01*
X0019559Y0225165D02*
X0005600Y0225165D01*
X0005601Y0224167D02*
X0018560Y0224167D01*
X0018000Y0223168D02*
X0005601Y0223168D01*
X0005602Y0222170D02*
X0017586Y0222170D01*
X0017480Y0221171D02*
X0005603Y0221171D01*
X0005603Y0220172D02*
X0017480Y0220172D01*
X0017718Y0219174D02*
X0005604Y0219174D01*
X0005604Y0218175D02*
X0018131Y0218175D01*
X0018878Y0217177D02*
X0005605Y0217177D01*
X0005605Y0216178D02*
X0019925Y0216178D01*
X0025928Y0216178D02*
X0038920Y0216178D01*
X0039560Y0217177D02*
X0026976Y0217177D01*
X0027722Y0218175D02*
X0038778Y0218175D01*
X0037780Y0219174D02*
X0028136Y0219174D01*
X0028373Y0220172D02*
X0037110Y0220172D01*
X0036697Y0221171D02*
X0028373Y0221171D01*
X0028267Y0222170D02*
X0036514Y0222170D01*
X0036514Y0223168D02*
X0027854Y0223168D01*
X0027293Y0224167D02*
X0036674Y0224167D01*
X0037087Y0225165D02*
X0026295Y0225165D01*
X0027003Y0226164D02*
X0037725Y0226164D01*
X0038723Y0227162D02*
X0028001Y0227162D01*
X0030222Y0240143D02*
X0016174Y0240143D01*
X0016173Y0241141D02*
X0029224Y0241141D01*
X0028225Y0242140D02*
X0016171Y0242140D01*
X0016170Y0243138D02*
X0027227Y0243138D01*
X0026247Y0244137D02*
X0016168Y0244137D01*
X0016167Y0245135D02*
X0025895Y0245135D01*
X0025895Y0246134D02*
X0016165Y0246134D01*
X0016163Y0247132D02*
X0025895Y0247132D01*
X0025895Y0248131D02*
X0016162Y0248131D01*
X0016160Y0249129D02*
X0025895Y0249129D01*
X0025895Y0250128D02*
X0016159Y0250128D01*
X0016157Y0251126D02*
X0025895Y0251126D01*
X0025895Y0252125D02*
X0016156Y0252125D01*
X0016154Y0253123D02*
X0025895Y0253123D01*
X0025895Y0254122D02*
X0016153Y0254122D01*
X0016151Y0255120D02*
X0025895Y0255120D01*
X0025895Y0256119D02*
X0016150Y0256119D01*
X0016148Y0257117D02*
X0025895Y0257117D01*
X0025895Y0258116D02*
X0016146Y0258116D01*
X0016145Y0259114D02*
X0025895Y0259114D01*
X0025895Y0260113D02*
X0016143Y0260113D01*
X0016142Y0261111D02*
X0025895Y0261111D01*
X0025895Y0262110D02*
X0016140Y0262110D01*
X0016139Y0263108D02*
X0025895Y0263108D01*
X0025895Y0264107D02*
X0016137Y0264107D01*
X0016136Y0265105D02*
X0025895Y0265105D01*
X0025895Y0266104D02*
X0016134Y0266104D01*
X0016132Y0267103D02*
X0025895Y0267103D01*
X0025895Y0268101D02*
X0016131Y0268101D01*
X0016129Y0269100D02*
X0025895Y0269100D01*
X0025895Y0270098D02*
X0016128Y0270098D01*
X0016126Y0271097D02*
X0025895Y0271097D01*
X0025895Y0272095D02*
X0016125Y0272095D01*
X0016123Y0273094D02*
X0025895Y0273094D01*
X0025895Y0274092D02*
X0016122Y0274092D01*
X0016120Y0275091D02*
X0025895Y0275091D01*
X0025895Y0276089D02*
X0016118Y0276089D01*
X0016117Y0277088D02*
X0025895Y0277088D01*
X0025895Y0278086D02*
X0016115Y0278086D01*
X0016114Y0279085D02*
X0025895Y0279085D01*
X0025895Y0280083D02*
X0016112Y0280083D01*
X0016111Y0281082D02*
X0025895Y0281082D01*
X0025895Y0282080D02*
X0016109Y0282080D01*
X0016108Y0283079D02*
X0025895Y0283079D01*
X0025895Y0284077D02*
X0016106Y0284077D01*
X0016105Y0285076D02*
X0025895Y0285076D01*
X0025895Y0286074D02*
X0016103Y0286074D01*
X0016101Y0287073D02*
X0025895Y0287073D01*
X0025895Y0288071D02*
X0016100Y0288071D01*
X0016098Y0289070D02*
X0025895Y0289070D01*
X0025895Y0290068D02*
X0016097Y0290068D01*
X0016095Y0291067D02*
X0025895Y0291067D01*
X0025895Y0292065D02*
X0016094Y0292065D01*
X0016092Y0293064D02*
X0025895Y0293064D01*
X0025895Y0294062D02*
X0016091Y0294062D01*
X0016089Y0295061D02*
X0025895Y0295061D01*
X0025895Y0296059D02*
X0016087Y0296059D01*
X0016086Y0297058D02*
X0025895Y0297058D01*
X0025895Y0298056D02*
X0016084Y0298056D01*
X0016083Y0299055D02*
X0025895Y0299055D01*
X0025895Y0300053D02*
X0016081Y0300053D01*
X0016080Y0301052D02*
X0025895Y0301052D01*
X0025895Y0302050D02*
X0016078Y0302050D01*
X0016077Y0303049D02*
X0025895Y0303049D01*
X0025895Y0304047D02*
X0016075Y0304047D01*
X0016073Y0305046D02*
X0025895Y0305046D01*
X0025895Y0306044D02*
X0016072Y0306044D01*
X0016070Y0307043D02*
X0025895Y0307043D01*
X0025895Y0308041D02*
X0016069Y0308041D01*
X0016067Y0309040D02*
X0025895Y0309040D01*
X0025895Y0310039D02*
X0016066Y0310039D01*
X0016064Y0311037D02*
X0025895Y0311037D01*
X0025895Y0312036D02*
X0016359Y0312036D01*
X0017358Y0313034D02*
X0025895Y0313034D01*
X0025895Y0314033D02*
X0018356Y0314033D01*
X0019355Y0315031D02*
X0025895Y0315031D01*
X0026141Y0316030D02*
X0020353Y0316030D01*
X0021352Y0317028D02*
X0026970Y0317028D01*
X0027968Y0318027D02*
X0022350Y0318027D01*
X0023349Y0319025D02*
X0028967Y0319025D01*
X0029965Y0320024D02*
X0024347Y0320024D01*
X0025346Y0321022D02*
X0031219Y0321022D01*
X0028341Y0324018D02*
X0040786Y0324018D01*
X0038893Y0323019D02*
X0027343Y0323019D01*
X0026344Y0322021D02*
X0037895Y0322021D01*
X0037623Y0316030D02*
X0032760Y0316030D01*
X0031761Y0315031D02*
X0038457Y0315031D01*
X0039734Y0314033D02*
X0030763Y0314033D01*
X0030695Y0313034D02*
X0038908Y0313034D01*
X0037909Y0312036D02*
X0030695Y0312036D01*
X0030695Y0311037D02*
X0037396Y0311037D01*
X0036983Y0310039D02*
X0030695Y0310039D01*
X0030695Y0309040D02*
X0036918Y0309040D01*
X0036918Y0308041D02*
X0030695Y0308041D01*
X0030695Y0307043D02*
X0037204Y0307043D01*
X0037617Y0306044D02*
X0030695Y0306044D01*
X0030695Y0305046D02*
X0038442Y0305046D01*
X0039698Y0304047D02*
X0030695Y0304047D01*
X0030695Y0303049D02*
X0038923Y0303049D01*
X0037924Y0302050D02*
X0030695Y0302050D01*
X0030695Y0301052D02*
X0036938Y0301052D01*
X0035642Y0300053D02*
X0030695Y0300053D01*
X0030695Y0299055D02*
X0034644Y0299055D01*
X0033645Y0298056D02*
X0030695Y0298056D01*
X0030695Y0297058D02*
X0032647Y0297058D01*
X0031696Y0296059D02*
X0030695Y0296059D01*
X0030695Y0295061D02*
X0031364Y0295061D01*
X0031364Y0294062D02*
X0030695Y0294062D01*
X0030695Y0293064D02*
X0031364Y0293064D01*
X0031364Y0292065D02*
X0030695Y0292065D01*
X0030695Y0291067D02*
X0031364Y0291067D01*
X0031364Y0290068D02*
X0030695Y0290068D01*
X0030695Y0289070D02*
X0031364Y0289070D01*
X0031364Y0288071D02*
X0030695Y0288071D01*
X0030695Y0287073D02*
X0031364Y0287073D01*
X0031364Y0286074D02*
X0030695Y0286074D01*
X0030695Y0285076D02*
X0031364Y0285076D01*
X0031364Y0284077D02*
X0030695Y0284077D01*
X0030695Y0283079D02*
X0031364Y0283079D01*
X0031364Y0282080D02*
X0030695Y0282080D01*
X0030695Y0281082D02*
X0031364Y0281082D01*
X0031364Y0280083D02*
X0030695Y0280083D01*
X0030695Y0279085D02*
X0031364Y0279085D01*
X0031364Y0278086D02*
X0030695Y0278086D01*
X0030695Y0277088D02*
X0031364Y0277088D01*
X0031364Y0276089D02*
X0030695Y0276089D01*
X0030695Y0275091D02*
X0031364Y0275091D01*
X0031364Y0274092D02*
X0030695Y0274092D01*
X0030695Y0273094D02*
X0031364Y0273094D01*
X0031364Y0272095D02*
X0030695Y0272095D01*
X0030695Y0271097D02*
X0031364Y0271097D01*
X0031364Y0270098D02*
X0030695Y0270098D01*
X0030695Y0269100D02*
X0031364Y0269100D01*
X0031364Y0268101D02*
X0030695Y0268101D01*
X0030695Y0267103D02*
X0031364Y0267103D01*
X0031364Y0266104D02*
X0030695Y0266104D01*
X0030695Y0265105D02*
X0031364Y0265105D01*
X0031364Y0264107D02*
X0030695Y0264107D01*
X0030695Y0263108D02*
X0031364Y0263108D01*
X0031364Y0262110D02*
X0030695Y0262110D01*
X0030695Y0261111D02*
X0031364Y0261111D01*
X0031364Y0260113D02*
X0030695Y0260113D01*
X0030695Y0259114D02*
X0031364Y0259114D01*
X0031364Y0258116D02*
X0030695Y0258116D01*
X0030695Y0257117D02*
X0031364Y0257117D01*
X0031364Y0256119D02*
X0030695Y0256119D01*
X0030695Y0255120D02*
X0031364Y0255120D01*
X0031364Y0254122D02*
X0030695Y0254122D01*
X0030695Y0253123D02*
X0031364Y0253123D01*
X0031364Y0252125D02*
X0030695Y0252125D01*
X0030695Y0251126D02*
X0031649Y0251126D01*
X0032533Y0250128D02*
X0030695Y0250128D01*
X0030695Y0249129D02*
X0033532Y0249129D01*
X0034530Y0248131D02*
X0030695Y0248131D01*
X0030695Y0247132D02*
X0035529Y0247132D01*
X0038323Y0251126D02*
X0183044Y0251126D01*
X0184014Y0252125D02*
X0037324Y0252125D01*
X0036326Y0253123D02*
X0184984Y0253123D01*
X0185298Y0254122D02*
X0169066Y0254122D01*
X0170216Y0255120D02*
X0185298Y0255120D01*
X0185298Y0256119D02*
X0170997Y0256119D01*
X0171411Y0257117D02*
X0185298Y0257117D01*
X0185297Y0258116D02*
X0171666Y0258116D01*
X0171666Y0259114D02*
X0185297Y0259114D01*
X0185297Y0260113D02*
X0171570Y0260113D01*
X0171156Y0261111D02*
X0185297Y0261111D01*
X0185297Y0262110D02*
X0170600Y0262110D01*
X0169601Y0263108D02*
X0185297Y0263108D01*
X0185297Y0264107D02*
X0169030Y0264107D01*
X0170201Y0265105D02*
X0185297Y0265105D01*
X0185297Y0266104D02*
X0170991Y0266104D01*
X0171405Y0267103D02*
X0185297Y0267103D01*
X0185297Y0268101D02*
X0171666Y0268101D01*
X0171666Y0269100D02*
X0185297Y0269100D01*
X0185296Y0270098D02*
X0171576Y0270098D01*
X0171162Y0271097D02*
X0185296Y0271097D01*
X0185296Y0272095D02*
X0170615Y0272095D01*
X0169616Y0273094D02*
X0185296Y0273094D01*
X0185296Y0274092D02*
X0168994Y0274092D01*
X0170186Y0275091D02*
X0185296Y0275091D01*
X0185296Y0276089D02*
X0170985Y0276089D01*
X0171398Y0277088D02*
X0185296Y0277088D01*
X0185296Y0278086D02*
X0171666Y0278086D01*
X0171666Y0279085D02*
X0185296Y0279085D01*
X0185296Y0280083D02*
X0171582Y0280083D01*
X0171169Y0281082D02*
X0185295Y0281082D01*
X0185295Y0282080D02*
X0170629Y0282080D01*
X0169631Y0283079D02*
X0185295Y0283079D01*
X0185295Y0284077D02*
X0168958Y0284077D01*
X0170171Y0285076D02*
X0185295Y0285076D01*
X0185295Y0286074D02*
X0170979Y0286074D01*
X0171392Y0287073D02*
X0185295Y0287073D01*
X0185295Y0288071D02*
X0171666Y0288071D01*
X0171666Y0289070D02*
X0185295Y0289070D01*
X0185295Y0290068D02*
X0171588Y0290068D01*
X0171175Y0291067D02*
X0185295Y0291067D01*
X0185264Y0292065D02*
X0170644Y0292065D01*
X0169646Y0293064D02*
X0185471Y0293064D01*
X0186253Y0294062D02*
X0168922Y0294062D01*
X0170156Y0295061D02*
X0187625Y0295061D01*
X0188953Y0296059D02*
X0170973Y0296059D01*
X0171386Y0297058D02*
X0190280Y0297058D01*
X0191607Y0298056D02*
X0171666Y0298056D01*
X0171666Y0299055D02*
X0192934Y0299055D01*
X0194261Y0300053D02*
X0171594Y0300053D01*
X0171181Y0301052D02*
X0196025Y0301052D01*
X0196546Y0302050D02*
X0170659Y0302050D01*
X0169661Y0303049D02*
X0197545Y0303049D01*
X0198320Y0304047D02*
X0168886Y0304047D01*
X0170141Y0305046D02*
X0197064Y0305046D01*
X0196239Y0306044D02*
X0170966Y0306044D01*
X0171380Y0307043D02*
X0195826Y0307043D01*
X0195540Y0308041D02*
X0171666Y0308041D01*
X0171666Y0309040D02*
X0195540Y0309040D01*
X0195605Y0310039D02*
X0171601Y0310039D01*
X0171187Y0311037D02*
X0196019Y0311037D01*
X0196531Y0312036D02*
X0170674Y0312036D01*
X0169676Y0313034D02*
X0197530Y0313034D01*
X0198356Y0314033D02*
X0168850Y0314033D01*
X0170126Y0315031D02*
X0197079Y0315031D01*
X0196245Y0316030D02*
X0170960Y0316030D01*
X0171374Y0317028D02*
X0192448Y0317028D01*
X0191450Y0318027D02*
X0171666Y0318027D01*
X0171666Y0319025D02*
X0190451Y0319025D01*
X0189453Y0320024D02*
X0171607Y0320024D01*
X0171193Y0321022D02*
X0188454Y0321022D01*
X0188048Y0322021D02*
X0170689Y0322021D01*
X0169690Y0323019D02*
X0188049Y0323019D01*
X0188050Y0324018D02*
X0167797Y0324018D01*
X0158134Y0324018D02*
X0131197Y0324018D01*
X0133090Y0323019D02*
X0156241Y0323019D01*
X0155243Y0322021D02*
X0134089Y0322021D01*
X0134593Y0321022D02*
X0154738Y0321022D01*
X0154325Y0320024D02*
X0135007Y0320024D01*
X0135066Y0319025D02*
X0154266Y0319025D01*
X0154266Y0318027D02*
X0135066Y0318027D01*
X0134774Y0317028D02*
X0154558Y0317028D01*
X0154971Y0316030D02*
X0134360Y0316030D01*
X0133526Y0315031D02*
X0155805Y0315031D01*
X0157082Y0314033D02*
X0132250Y0314033D01*
X0133076Y0313034D02*
X0156256Y0313034D01*
X0155257Y0312036D02*
X0134074Y0312036D01*
X0134587Y0311037D02*
X0154745Y0311037D01*
X0154331Y0310039D02*
X0135001Y0310039D01*
X0135066Y0309040D02*
X0154266Y0309040D01*
X0154266Y0308041D02*
X0135066Y0308041D01*
X0134780Y0307043D02*
X0154552Y0307043D01*
X0154965Y0306044D02*
X0134366Y0306044D01*
X0133541Y0305046D02*
X0155790Y0305046D01*
X0157046Y0304047D02*
X0132286Y0304047D01*
X0133061Y0303049D02*
X0156271Y0303049D01*
X0155272Y0302050D02*
X0134059Y0302050D01*
X0134581Y0301052D02*
X0154751Y0301052D01*
X0154337Y0300053D02*
X0134994Y0300053D01*
X0135066Y0299055D02*
X0154266Y0299055D01*
X0154266Y0298056D02*
X0135066Y0298056D01*
X0134786Y0297058D02*
X0154545Y0297058D01*
X0154959Y0296059D02*
X0134373Y0296059D01*
X0133556Y0295061D02*
X0155775Y0295061D01*
X0157010Y0294062D02*
X0132322Y0294062D01*
X0133046Y0293064D02*
X0156286Y0293064D01*
X0155287Y0292065D02*
X0134044Y0292065D01*
X0134575Y0291067D02*
X0154757Y0291067D01*
X0154343Y0290068D02*
X0134988Y0290068D01*
X0135066Y0289070D02*
X0154266Y0289070D01*
X0154266Y0288071D02*
X0135066Y0288071D01*
X0134792Y0287073D02*
X0154539Y0287073D01*
X0154953Y0286074D02*
X0134379Y0286074D01*
X0133571Y0285076D02*
X0155760Y0285076D01*
X0156974Y0284077D02*
X0132358Y0284077D01*
X0133031Y0283079D02*
X0156301Y0283079D01*
X0155302Y0282080D02*
X0134029Y0282080D01*
X0134569Y0281082D02*
X0154763Y0281082D01*
X0154349Y0280083D02*
X0134982Y0280083D01*
X0135066Y0279085D02*
X0154266Y0279085D01*
X0154266Y0278086D02*
X0135066Y0278086D01*
X0134798Y0277088D02*
X0154533Y0277088D01*
X0154947Y0276089D02*
X0134385Y0276089D01*
X0133586Y0275091D02*
X0155745Y0275091D01*
X0156938Y0274092D02*
X0132394Y0274092D01*
X0133016Y0273094D02*
X0156316Y0273094D01*
X0155317Y0272095D02*
X0134015Y0272095D01*
X0134562Y0271097D02*
X0154769Y0271097D01*
X0154356Y0270098D02*
X0134976Y0270098D01*
X0135066Y0269100D02*
X0154266Y0269100D01*
X0154266Y0268101D02*
X0135066Y0268101D01*
X0134805Y0267103D02*
X0154527Y0267103D01*
X0154940Y0266104D02*
X0134391Y0266104D01*
X0133601Y0265105D02*
X0155731Y0265105D01*
X0156902Y0264107D02*
X0132430Y0264107D01*
X0131797Y0263108D02*
X0156330Y0263108D01*
X0155332Y0262110D02*
X0133151Y0262110D01*
X0133879Y0261111D02*
X0154775Y0261111D01*
X0154362Y0260113D02*
X0134288Y0260113D01*
X0134416Y0258116D02*
X0154266Y0258116D01*
X0154266Y0259114D02*
X0130166Y0259114D01*
X0134164Y0257117D02*
X0154521Y0257117D01*
X0154934Y0256119D02*
X0133646Y0256119D01*
X0132758Y0255120D02*
X0155716Y0255120D01*
X0175406Y0246181D02*
X0175406Y0241683D01*
X0176064Y0243273D01*
X0177596Y0244805D01*
X0179598Y0245635D01*
X0181765Y0245635D01*
X0183767Y0244805D01*
X0185299Y0243273D01*
X0185583Y0242588D01*
X0187070Y0242588D01*
X0197608Y0251879D01*
X0197893Y0252163D01*
X0197965Y0252193D01*
X0198023Y0252245D01*
X0198403Y0252375D01*
X0198775Y0252529D01*
X0198853Y0252529D01*
X0198926Y0252554D01*
X0199327Y0252529D01*
X0211053Y0252529D01*
X0214186Y0255662D01*
X0214186Y0265830D01*
X0214551Y0266712D01*
X0217990Y0270151D01*
X0218665Y0270826D01*
X0219547Y0271191D01*
X0232682Y0271191D01*
X0232962Y0271866D01*
X0234481Y0273385D01*
X0236333Y0274152D01*
X0235697Y0274359D01*
X0235024Y0274702D01*
X0234413Y0275146D01*
X0233879Y0275680D01*
X0233434Y0276291D01*
X0233091Y0276965D01*
X0232858Y0277683D01*
X0232759Y0278307D01*
X0237040Y0278307D01*
X0237040Y0279307D01*
X0232759Y0279307D01*
X0232858Y0279931D01*
X0233091Y0280650D01*
X0233434Y0281323D01*
X0233879Y0281934D01*
X0234413Y0282468D01*
X0235024Y0282912D01*
X0235697Y0283255D01*
X0236333Y0283462D01*
X0234481Y0284229D01*
X0232962Y0285748D01*
X0232745Y0286273D01*
X0223763Y0286273D01*
X0222881Y0286638D01*
X0222206Y0287313D01*
X0213112Y0296407D01*
X0212391Y0296407D01*
X0212118Y0295748D01*
X0210599Y0294229D01*
X0208746Y0293462D01*
X0209382Y0293255D01*
X0210056Y0292912D01*
X0210667Y0292468D01*
X0211201Y0291934D01*
X0211645Y0291323D01*
X0211988Y0290650D01*
X0212222Y0289931D01*
X0212320Y0289307D01*
X0208040Y0289307D01*
X0208040Y0288307D01*
X0212320Y0288307D01*
X0212222Y0287683D01*
X0211988Y0286965D01*
X0211645Y0286291D01*
X0211201Y0285680D01*
X0210667Y0285146D01*
X0210056Y0284702D01*
X0209382Y0284359D01*
X0208746Y0284152D01*
X0210599Y0283385D01*
X0212118Y0281866D01*
X0212940Y0279881D01*
X0212940Y0277733D01*
X0212118Y0275748D01*
X0210599Y0274229D01*
X0208746Y0273462D01*
X0209382Y0273255D01*
X0210056Y0272912D01*
X0210667Y0272468D01*
X0211201Y0271934D01*
X0211645Y0271323D01*
X0211988Y0270650D01*
X0212222Y0269931D01*
X0212320Y0269307D01*
X0208040Y0269307D01*
X0208040Y0268307D01*
X0212320Y0268307D01*
X0212222Y0267683D01*
X0211988Y0266965D01*
X0211645Y0266291D01*
X0211201Y0265680D01*
X0210667Y0265146D01*
X0210056Y0264702D01*
X0209382Y0264359D01*
X0208664Y0264125D01*
X0208040Y0264026D01*
X0208040Y0268307D01*
X0207040Y0268307D01*
X0207040Y0264007D01*
X0200562Y0264007D01*
X0199816Y0264125D01*
X0199097Y0264359D01*
X0198424Y0264702D01*
X0197813Y0265146D01*
X0197279Y0265680D01*
X0196834Y0266291D01*
X0196491Y0266965D01*
X0196258Y0267683D01*
X0196159Y0268307D01*
X0207040Y0268307D01*
X0207040Y0269307D01*
X0196159Y0269307D01*
X0196258Y0269931D01*
X0196491Y0270650D01*
X0196834Y0271323D01*
X0197279Y0271934D01*
X0197813Y0272468D01*
X0198424Y0272912D01*
X0199097Y0273255D01*
X0199733Y0273462D01*
X0197881Y0274229D01*
X0196362Y0275748D01*
X0195540Y0277733D01*
X0195540Y0279881D01*
X0196362Y0281866D01*
X0197881Y0283385D01*
X0199733Y0284152D01*
X0199097Y0284359D01*
X0198424Y0284702D01*
X0197813Y0285146D01*
X0197279Y0285680D01*
X0196834Y0286291D01*
X0196491Y0286965D01*
X0196258Y0287683D01*
X0196159Y0288307D01*
X0207040Y0288307D01*
X0207040Y0289307D01*
X0196159Y0289307D01*
X0196258Y0289931D01*
X0196491Y0290650D01*
X0196834Y0291323D01*
X0197279Y0291934D01*
X0197813Y0292468D01*
X0198424Y0292912D01*
X0199097Y0293255D01*
X0199733Y0293462D01*
X0197881Y0294229D01*
X0196431Y0295679D01*
X0190095Y0290912D01*
X0190098Y0252491D01*
X0190105Y0252030D01*
X0190098Y0252014D01*
X0190098Y0251996D01*
X0189922Y0251571D01*
X0189752Y0251143D01*
X0189740Y0251130D01*
X0189733Y0251114D01*
X0189407Y0250788D01*
X0185975Y0247255D01*
X0185969Y0247240D01*
X0185643Y0246913D01*
X0185321Y0246581D01*
X0185306Y0246575D01*
X0185295Y0246564D01*
X0184869Y0246386D01*
X0184444Y0246203D01*
X0184429Y0246203D01*
X0184414Y0246197D01*
X0183952Y0246196D01*
X0183490Y0246189D01*
X0183475Y0246195D01*
X0175406Y0246181D01*
X0175406Y0246134D02*
X0191091Y0246134D01*
X0189959Y0245135D02*
X0182971Y0245135D01*
X0184435Y0244137D02*
X0188826Y0244137D01*
X0187693Y0243138D02*
X0185355Y0243138D01*
X0185862Y0247132D02*
X0192224Y0247132D01*
X0193357Y0248131D02*
X0186826Y0248131D01*
X0187796Y0249129D02*
X0194489Y0249129D01*
X0195622Y0250128D02*
X0188766Y0250128D01*
X0189738Y0251126D02*
X0196754Y0251126D01*
X0197854Y0252125D02*
X0190103Y0252125D01*
X0190098Y0253123D02*
X0211647Y0253123D01*
X0212646Y0254122D02*
X0208642Y0254122D01*
X0208664Y0254125D02*
X0209382Y0254359D01*
X0210056Y0254702D01*
X0210667Y0255146D01*
X0211201Y0255680D01*
X0211645Y0256291D01*
X0211988Y0256965D01*
X0212222Y0257683D01*
X0212320Y0258307D01*
X0208040Y0258307D01*
X0208040Y0259307D01*
X0212320Y0259307D01*
X0212222Y0259931D01*
X0211988Y0260650D01*
X0211645Y0261323D01*
X0211201Y0261934D01*
X0210667Y0262468D01*
X0210056Y0262912D01*
X0209382Y0263255D01*
X0208664Y0263489D01*
X0208040Y0263588D01*
X0208040Y0259307D01*
X0207040Y0259307D01*
X0207040Y0263607D01*
X0200562Y0263607D01*
X0199816Y0263489D01*
X0199097Y0263255D01*
X0198424Y0262912D01*
X0197813Y0262468D01*
X0197279Y0261934D01*
X0196834Y0261323D01*
X0196491Y0260650D01*
X0196258Y0259931D01*
X0196159Y0259307D01*
X0207040Y0259307D01*
X0207040Y0258307D01*
X0208040Y0258307D01*
X0208040Y0254026D01*
X0208664Y0254125D01*
X0208040Y0254122D02*
X0207040Y0254122D01*
X0207040Y0254007D02*
X0207040Y0258307D01*
X0196159Y0258307D01*
X0196258Y0257683D01*
X0196491Y0256965D01*
X0196834Y0256291D01*
X0197279Y0255680D01*
X0197813Y0255146D01*
X0198424Y0254702D01*
X0199097Y0254359D01*
X0199816Y0254125D01*
X0200562Y0254007D01*
X0207040Y0254007D01*
X0207040Y0255120D02*
X0208040Y0255120D01*
X0208040Y0256119D02*
X0207040Y0256119D01*
X0207040Y0257117D02*
X0208040Y0257117D01*
X0208040Y0258116D02*
X0207040Y0258116D01*
X0207040Y0259114D02*
X0190097Y0259114D01*
X0190097Y0258116D02*
X0196189Y0258116D01*
X0196442Y0257117D02*
X0190098Y0257117D01*
X0190098Y0256119D02*
X0196960Y0256119D01*
X0197848Y0255120D02*
X0190098Y0255120D01*
X0190098Y0254122D02*
X0199837Y0254122D01*
X0196317Y0260113D02*
X0190097Y0260113D01*
X0190097Y0261111D02*
X0196727Y0261111D01*
X0197454Y0262110D02*
X0190097Y0262110D01*
X0190097Y0263108D02*
X0198809Y0263108D01*
X0199931Y0264107D02*
X0190097Y0264107D01*
X0190097Y0265105D02*
X0197868Y0265105D01*
X0196971Y0266104D02*
X0190097Y0266104D01*
X0190097Y0267103D02*
X0196447Y0267103D01*
X0196192Y0268101D02*
X0190097Y0268101D01*
X0190096Y0269100D02*
X0207040Y0269100D01*
X0207040Y0268101D02*
X0208040Y0268101D01*
X0208040Y0267103D02*
X0207040Y0267103D01*
X0207040Y0266104D02*
X0208040Y0266104D01*
X0208040Y0265105D02*
X0207040Y0265105D01*
X0207040Y0264107D02*
X0208040Y0264107D01*
X0208548Y0264107D02*
X0214186Y0264107D01*
X0214186Y0265105D02*
X0210611Y0265105D01*
X0211509Y0266104D02*
X0214299Y0266104D01*
X0214942Y0267103D02*
X0212033Y0267103D01*
X0212288Y0268101D02*
X0215940Y0268101D01*
X0216939Y0269100D02*
X0208040Y0269100D01*
X0211760Y0271097D02*
X0219319Y0271097D01*
X0217937Y0270098D02*
X0212167Y0270098D01*
X0211040Y0272095D02*
X0233191Y0272095D01*
X0234190Y0273094D02*
X0209700Y0273094D01*
X0210268Y0274092D02*
X0236188Y0274092D01*
X0234489Y0275091D02*
X0211460Y0275091D01*
X0212259Y0276089D02*
X0233581Y0276089D01*
X0233051Y0277088D02*
X0212672Y0277088D01*
X0212940Y0278086D02*
X0232794Y0278086D01*
X0232907Y0280083D02*
X0212856Y0280083D01*
X0212940Y0279085D02*
X0237040Y0279085D01*
X0238040Y0279085D02*
X0250085Y0279085D01*
X0250085Y0280083D02*
X0248772Y0280083D01*
X0248368Y0281082D02*
X0250085Y0281082D01*
X0250085Y0282080D02*
X0247655Y0282080D01*
X0246329Y0283079D02*
X0250085Y0283079D01*
X0250085Y0284077D02*
X0246832Y0284077D01*
X0248045Y0285076D02*
X0250085Y0285076D01*
X0250085Y0286074D02*
X0248853Y0286074D01*
X0249266Y0287073D02*
X0250085Y0287073D01*
X0250085Y0288071D02*
X0249540Y0288071D01*
X0249540Y0289070D02*
X0250085Y0289070D01*
X0250085Y0290068D02*
X0249462Y0290068D01*
X0249049Y0291067D02*
X0250085Y0291067D01*
X0250085Y0292065D02*
X0248518Y0292065D01*
X0247520Y0293064D02*
X0250085Y0293064D01*
X0250085Y0294062D02*
X0246796Y0294062D01*
X0248030Y0295061D02*
X0250085Y0295061D01*
X0250085Y0296059D02*
X0248847Y0296059D01*
X0249260Y0297058D02*
X0250085Y0297058D01*
X0250085Y0298056D02*
X0249540Y0298056D01*
X0249540Y0299055D02*
X0250085Y0299055D01*
X0250085Y0300053D02*
X0249468Y0300053D01*
X0249055Y0301052D02*
X0250085Y0301052D01*
X0250085Y0302050D02*
X0248533Y0302050D01*
X0247535Y0303049D02*
X0250085Y0303049D01*
X0250085Y0304047D02*
X0246760Y0304047D01*
X0248015Y0305046D02*
X0250085Y0305046D01*
X0250085Y0306044D02*
X0248840Y0306044D01*
X0249254Y0307043D02*
X0250085Y0307043D01*
X0250085Y0308041D02*
X0249540Y0308041D01*
X0249540Y0309040D02*
X0250085Y0309040D01*
X0250085Y0310039D02*
X0249475Y0310039D01*
X0249061Y0311037D02*
X0250085Y0311037D01*
X0250085Y0312036D02*
X0248548Y0312036D01*
X0247550Y0313034D02*
X0250085Y0313034D01*
X0250085Y0314033D02*
X0246724Y0314033D01*
X0248001Y0315031D02*
X0250085Y0315031D01*
X0250085Y0316030D02*
X0248834Y0316030D01*
X0249248Y0317028D02*
X0250085Y0317028D01*
X0250085Y0318027D02*
X0249540Y0318027D01*
X0249540Y0319025D02*
X0250085Y0319025D01*
X0250085Y0320024D02*
X0249481Y0320024D01*
X0249067Y0321022D02*
X0250085Y0321022D01*
X0250085Y0322021D02*
X0248563Y0322021D01*
X0247564Y0323019D02*
X0250085Y0323019D01*
X0264441Y0336000D02*
X0117966Y0336000D01*
X0117266Y0336998D02*
X0264441Y0336998D01*
X0264440Y0337997D02*
X0116267Y0337997D01*
X0118033Y0331007D02*
X0185408Y0331007D01*
X0186558Y0330009D02*
X0117426Y0330009D01*
X0133385Y0345985D02*
X0157843Y0345985D01*
X0156845Y0346983D02*
X0134384Y0346983D01*
X0135314Y0347982D02*
X0155914Y0347982D01*
X0155914Y0348980D02*
X0135314Y0348980D01*
X0135314Y0349979D02*
X0155914Y0349979D01*
X0155914Y0350977D02*
X0135314Y0350977D01*
X0135146Y0351976D02*
X0156083Y0351976D01*
X0157081Y0352974D02*
X0134147Y0352974D01*
X0149759Y0377937D02*
X0150359Y0377937D01*
X0150359Y0378936D02*
X0149759Y0378936D01*
X0149759Y0379934D02*
X0150359Y0379934D01*
X0150359Y0380933D02*
X0149759Y0380933D01*
X0188053Y0327013D02*
X0051318Y0327013D01*
X0051318Y0326015D02*
X0188052Y0326015D01*
X0188051Y0325016D02*
X0051318Y0325016D01*
X0051318Y0324018D02*
X0077386Y0324018D01*
X0075493Y0323019D02*
X0052342Y0323019D01*
X0053341Y0322021D02*
X0074495Y0322021D01*
X0073990Y0321022D02*
X0053845Y0321022D01*
X0054259Y0320024D02*
X0073577Y0320024D01*
X0073518Y0319025D02*
X0054318Y0319025D01*
X0054318Y0318027D02*
X0073518Y0318027D01*
X0073810Y0317028D02*
X0054026Y0317028D01*
X0053612Y0316030D02*
X0074223Y0316030D01*
X0075057Y0315031D02*
X0052778Y0315031D01*
X0051502Y0314033D02*
X0076334Y0314033D01*
X0075508Y0313034D02*
X0052328Y0313034D01*
X0053326Y0312036D02*
X0074509Y0312036D01*
X0073996Y0311037D02*
X0053839Y0311037D01*
X0054253Y0310039D02*
X0073583Y0310039D01*
X0073518Y0309040D02*
X0054318Y0309040D01*
X0054318Y0308041D02*
X0073518Y0308041D01*
X0073804Y0307043D02*
X0054032Y0307043D01*
X0053618Y0306044D02*
X0074217Y0306044D01*
X0075042Y0305046D02*
X0052793Y0305046D01*
X0051538Y0304047D02*
X0076298Y0304047D01*
X0075523Y0303049D02*
X0052313Y0303049D01*
X0053311Y0302050D02*
X0074524Y0302050D01*
X0074003Y0301052D02*
X0053833Y0301052D01*
X0054246Y0300053D02*
X0073589Y0300053D01*
X0073518Y0299055D02*
X0054318Y0299055D01*
X0054318Y0298056D02*
X0073518Y0298056D01*
X0073797Y0297058D02*
X0054038Y0297058D01*
X0053624Y0296059D02*
X0074211Y0296059D01*
X0075027Y0295061D02*
X0052808Y0295061D01*
X0051574Y0294062D02*
X0076262Y0294062D01*
X0075538Y0293064D02*
X0051136Y0293064D01*
X0052448Y0292065D02*
X0074539Y0292065D01*
X0074009Y0291067D02*
X0053154Y0291067D01*
X0053555Y0290068D02*
X0073595Y0290068D01*
X0073518Y0289070D02*
X0049418Y0289070D01*
X0048418Y0289070D02*
X0036164Y0289070D01*
X0036164Y0290068D02*
X0037681Y0290068D01*
X0038082Y0291067D02*
X0036164Y0291067D01*
X0036164Y0292065D02*
X0038788Y0292065D01*
X0040099Y0293064D02*
X0036164Y0293064D01*
X0036439Y0294062D02*
X0039662Y0294062D01*
X0038427Y0295061D02*
X0037438Y0295061D01*
X0037574Y0288071D02*
X0036164Y0288071D01*
X0036164Y0287073D02*
X0037834Y0287073D01*
X0038370Y0286074D02*
X0036164Y0286074D01*
X0036164Y0285076D02*
X0039287Y0285076D01*
X0040930Y0284077D02*
X0036164Y0284077D01*
X0036164Y0283079D02*
X0038953Y0283079D01*
X0037954Y0282080D02*
X0036164Y0282080D01*
X0036164Y0281082D02*
X0037415Y0281082D01*
X0037001Y0280083D02*
X0036164Y0280083D01*
X0036164Y0279085D02*
X0036918Y0279085D01*
X0036918Y0278086D02*
X0036164Y0278086D01*
X0036164Y0277088D02*
X0037185Y0277088D01*
X0037599Y0276089D02*
X0036164Y0276089D01*
X0036164Y0275091D02*
X0038397Y0275091D01*
X0039590Y0274092D02*
X0036164Y0274092D01*
X0036164Y0273094D02*
X0040158Y0273094D01*
X0038818Y0272095D02*
X0036164Y0272095D01*
X0036164Y0271097D02*
X0038097Y0271097D01*
X0037690Y0270098D02*
X0036164Y0270098D01*
X0036164Y0269100D02*
X0048418Y0269100D01*
X0048418Y0268307D02*
X0037537Y0268307D01*
X0037636Y0267683D01*
X0037869Y0266965D01*
X0038212Y0266291D01*
X0038656Y0265680D01*
X0039191Y0265146D01*
X0039802Y0264702D01*
X0040475Y0264359D01*
X0041194Y0264125D01*
X0041940Y0264007D01*
X0048418Y0264007D01*
X0048418Y0268307D01*
X0048418Y0268101D02*
X0049418Y0268101D01*
X0049418Y0268307D02*
X0049418Y0264026D01*
X0050042Y0264125D01*
X0050760Y0264359D01*
X0051433Y0264702D01*
X0052045Y0265146D01*
X0052579Y0265680D01*
X0053023Y0266291D01*
X0053366Y0266965D01*
X0053600Y0267683D01*
X0053698Y0268307D01*
X0049418Y0268307D01*
X0049418Y0269100D02*
X0073518Y0269100D01*
X0073518Y0268101D02*
X0053666Y0268101D01*
X0053411Y0267103D02*
X0073779Y0267103D01*
X0074192Y0266104D02*
X0052887Y0266104D01*
X0051989Y0265105D02*
X0074983Y0265105D01*
X0076154Y0264107D02*
X0049926Y0264107D01*
X0049418Y0264107D02*
X0048418Y0264107D01*
X0048418Y0263607D02*
X0041940Y0263607D01*
X0041194Y0263489D01*
X0040475Y0263255D01*
X0039802Y0262912D01*
X0039191Y0262468D01*
X0038656Y0261934D01*
X0038212Y0261323D01*
X0037869Y0260650D01*
X0037636Y0259931D01*
X0037537Y0259307D01*
X0048418Y0259307D01*
X0048418Y0263607D01*
X0048418Y0263108D02*
X0049418Y0263108D01*
X0049418Y0263588D02*
X0049418Y0259307D01*
X0053698Y0259307D01*
X0053600Y0259931D01*
X0053366Y0260650D01*
X0053023Y0261323D01*
X0052579Y0261934D01*
X0052045Y0262468D01*
X0051433Y0262912D01*
X0050760Y0263255D01*
X0050042Y0263489D01*
X0049418Y0263588D01*
X0049418Y0262110D02*
X0048418Y0262110D01*
X0048418Y0261111D02*
X0049418Y0261111D01*
X0049418Y0260113D02*
X0048418Y0260113D01*
X0048418Y0259307D02*
X0049418Y0259307D01*
X0049418Y0258307D01*
X0053698Y0258307D01*
X0053600Y0257683D01*
X0053366Y0256965D01*
X0053023Y0256291D01*
X0052579Y0255680D01*
X0052045Y0255146D01*
X0051433Y0254702D01*
X0050760Y0254359D01*
X0050042Y0254125D01*
X0049418Y0254026D01*
X0049418Y0258307D01*
X0048418Y0258307D01*
X0048418Y0254007D01*
X0041940Y0254007D01*
X0041194Y0254125D01*
X0040475Y0254359D01*
X0039802Y0254702D01*
X0039191Y0255146D01*
X0038656Y0255680D01*
X0038212Y0256291D01*
X0037869Y0256965D01*
X0037636Y0257683D01*
X0037537Y0258307D01*
X0048418Y0258307D01*
X0048418Y0259307D01*
X0048418Y0259114D02*
X0036164Y0259114D01*
X0036164Y0258116D02*
X0037567Y0258116D01*
X0037820Y0257117D02*
X0036164Y0257117D01*
X0036164Y0256119D02*
X0038338Y0256119D01*
X0039226Y0255120D02*
X0036164Y0255120D01*
X0036164Y0254122D02*
X0041215Y0254122D01*
X0038105Y0261111D02*
X0036164Y0261111D01*
X0036164Y0260113D02*
X0037695Y0260113D01*
X0038832Y0262110D02*
X0036164Y0262110D01*
X0036164Y0263108D02*
X0040187Y0263108D01*
X0041309Y0264107D02*
X0036164Y0264107D01*
X0036164Y0265105D02*
X0039246Y0265105D01*
X0038348Y0266104D02*
X0036164Y0266104D01*
X0036164Y0267103D02*
X0037825Y0267103D01*
X0037570Y0268101D02*
X0036164Y0268101D01*
X0048418Y0267103D02*
X0049418Y0267103D01*
X0049418Y0266104D02*
X0048418Y0266104D01*
X0048418Y0265105D02*
X0049418Y0265105D01*
X0051049Y0263108D02*
X0075582Y0263108D01*
X0074584Y0262110D02*
X0052403Y0262110D01*
X0053131Y0261111D02*
X0074027Y0261111D01*
X0073614Y0260113D02*
X0053540Y0260113D01*
X0053668Y0258116D02*
X0073518Y0258116D01*
X0073518Y0259114D02*
X0049418Y0259114D01*
X0049418Y0258116D02*
X0048418Y0258116D01*
X0048418Y0257117D02*
X0049418Y0257117D01*
X0049418Y0256119D02*
X0048418Y0256119D01*
X0048418Y0255120D02*
X0049418Y0255120D01*
X0049418Y0254122D02*
X0048418Y0254122D01*
X0050020Y0254122D02*
X0076118Y0254122D01*
X0074968Y0255120D02*
X0052010Y0255120D01*
X0052898Y0256119D02*
X0074186Y0256119D01*
X0073773Y0257117D02*
X0053416Y0257117D01*
X0053545Y0270098D02*
X0073608Y0270098D01*
X0074021Y0271097D02*
X0053138Y0271097D01*
X0052418Y0272095D02*
X0074569Y0272095D01*
X0075567Y0273094D02*
X0051078Y0273094D01*
X0051646Y0274092D02*
X0076190Y0274092D01*
X0074997Y0275091D02*
X0052838Y0275091D01*
X0053637Y0276089D02*
X0074199Y0276089D01*
X0073785Y0277088D02*
X0054050Y0277088D01*
X0054318Y0278086D02*
X0073518Y0278086D01*
X0073518Y0279085D02*
X0054318Y0279085D01*
X0054234Y0280083D02*
X0073601Y0280083D01*
X0074015Y0281082D02*
X0053820Y0281082D01*
X0053281Y0282080D02*
X0074554Y0282080D01*
X0075553Y0283079D02*
X0052283Y0283079D01*
X0051948Y0285076D02*
X0075012Y0285076D01*
X0074205Y0286074D02*
X0052865Y0286074D01*
X0053401Y0287073D02*
X0073791Y0287073D01*
X0073518Y0288071D02*
X0053661Y0288071D01*
X0050305Y0284077D02*
X0076226Y0284077D01*
X0090918Y0258116D02*
X0118315Y0258116D01*
X0118568Y0257117D02*
X0090663Y0257117D01*
X0090249Y0256119D02*
X0119086Y0256119D01*
X0119974Y0255120D02*
X0089468Y0255120D01*
X0088318Y0254122D02*
X0121963Y0254122D01*
X0151024Y0227162D02*
X0066084Y0227162D01*
X0066089Y0226164D02*
X0151024Y0226164D01*
X0151024Y0225165D02*
X0066094Y0225165D01*
X0066100Y0224167D02*
X0151024Y0224167D01*
X0151024Y0213183D02*
X0069200Y0213183D01*
X0068911Y0212184D02*
X0151024Y0212184D01*
X0151024Y0211186D02*
X0068497Y0211186D01*
X0067676Y0210187D02*
X0151024Y0210187D01*
X0151024Y0209189D02*
X0066450Y0209189D01*
X0061058Y0209189D02*
X0051411Y0209189D01*
X0051411Y0210187D02*
X0059832Y0210187D01*
X0059011Y0211186D02*
X0051411Y0211186D01*
X0051411Y0212184D02*
X0058597Y0212184D01*
X0058308Y0213183D02*
X0051411Y0213183D01*
X0051411Y0214181D02*
X0058308Y0214181D01*
X0058361Y0215180D02*
X0051411Y0215180D01*
X0051411Y0216178D02*
X0058775Y0216178D01*
X0059261Y0217177D02*
X0051411Y0217177D01*
X0051411Y0218175D02*
X0060259Y0218175D01*
X0061326Y0219174D02*
X0051411Y0219174D01*
X0051411Y0220172D02*
X0061321Y0220172D01*
X0061316Y0221171D02*
X0051411Y0221171D01*
X0051411Y0222170D02*
X0061310Y0222170D01*
X0061305Y0223168D02*
X0051411Y0223168D01*
X0051411Y0224167D02*
X0061300Y0224167D01*
X0061294Y0225165D02*
X0051411Y0225165D01*
X0051411Y0226164D02*
X0061289Y0226164D01*
X0061284Y0227162D02*
X0051416Y0227162D01*
X0051355Y0228161D02*
X0061278Y0228161D01*
X0061273Y0229159D02*
X0050785Y0229159D01*
X0049760Y0230158D02*
X0061268Y0230158D01*
X0060517Y0231156D02*
X0048735Y0231156D01*
X0047482Y0232155D02*
X0059639Y0232155D01*
X0063397Y0235150D02*
X0068801Y0235150D01*
X0068519Y0236149D02*
X0062519Y0236149D01*
X0061345Y0237147D02*
X0068519Y0237147D01*
X0068580Y0238146D02*
X0018102Y0238146D01*
X0016876Y0239144D02*
X0068110Y0239144D01*
X0069214Y0234152D02*
X0064275Y0234152D01*
X0065153Y0233153D02*
X0070024Y0233153D01*
X0071224Y0232155D02*
X0065877Y0232155D01*
X0051411Y0208190D02*
X0151024Y0208190D01*
X0151024Y0207192D02*
X0051411Y0207192D01*
X0046611Y0207192D02*
X0036721Y0207192D01*
X0035723Y0206193D02*
X0046611Y0206193D01*
X0046611Y0205195D02*
X0034724Y0205195D01*
X0033726Y0204196D02*
X0046611Y0204196D01*
X0046611Y0203198D02*
X0032727Y0203198D01*
X0031729Y0202199D02*
X0046611Y0202199D01*
X0046611Y0201201D02*
X0030730Y0201201D01*
X0030225Y0200202D02*
X0039927Y0200202D01*
X0038517Y0199204D02*
X0030225Y0199204D01*
X0030225Y0198205D02*
X0037628Y0198205D01*
X0037215Y0197207D02*
X0030225Y0197207D01*
X0030225Y0196208D02*
X0036884Y0196208D01*
X0036884Y0195210D02*
X0030225Y0195210D01*
X0030225Y0194211D02*
X0036904Y0194211D01*
X0037317Y0193213D02*
X0030225Y0193213D01*
X0030225Y0192214D02*
X0037766Y0192214D01*
X0038765Y0191216D02*
X0030225Y0191216D01*
X0030225Y0190217D02*
X0039963Y0190217D01*
X0038532Y0189219D02*
X0030225Y0189219D01*
X0030225Y0188220D02*
X0037635Y0188220D01*
X0037221Y0187222D02*
X0030225Y0187222D01*
X0030225Y0186223D02*
X0036884Y0186223D01*
X0036884Y0185225D02*
X0030225Y0185225D01*
X0030225Y0184226D02*
X0036898Y0184226D01*
X0037311Y0183228D02*
X0030225Y0183228D01*
X0030225Y0182229D02*
X0037751Y0182229D01*
X0038750Y0181231D02*
X0030225Y0181231D01*
X0030225Y0180232D02*
X0039999Y0180232D01*
X0038547Y0179234D02*
X0030225Y0179234D01*
X0030225Y0178235D02*
X0037641Y0178235D01*
X0037227Y0177237D02*
X0030225Y0177237D01*
X0030225Y0176238D02*
X0036884Y0176238D01*
X0036884Y0175239D02*
X0030225Y0175239D01*
X0030225Y0174241D02*
X0036891Y0174241D01*
X0037305Y0173242D02*
X0030225Y0173242D01*
X0030225Y0172244D02*
X0037736Y0172244D01*
X0038735Y0171245D02*
X0030225Y0171245D01*
X0030225Y0170247D02*
X0040035Y0170247D01*
X0038562Y0169248D02*
X0030225Y0169248D01*
X0030225Y0168250D02*
X0037647Y0168250D01*
X0037233Y0167251D02*
X0030225Y0167251D01*
X0030225Y0166253D02*
X0036884Y0166253D01*
X0036884Y0165254D02*
X0030225Y0165254D01*
X0030225Y0164256D02*
X0036885Y0164256D01*
X0037299Y0163257D02*
X0030225Y0163257D01*
X0030225Y0162259D02*
X0037722Y0162259D01*
X0038720Y0161260D02*
X0030225Y0161260D01*
X0030225Y0160262D02*
X0040071Y0160262D01*
X0038577Y0159263D02*
X0030225Y0159263D01*
X0030225Y0158265D02*
X0037653Y0158265D01*
X0037240Y0157266D02*
X0030225Y0157266D01*
X0030225Y0156268D02*
X0036884Y0156268D01*
X0036884Y0155269D02*
X0030225Y0155269D01*
X0030225Y0154271D02*
X0036884Y0154271D01*
X0037293Y0153272D02*
X0030225Y0153272D01*
X0030225Y0152274D02*
X0037707Y0152274D01*
X0038705Y0151275D02*
X0030225Y0151275D01*
X0030225Y0150277D02*
X0040107Y0150277D01*
X0038592Y0149278D02*
X0030225Y0149278D01*
X0030225Y0148280D02*
X0037659Y0148280D01*
X0037246Y0147281D02*
X0030225Y0147281D01*
X0030225Y0146283D02*
X0036884Y0146283D01*
X0036884Y0145284D02*
X0030225Y0145284D01*
X0030225Y0144286D02*
X0036884Y0144286D01*
X0037286Y0143287D02*
X0030225Y0143287D01*
X0030225Y0142289D02*
X0037700Y0142289D01*
X0038690Y0141290D02*
X0030225Y0141290D01*
X0030225Y0140292D02*
X0040345Y0140292D01*
X0039568Y0139293D02*
X0030225Y0139293D01*
X0030225Y0138295D02*
X0038502Y0138295D01*
X0037897Y0137296D02*
X0030225Y0137296D01*
X0030225Y0136298D02*
X0037577Y0136298D01*
X0048384Y0133302D02*
X0049384Y0133302D01*
X0049384Y0132303D02*
X0048384Y0132303D01*
X0048384Y0131305D02*
X0049384Y0131305D01*
X0071930Y0131305D02*
X0075275Y0131305D01*
X0074294Y0132303D02*
X0071930Y0132303D01*
X0071930Y0133302D02*
X0073880Y0133302D01*
X0073484Y0134301D02*
X0071930Y0134301D01*
X0071930Y0135299D02*
X0073484Y0135299D01*
X0073484Y0136298D02*
X0071930Y0136298D01*
X0071930Y0137296D02*
X0073852Y0137296D01*
X0074265Y0138295D02*
X0071930Y0138295D01*
X0071930Y0139293D02*
X0075207Y0139293D01*
X0076743Y0140292D02*
X0071930Y0140292D01*
X0071930Y0141290D02*
X0075290Y0141290D01*
X0074300Y0142289D02*
X0071930Y0142289D01*
X0071930Y0143287D02*
X0073886Y0143287D01*
X0073484Y0144286D02*
X0071930Y0144286D01*
X0071930Y0145284D02*
X0073484Y0145284D01*
X0073484Y0146283D02*
X0071930Y0146283D01*
X0071930Y0147281D02*
X0073846Y0147281D01*
X0074259Y0148280D02*
X0071930Y0148280D01*
X0071930Y0149278D02*
X0075192Y0149278D01*
X0076484Y0150277D02*
X0071930Y0150277D01*
X0071930Y0151275D02*
X0075305Y0151275D01*
X0074307Y0152274D02*
X0071930Y0152274D01*
X0071930Y0153272D02*
X0073893Y0153272D01*
X0073484Y0154271D02*
X0071930Y0154271D01*
X0071930Y0155269D02*
X0073484Y0155269D01*
X0073484Y0156268D02*
X0071930Y0156268D01*
X0071930Y0157266D02*
X0073840Y0157266D01*
X0074253Y0158265D02*
X0071930Y0158265D01*
X0071930Y0159263D02*
X0075177Y0159263D01*
X0076671Y0160262D02*
X0071930Y0160262D01*
X0071930Y0161260D02*
X0075320Y0161260D01*
X0074322Y0162259D02*
X0071930Y0162259D01*
X0071930Y0163257D02*
X0073899Y0163257D01*
X0073485Y0164256D02*
X0071930Y0164256D01*
X0071930Y0165254D02*
X0073484Y0165254D01*
X0073484Y0166253D02*
X0071930Y0166253D01*
X0071930Y0167251D02*
X0073833Y0167251D01*
X0074247Y0168250D02*
X0071930Y0168250D01*
X0071930Y0169248D02*
X0075162Y0169248D01*
X0076635Y0170247D02*
X0071930Y0170247D01*
X0071930Y0171245D02*
X0075335Y0171245D01*
X0074336Y0172244D02*
X0073428Y0172244D01*
X0087732Y0170247D02*
X0120106Y0170247D01*
X0119912Y0171245D02*
X0089033Y0171245D01*
X0090031Y0172244D02*
X0118913Y0172244D01*
X0118292Y0173242D02*
X0090463Y0173242D01*
X0090876Y0174241D02*
X0117878Y0174241D01*
X0117737Y0175239D02*
X0090884Y0175239D01*
X0090884Y0176238D02*
X0117737Y0176238D01*
X0117946Y0177237D02*
X0090540Y0177237D01*
X0090127Y0178235D02*
X0118359Y0178235D01*
X0119076Y0179234D02*
X0089220Y0179234D01*
X0087768Y0180232D02*
X0120074Y0180232D01*
X0119927Y0181231D02*
X0089018Y0181231D01*
X0090016Y0182229D02*
X0118928Y0182229D01*
X0119091Y0169248D02*
X0089205Y0169248D01*
X0090121Y0168250D02*
X0118366Y0168250D01*
X0117952Y0167251D02*
X0090534Y0167251D01*
X0090884Y0166253D02*
X0117737Y0166253D01*
X0117737Y0165254D02*
X0090884Y0165254D01*
X0090882Y0164256D02*
X0117872Y0164256D01*
X0118286Y0163257D02*
X0090469Y0163257D01*
X0090046Y0162259D02*
X0118898Y0162259D01*
X0119897Y0161260D02*
X0089047Y0161260D01*
X0087696Y0160262D02*
X0120142Y0160262D01*
X0119106Y0159263D02*
X0089191Y0159263D01*
X0090114Y0158265D02*
X0118372Y0158265D01*
X0117958Y0157266D02*
X0090528Y0157266D01*
X0090884Y0156268D02*
X0117737Y0156268D01*
X0117737Y0155269D02*
X0090884Y0155269D01*
X0090884Y0154271D02*
X0117866Y0154271D01*
X0118280Y0153272D02*
X0090475Y0153272D01*
X0090061Y0152274D02*
X0118883Y0152274D01*
X0119882Y0151275D02*
X0089062Y0151275D01*
X0087660Y0150277D02*
X0120178Y0150277D01*
X0119121Y0149278D02*
X0089176Y0149278D01*
X0090108Y0148280D02*
X0118378Y0148280D01*
X0118869Y0142289D02*
X0090067Y0142289D01*
X0089077Y0141290D02*
X0119867Y0141290D01*
X0119984Y0139293D02*
X0089161Y0139293D01*
X0090102Y0138295D02*
X0119119Y0138295D01*
X0118622Y0137296D02*
X0090516Y0137296D01*
X0090884Y0136298D02*
X0118378Y0136298D01*
X0118530Y0134301D02*
X0090884Y0134301D01*
X0090884Y0135299D02*
X0129236Y0135299D01*
X0129237Y0134301D02*
X0130237Y0134301D01*
X0130237Y0135157D02*
X0130237Y0130877D01*
X0130861Y0130976D01*
X0131579Y0131209D01*
X0132252Y0131552D01*
X0132864Y0131996D01*
X0133398Y0132530D01*
X0133842Y0133142D01*
X0134185Y0133815D01*
X0134418Y0134533D01*
X0134517Y0135157D01*
X0130237Y0135157D01*
X0130237Y0135299D02*
X0152305Y0135299D01*
X0151355Y0136298D02*
X0134495Y0136298D01*
X0134251Y0137296D02*
X0151024Y0137296D01*
X0151024Y0138295D02*
X0133754Y0138295D01*
X0132889Y0139293D02*
X0151024Y0139293D01*
X0151024Y0140292D02*
X0131007Y0140292D01*
X0133006Y0141290D02*
X0151024Y0141290D01*
X0151024Y0142289D02*
X0134005Y0142289D01*
X0134600Y0143287D02*
X0151024Y0143287D01*
X0151024Y0144286D02*
X0135013Y0144286D01*
X0135137Y0145284D02*
X0151024Y0145284D01*
X0151024Y0146283D02*
X0135137Y0146283D01*
X0134909Y0147281D02*
X0151024Y0147281D01*
X0151024Y0148280D02*
X0134495Y0148280D01*
X0133752Y0149278D02*
X0151024Y0149278D01*
X0151024Y0150277D02*
X0146050Y0150277D01*
X0148004Y0151275D02*
X0151024Y0151275D01*
X0151024Y0152274D02*
X0149002Y0152274D01*
X0149540Y0153272D02*
X0151024Y0153272D01*
X0151024Y0154271D02*
X0149953Y0154271D01*
X0150042Y0155269D02*
X0151024Y0155269D01*
X0151024Y0156268D02*
X0150042Y0156268D01*
X0149788Y0157266D02*
X0151024Y0157266D01*
X0151024Y0158265D02*
X0149375Y0158265D01*
X0148605Y0159263D02*
X0151024Y0159263D01*
X0151024Y0160262D02*
X0147500Y0160262D01*
X0151024Y0161260D02*
X0132976Y0161260D01*
X0132731Y0160262D02*
X0141692Y0160262D01*
X0140587Y0159263D02*
X0133767Y0159263D01*
X0134501Y0158265D02*
X0139817Y0158265D01*
X0140189Y0152274D02*
X0133990Y0152274D01*
X0132991Y0151275D02*
X0141188Y0151275D01*
X0143142Y0150277D02*
X0132695Y0150277D01*
X0133975Y0162259D02*
X0151024Y0162259D01*
X0151024Y0163257D02*
X0134587Y0163257D01*
X0135001Y0164256D02*
X0151024Y0164256D01*
X0151024Y0165254D02*
X0135137Y0165254D01*
X0135137Y0166253D02*
X0151024Y0166253D01*
X0151024Y0167251D02*
X0134921Y0167251D01*
X0134508Y0168250D02*
X0151024Y0168250D01*
X0151024Y0169248D02*
X0133782Y0169248D01*
X0132767Y0170247D02*
X0151024Y0170247D01*
X0151024Y0171245D02*
X0132961Y0171245D01*
X0133960Y0172244D02*
X0151024Y0172244D01*
X0151024Y0173242D02*
X0134581Y0173242D01*
X0134995Y0174241D02*
X0151024Y0174241D01*
X0151024Y0175239D02*
X0135137Y0175239D01*
X0135137Y0176238D02*
X0151024Y0176238D01*
X0151024Y0177237D02*
X0134927Y0177237D01*
X0134514Y0178235D02*
X0151024Y0178235D01*
X0151024Y0179234D02*
X0133797Y0179234D01*
X0132799Y0180232D02*
X0151024Y0180232D01*
X0151024Y0181231D02*
X0132946Y0181231D01*
X0133945Y0182229D02*
X0151024Y0182229D01*
X0151024Y0183228D02*
X0134575Y0183228D01*
X0134989Y0184226D02*
X0151024Y0184226D01*
X0151024Y0185225D02*
X0135137Y0185225D01*
X0135137Y0186223D02*
X0151024Y0186223D01*
X0151024Y0187222D02*
X0134934Y0187222D01*
X0134520Y0188220D02*
X0151024Y0188220D01*
X0151024Y0189219D02*
X0133812Y0189219D01*
X0132814Y0190217D02*
X0151024Y0190217D01*
X0151024Y0191216D02*
X0132932Y0191216D01*
X0133930Y0192214D02*
X0151024Y0192214D01*
X0151024Y0193213D02*
X0134569Y0193213D01*
X0134982Y0194211D02*
X0151024Y0194211D01*
X0151024Y0195210D02*
X0135137Y0195210D01*
X0135137Y0196208D02*
X0151024Y0196208D01*
X0151024Y0197207D02*
X0134940Y0197207D01*
X0134526Y0198205D02*
X0151024Y0198205D01*
X0151024Y0199204D02*
X0133827Y0199204D01*
X0132828Y0200202D02*
X0151024Y0200202D01*
X0175406Y0200202D02*
X0197668Y0200202D01*
X0197754Y0200288D02*
X0196235Y0198769D01*
X0195413Y0196785D01*
X0195413Y0194636D01*
X0196235Y0192652D01*
X0197754Y0191133D01*
X0198773Y0190710D01*
X0197754Y0190288D01*
X0196235Y0188769D01*
X0195413Y0186785D01*
X0195413Y0184636D01*
X0196235Y0182652D01*
X0197754Y0181133D01*
X0198773Y0180710D01*
X0197754Y0180288D01*
X0196235Y0178769D01*
X0195413Y0176785D01*
X0195413Y0174636D01*
X0196235Y0172652D01*
X0197754Y0171133D01*
X0198773Y0170710D01*
X0197754Y0170288D01*
X0196235Y0168769D01*
X0195413Y0166785D01*
X0195413Y0164636D01*
X0196235Y0162652D01*
X0197754Y0161133D01*
X0198773Y0160710D01*
X0197754Y0160288D01*
X0196235Y0158769D01*
X0195413Y0156785D01*
X0195413Y0154636D01*
X0196235Y0152652D01*
X0197754Y0151133D01*
X0198773Y0150710D01*
X0197754Y0150288D01*
X0196235Y0148769D01*
X0195894Y0147945D01*
X0195410Y0147745D01*
X0191152Y0143487D01*
X0190477Y0142812D01*
X0190112Y0141930D01*
X0190112Y0119126D01*
X0189427Y0118842D01*
X0187895Y0117310D01*
X0187066Y0115308D01*
X0187066Y0113141D01*
X0187895Y0111140D01*
X0189427Y0109607D01*
X0191429Y0108778D01*
X0193595Y0108778D01*
X0195597Y0109607D01*
X0197129Y0111140D01*
X0197958Y0113141D01*
X0197958Y0115308D01*
X0197129Y0117310D01*
X0195597Y0118842D01*
X0194912Y0119126D01*
X0194912Y0140458D01*
X0196670Y0142217D01*
X0197754Y0141133D01*
X0199606Y0140365D01*
X0198970Y0140159D01*
X0198297Y0139816D01*
X0197686Y0139372D01*
X0197152Y0138837D01*
X0196708Y0138226D01*
X0196365Y0137553D01*
X0196131Y0136834D01*
X0196032Y0136210D01*
X0206913Y0136210D01*
X0206913Y0135210D01*
X0207913Y0135210D01*
X0207913Y0130930D01*
X0208537Y0131029D01*
X0209256Y0131262D01*
X0209929Y0131605D01*
X0210540Y0132049D01*
X0211074Y0132583D01*
X0211518Y0133195D01*
X0211861Y0133868D01*
X0212095Y0134586D01*
X0212194Y0135210D01*
X0207913Y0135210D01*
X0207913Y0136210D01*
X0212194Y0136210D01*
X0212095Y0136834D01*
X0211861Y0137553D01*
X0211518Y0138226D01*
X0211074Y0138837D01*
X0210540Y0139372D01*
X0209929Y0139816D01*
X0209256Y0140159D01*
X0208620Y0140365D01*
X0210472Y0141133D01*
X0211991Y0142652D01*
X0212813Y0144636D01*
X0212813Y0146785D01*
X0211991Y0148769D01*
X0210472Y0150288D01*
X0209453Y0150710D01*
X0210472Y0151133D01*
X0211991Y0152652D01*
X0212813Y0154636D01*
X0212813Y0156785D01*
X0211991Y0158769D01*
X0210472Y0160288D01*
X0209453Y0160710D01*
X0210472Y0161133D01*
X0211991Y0162652D01*
X0212272Y0163329D01*
X0213223Y0163329D01*
X0214105Y0163695D01*
X0214780Y0164370D01*
X0215697Y0165287D01*
X0216062Y0166169D01*
X0216062Y0205298D01*
X0218323Y0207559D01*
X0239279Y0207559D01*
X0239563Y0206873D01*
X0241095Y0205341D01*
X0243097Y0204512D01*
X0245264Y0204512D01*
X0247266Y0205341D01*
X0248798Y0206873D01*
X0249627Y0208875D01*
X0249627Y0211042D01*
X0248798Y0213044D01*
X0247266Y0214576D01*
X0245264Y0215405D01*
X0243097Y0215405D01*
X0241095Y0214576D01*
X0239563Y0213044D01*
X0239279Y0212358D01*
X0216851Y0212358D01*
X0215969Y0211993D01*
X0212303Y0208326D01*
X0211628Y0207651D01*
X0211262Y0206769D01*
X0211262Y0199498D01*
X0210472Y0200288D01*
X0208487Y0201110D01*
X0199739Y0201110D01*
X0197754Y0200288D01*
X0196670Y0199204D02*
X0175406Y0199204D01*
X0175406Y0198205D02*
X0196002Y0198205D01*
X0195588Y0197207D02*
X0175406Y0197207D01*
X0175406Y0196208D02*
X0195413Y0196208D01*
X0195413Y0195210D02*
X0175406Y0195210D01*
X0175406Y0194211D02*
X0195589Y0194211D01*
X0196003Y0193213D02*
X0175406Y0193213D01*
X0175406Y0192214D02*
X0196673Y0192214D01*
X0197671Y0191216D02*
X0175406Y0191216D01*
X0175406Y0190217D02*
X0197683Y0190217D01*
X0196685Y0189219D02*
X0175406Y0189219D01*
X0175406Y0188220D02*
X0196008Y0188220D01*
X0195594Y0187222D02*
X0175406Y0187222D01*
X0175406Y0186223D02*
X0195413Y0186223D01*
X0195413Y0185225D02*
X0175406Y0185225D01*
X0175406Y0184226D02*
X0195583Y0184226D01*
X0195997Y0183228D02*
X0175406Y0183228D01*
X0175406Y0182229D02*
X0196658Y0182229D01*
X0197656Y0181231D02*
X0175406Y0181231D01*
X0175406Y0180232D02*
X0197698Y0180232D01*
X0196699Y0179234D02*
X0175406Y0179234D01*
X0175406Y0178235D02*
X0196014Y0178235D01*
X0195600Y0177237D02*
X0175406Y0177237D01*
X0175406Y0176238D02*
X0195413Y0176238D01*
X0195413Y0175239D02*
X0175406Y0175239D01*
X0175406Y0174241D02*
X0195577Y0174241D01*
X0195990Y0173242D02*
X0175406Y0173242D01*
X0175406Y0172244D02*
X0196643Y0172244D01*
X0197641Y0171245D02*
X0175406Y0171245D01*
X0175406Y0170247D02*
X0197713Y0170247D01*
X0196714Y0169248D02*
X0175406Y0169248D01*
X0175406Y0168250D02*
X0196020Y0168250D01*
X0195606Y0167251D02*
X0175406Y0167251D01*
X0175406Y0166253D02*
X0195413Y0166253D01*
X0195413Y0165254D02*
X0175406Y0165254D01*
X0175406Y0164256D02*
X0195571Y0164256D01*
X0195984Y0163257D02*
X0175406Y0163257D01*
X0175406Y0162259D02*
X0196628Y0162259D01*
X0197626Y0161260D02*
X0175406Y0161260D01*
X0175406Y0160262D02*
X0197728Y0160262D01*
X0196729Y0159263D02*
X0175406Y0159263D01*
X0175406Y0158265D02*
X0196026Y0158265D01*
X0195613Y0157266D02*
X0175406Y0157266D01*
X0175406Y0156268D02*
X0195413Y0156268D01*
X0195413Y0155269D02*
X0175406Y0155269D01*
X0175406Y0154271D02*
X0195564Y0154271D01*
X0195978Y0153272D02*
X0175406Y0153272D01*
X0175406Y0152274D02*
X0196613Y0152274D01*
X0197612Y0151275D02*
X0175406Y0151275D01*
X0175406Y0150277D02*
X0197743Y0150277D01*
X0196744Y0149278D02*
X0175406Y0149278D01*
X0175406Y0148280D02*
X0196032Y0148280D01*
X0194946Y0147281D02*
X0175406Y0147281D01*
X0175406Y0146283D02*
X0193948Y0146283D01*
X0192949Y0145284D02*
X0175406Y0145284D01*
X0175406Y0144286D02*
X0191951Y0144286D01*
X0190952Y0143287D02*
X0175406Y0143287D01*
X0175406Y0142289D02*
X0190261Y0142289D01*
X0190112Y0141290D02*
X0175406Y0141290D01*
X0175406Y0140292D02*
X0190112Y0140292D01*
X0190112Y0139293D02*
X0175406Y0139293D01*
X0175406Y0138295D02*
X0190112Y0138295D01*
X0190112Y0137296D02*
X0175406Y0137296D01*
X0175406Y0136298D02*
X0190112Y0136298D01*
X0190112Y0135299D02*
X0175406Y0135299D01*
X0175406Y0134301D02*
X0190112Y0134301D01*
X0190112Y0133302D02*
X0175406Y0133302D01*
X0175406Y0132303D02*
X0190112Y0132303D01*
X0190112Y0131305D02*
X0175406Y0131305D01*
X0175406Y0130306D02*
X0190112Y0130306D01*
X0190112Y0129308D02*
X0175406Y0129308D01*
X0175406Y0128309D02*
X0190112Y0128309D01*
X0190112Y0127311D02*
X0175406Y0127311D01*
X0175406Y0126312D02*
X0190112Y0126312D01*
X0190112Y0125314D02*
X0175406Y0125314D01*
X0175406Y0124315D02*
X0190112Y0124315D01*
X0190112Y0123317D02*
X0175406Y0123317D01*
X0175406Y0122318D02*
X0190112Y0122318D01*
X0190112Y0121320D02*
X0175406Y0121320D01*
X0175406Y0120321D02*
X0190112Y0120321D01*
X0190112Y0119323D02*
X0175406Y0119323D01*
X0175406Y0118324D02*
X0188909Y0118324D01*
X0187911Y0117326D02*
X0175406Y0117326D01*
X0175406Y0116327D02*
X0187488Y0116327D01*
X0187074Y0115329D02*
X0175406Y0115329D01*
X0175406Y0114330D02*
X0187066Y0114330D01*
X0187066Y0113332D02*
X0175406Y0113332D01*
X0175406Y0112333D02*
X0187400Y0112333D01*
X0187814Y0111335D02*
X0175406Y0111335D01*
X0175406Y0110336D02*
X0188698Y0110336D01*
X0190078Y0109338D02*
X0175406Y0109338D01*
X0175406Y0108339D02*
X0224555Y0108339D01*
X0223557Y0109338D02*
X0194946Y0109338D01*
X0196326Y0110336D02*
X0222558Y0110336D01*
X0221560Y0111335D02*
X0197210Y0111335D01*
X0197624Y0112333D02*
X0220845Y0112333D01*
X0220681Y0113332D02*
X0197958Y0113332D01*
X0197958Y0114330D02*
X0220681Y0114330D01*
X0220681Y0115329D02*
X0197950Y0115329D01*
X0197536Y0116327D02*
X0220681Y0116327D01*
X0220681Y0117326D02*
X0197113Y0117326D01*
X0196115Y0118324D02*
X0220681Y0118324D01*
X0220681Y0119323D02*
X0194912Y0119323D01*
X0194912Y0120321D02*
X0220681Y0120321D01*
X0220681Y0121320D02*
X0194912Y0121320D01*
X0194912Y0122318D02*
X0220681Y0122318D01*
X0220681Y0123317D02*
X0194912Y0123317D01*
X0194912Y0124315D02*
X0220681Y0124315D01*
X0220681Y0125314D02*
X0194912Y0125314D01*
X0194912Y0126312D02*
X0220681Y0126312D01*
X0220681Y0127311D02*
X0194912Y0127311D01*
X0194912Y0128309D02*
X0220681Y0128309D01*
X0220681Y0129308D02*
X0194912Y0129308D01*
X0194912Y0130306D02*
X0220681Y0130306D01*
X0220681Y0131305D02*
X0209340Y0131305D01*
X0207913Y0131305D02*
X0206913Y0131305D01*
X0206913Y0130910D02*
X0206913Y0135210D01*
X0196032Y0135210D01*
X0196131Y0134586D01*
X0196365Y0133868D01*
X0196708Y0133195D01*
X0197152Y0132583D01*
X0197686Y0132049D01*
X0198297Y0131605D01*
X0198970Y0131262D01*
X0199689Y0131029D01*
X0200435Y0130910D01*
X0206913Y0130910D01*
X0206913Y0132303D02*
X0207913Y0132303D01*
X0207913Y0133302D02*
X0206913Y0133302D01*
X0206913Y0134301D02*
X0207913Y0134301D01*
X0207913Y0135299D02*
X0220681Y0135299D01*
X0220681Y0134301D02*
X0212002Y0134301D01*
X0211573Y0133302D02*
X0220681Y0133302D01*
X0220681Y0132303D02*
X0210794Y0132303D01*
X0212180Y0136298D02*
X0220681Y0136298D01*
X0220681Y0137296D02*
X0211945Y0137296D01*
X0211469Y0138295D02*
X0220681Y0138295D01*
X0220681Y0139293D02*
X0210619Y0139293D01*
X0210630Y0141290D02*
X0220681Y0141290D01*
X0220681Y0140292D02*
X0208847Y0140292D01*
X0211628Y0142289D02*
X0220681Y0142289D01*
X0220681Y0143287D02*
X0212254Y0143287D01*
X0212668Y0144286D02*
X0220681Y0144286D01*
X0220681Y0145284D02*
X0212813Y0145284D01*
X0212813Y0146283D02*
X0220681Y0146283D01*
X0220681Y0147281D02*
X0212607Y0147281D01*
X0212194Y0148280D02*
X0220681Y0148280D01*
X0220681Y0149278D02*
X0211482Y0149278D01*
X0210484Y0150277D02*
X0220681Y0150277D01*
X0220681Y0151275D02*
X0210615Y0151275D01*
X0211613Y0152274D02*
X0220681Y0152274D01*
X0220681Y0153272D02*
X0212248Y0153272D01*
X0212662Y0154271D02*
X0220681Y0154271D01*
X0220681Y0155269D02*
X0212813Y0155269D01*
X0212813Y0156268D02*
X0220681Y0156268D01*
X0220681Y0157266D02*
X0212614Y0157266D01*
X0212200Y0158265D02*
X0220681Y0158265D01*
X0220681Y0159263D02*
X0211497Y0159263D01*
X0210498Y0160262D02*
X0220681Y0160262D01*
X0220681Y0161260D02*
X0210600Y0161260D01*
X0211598Y0162259D02*
X0220681Y0162259D01*
X0220681Y0163257D02*
X0212242Y0163257D01*
X0214666Y0164256D02*
X0220681Y0164256D01*
X0220681Y0165254D02*
X0215665Y0165254D01*
X0216062Y0166253D02*
X0220681Y0166253D01*
X0220681Y0167251D02*
X0216062Y0167251D01*
X0216062Y0168250D02*
X0220681Y0168250D01*
X0220681Y0169248D02*
X0216062Y0169248D01*
X0216062Y0170247D02*
X0220681Y0170247D01*
X0220681Y0171245D02*
X0216062Y0171245D01*
X0216062Y0172244D02*
X0220681Y0172244D01*
X0220681Y0173242D02*
X0216062Y0173242D01*
X0216062Y0174241D02*
X0220681Y0174241D01*
X0220681Y0175239D02*
X0216062Y0175239D01*
X0216062Y0176238D02*
X0220681Y0176238D01*
X0220681Y0177237D02*
X0216062Y0177237D01*
X0216062Y0178235D02*
X0220681Y0178235D01*
X0220681Y0179234D02*
X0216062Y0179234D01*
X0216062Y0180232D02*
X0220681Y0180232D01*
X0220681Y0181231D02*
X0216062Y0181231D01*
X0216062Y0182229D02*
X0220681Y0182229D01*
X0220681Y0183228D02*
X0216062Y0183228D01*
X0216062Y0184226D02*
X0220681Y0184226D01*
X0220681Y0185225D02*
X0216062Y0185225D01*
X0216062Y0186223D02*
X0220681Y0186223D01*
X0220681Y0187222D02*
X0216062Y0187222D01*
X0216062Y0188220D02*
X0220681Y0188220D01*
X0220681Y0189219D02*
X0216062Y0189219D01*
X0216062Y0190217D02*
X0220681Y0190217D01*
X0220959Y0191216D02*
X0216062Y0191216D01*
X0216062Y0192214D02*
X0221834Y0192214D01*
X0222833Y0193213D02*
X0216062Y0193213D01*
X0216062Y0194211D02*
X0223831Y0194211D01*
X0224830Y0195210D02*
X0216062Y0195210D01*
X0216062Y0196208D02*
X0225828Y0196208D01*
X0226827Y0197207D02*
X0216062Y0197207D01*
X0216062Y0198205D02*
X0232602Y0198205D01*
X0233270Y0199204D02*
X0216062Y0199204D01*
X0216062Y0200202D02*
X0234268Y0200202D01*
X0232603Y0193213D02*
X0229621Y0193213D01*
X0228623Y0192214D02*
X0233273Y0192214D01*
X0234271Y0191216D02*
X0227624Y0191216D01*
X0226626Y0190217D02*
X0234283Y0190217D01*
X0233285Y0189219D02*
X0225627Y0189219D01*
X0225481Y0188220D02*
X0232608Y0188220D01*
X0232194Y0187222D02*
X0225481Y0187222D01*
X0225481Y0186223D02*
X0232013Y0186223D01*
X0232013Y0185225D02*
X0225481Y0185225D01*
X0225481Y0184226D02*
X0232183Y0184226D01*
X0232597Y0183228D02*
X0225481Y0183228D01*
X0225481Y0182229D02*
X0233258Y0182229D01*
X0234256Y0181231D02*
X0225481Y0181231D01*
X0225481Y0180232D02*
X0234298Y0180232D01*
X0233299Y0179234D02*
X0225481Y0179234D01*
X0225481Y0178235D02*
X0232614Y0178235D01*
X0232200Y0177237D02*
X0225481Y0177237D01*
X0225481Y0176238D02*
X0232013Y0176238D01*
X0232013Y0175239D02*
X0225481Y0175239D01*
X0225481Y0174241D02*
X0232177Y0174241D01*
X0232590Y0173242D02*
X0225481Y0173242D01*
X0225481Y0172244D02*
X0233243Y0172244D01*
X0234241Y0171245D02*
X0225481Y0171245D01*
X0225481Y0170247D02*
X0234313Y0170247D01*
X0233314Y0169248D02*
X0225481Y0169248D01*
X0225481Y0168250D02*
X0232620Y0168250D01*
X0232206Y0167251D02*
X0225481Y0167251D01*
X0225481Y0166253D02*
X0232013Y0166253D01*
X0232013Y0165254D02*
X0225481Y0165254D01*
X0225481Y0164256D02*
X0232171Y0164256D01*
X0232584Y0163257D02*
X0225481Y0163257D01*
X0225481Y0162259D02*
X0233228Y0162259D01*
X0234226Y0161260D02*
X0225481Y0161260D01*
X0225481Y0160262D02*
X0234328Y0160262D01*
X0233329Y0159263D02*
X0225481Y0159263D01*
X0225481Y0158265D02*
X0232626Y0158265D01*
X0232213Y0157266D02*
X0225481Y0157266D01*
X0225481Y0156268D02*
X0232013Y0156268D01*
X0232013Y0155269D02*
X0225481Y0155269D01*
X0225481Y0154271D02*
X0232164Y0154271D01*
X0232578Y0153272D02*
X0225481Y0153272D01*
X0225481Y0152274D02*
X0233213Y0152274D01*
X0234212Y0151275D02*
X0225481Y0151275D01*
X0225481Y0150277D02*
X0234343Y0150277D01*
X0233344Y0149278D02*
X0225481Y0149278D01*
X0225481Y0148280D02*
X0232632Y0148280D01*
X0232219Y0147281D02*
X0225481Y0147281D01*
X0225481Y0146283D02*
X0232013Y0146283D01*
X0232013Y0145284D02*
X0225481Y0145284D01*
X0225481Y0144286D02*
X0232158Y0144286D01*
X0232572Y0143287D02*
X0225481Y0143287D01*
X0225481Y0142289D02*
X0233198Y0142289D01*
X0234197Y0141290D02*
X0225481Y0141290D01*
X0225481Y0140292D02*
X0234362Y0140292D01*
X0233359Y0139293D02*
X0225481Y0139293D01*
X0225481Y0138295D02*
X0232639Y0138295D01*
X0232225Y0137296D02*
X0225481Y0137296D01*
X0225481Y0136298D02*
X0232013Y0136298D01*
X0232013Y0135299D02*
X0225481Y0135299D01*
X0225481Y0134301D02*
X0232152Y0134301D01*
X0232566Y0133302D02*
X0225481Y0133302D01*
X0225481Y0132303D02*
X0233183Y0132303D01*
X0234182Y0131305D02*
X0225481Y0131305D01*
X0225554Y0107341D02*
X0175406Y0107341D01*
X0175406Y0106342D02*
X0226552Y0106342D01*
X0227551Y0105344D02*
X0175406Y0105344D01*
X0175406Y0104345D02*
X0228549Y0104345D01*
X0228676Y0103347D02*
X0175406Y0103347D01*
X0175406Y0102348D02*
X0228676Y0102348D01*
X0228676Y0101350D02*
X0175406Y0101350D01*
X0175406Y0100351D02*
X0190680Y0100351D01*
X0189074Y0099353D02*
X0185941Y0099353D01*
X0187085Y0098354D02*
X0188075Y0098354D01*
X0183506Y0098354D02*
X0182506Y0098354D01*
X0182506Y0097356D02*
X0183506Y0097356D01*
X0183506Y0096357D02*
X0182506Y0096357D01*
X0182506Y0095359D02*
X0183506Y0095359D01*
X0183506Y0094360D02*
X0182506Y0094360D01*
X0182506Y0093362D02*
X0183506Y0093362D01*
X0183506Y0092363D02*
X0182506Y0092363D01*
X0182506Y0091365D02*
X0183506Y0091365D01*
X0183506Y0090366D02*
X0182506Y0090366D01*
X0182506Y0089368D02*
X0183506Y0089368D01*
X0183506Y0088369D02*
X0182506Y0088369D01*
X0182506Y0086372D02*
X0183506Y0086372D01*
X0183506Y0085373D02*
X0182506Y0085373D01*
X0182506Y0084375D02*
X0183506Y0084375D01*
X0183506Y0083376D02*
X0182506Y0083376D01*
X0182506Y0082378D02*
X0183506Y0082378D01*
X0185283Y0082378D02*
X0189439Y0082378D01*
X0188440Y0083376D02*
X0186723Y0083376D01*
X0187545Y0084375D02*
X0187752Y0084375D01*
X0191562Y0081379D02*
X0174449Y0081379D01*
X0176573Y0082378D02*
X0180729Y0082378D01*
X0179289Y0083376D02*
X0177571Y0083376D01*
X0178260Y0084375D02*
X0178466Y0084375D01*
X0171562Y0081379D02*
X0164449Y0081379D01*
X0166573Y0082378D02*
X0169439Y0082378D01*
X0168440Y0083376D02*
X0167571Y0083376D01*
X0161562Y0081379D02*
X0154449Y0081379D01*
X0156573Y0082378D02*
X0159439Y0082378D01*
X0158440Y0083376D02*
X0157571Y0083376D01*
X0151562Y0081379D02*
X0144449Y0081379D01*
X0146573Y0082378D02*
X0149439Y0082378D01*
X0148440Y0083376D02*
X0147571Y0083376D01*
X0141562Y0081379D02*
X0134449Y0081379D01*
X0136573Y0082378D02*
X0139439Y0082378D01*
X0138440Y0083376D02*
X0137571Y0083376D01*
X0131562Y0081379D02*
X0124449Y0081379D01*
X0126573Y0082378D02*
X0129439Y0082378D01*
X0128440Y0083376D02*
X0127571Y0083376D01*
X0121562Y0081379D02*
X0114449Y0081379D01*
X0116573Y0082378D02*
X0119439Y0082378D01*
X0118440Y0083376D02*
X0117571Y0083376D01*
X0111562Y0081379D02*
X0104449Y0081379D01*
X0106573Y0082378D02*
X0109439Y0082378D01*
X0108440Y0083376D02*
X0107571Y0083376D01*
X0101562Y0081379D02*
X0094449Y0081379D01*
X0096573Y0082378D02*
X0099439Y0082378D01*
X0098440Y0083376D02*
X0097571Y0083376D01*
X0091562Y0081379D02*
X0084449Y0081379D01*
X0086573Y0082378D02*
X0089439Y0082378D01*
X0088440Y0083376D02*
X0087571Y0083376D01*
X0081562Y0081379D02*
X0074449Y0081379D01*
X0076573Y0082378D02*
X0079439Y0082378D01*
X0078440Y0083376D02*
X0077571Y0083376D01*
X0095331Y0100351D02*
X0100680Y0100351D01*
X0099074Y0099353D02*
X0096938Y0099353D01*
X0097936Y0098354D02*
X0098075Y0098354D01*
X0105331Y0100351D02*
X0110680Y0100351D01*
X0109074Y0099353D02*
X0106938Y0099353D01*
X0107936Y0098354D02*
X0108075Y0098354D01*
X0115331Y0100351D02*
X0120680Y0100351D01*
X0119074Y0099353D02*
X0116938Y0099353D01*
X0117936Y0098354D02*
X0118075Y0098354D01*
X0125331Y0100351D02*
X0130680Y0100351D01*
X0129074Y0099353D02*
X0126938Y0099353D01*
X0127936Y0098354D02*
X0128075Y0098354D01*
X0135331Y0100351D02*
X0140680Y0100351D01*
X0139074Y0099353D02*
X0136938Y0099353D01*
X0137936Y0098354D02*
X0138075Y0098354D01*
X0145331Y0100351D02*
X0150680Y0100351D01*
X0149074Y0099353D02*
X0146938Y0099353D01*
X0147936Y0098354D02*
X0148075Y0098354D01*
X0155331Y0100351D02*
X0160680Y0100351D01*
X0159074Y0099353D02*
X0156938Y0099353D01*
X0157936Y0098354D02*
X0158075Y0098354D01*
X0165331Y0100351D02*
X0170606Y0100351D01*
X0169074Y0099353D02*
X0166938Y0099353D01*
X0167936Y0098354D02*
X0168075Y0098354D01*
X0176938Y0099353D02*
X0180070Y0099353D01*
X0178926Y0098354D02*
X0177936Y0098354D01*
X0182506Y0099353D02*
X0183506Y0099353D01*
X0194449Y0081379D02*
X0201562Y0081379D01*
X0199439Y0082378D02*
X0196573Y0082378D01*
X0197571Y0083376D02*
X0198440Y0083376D01*
X0204449Y0081379D02*
X0211562Y0081379D01*
X0209439Y0082378D02*
X0206573Y0082378D01*
X0207571Y0083376D02*
X0208440Y0083376D01*
X0214449Y0081379D02*
X0228676Y0081379D01*
X0228676Y0082378D02*
X0216573Y0082378D01*
X0217571Y0083376D02*
X0228676Y0083376D01*
X0228676Y0084375D02*
X0218260Y0084375D01*
X0218673Y0085373D02*
X0228676Y0085373D01*
X0228676Y0086372D02*
X0218944Y0086372D01*
X0218944Y0087370D02*
X0228676Y0087370D01*
X0228676Y0088369D02*
X0218944Y0088369D01*
X0218944Y0089368D02*
X0228676Y0089368D01*
X0228676Y0090366D02*
X0218944Y0090366D01*
X0218944Y0091365D02*
X0228676Y0091365D01*
X0228676Y0092363D02*
X0218944Y0092363D01*
X0218944Y0093362D02*
X0228676Y0093362D01*
X0228676Y0094360D02*
X0218944Y0094360D01*
X0218944Y0095359D02*
X0228676Y0095359D01*
X0228676Y0096357D02*
X0218824Y0096357D01*
X0218411Y0097356D02*
X0228676Y0097356D01*
X0228676Y0098354D02*
X0217936Y0098354D01*
X0216938Y0099353D02*
X0228676Y0099353D01*
X0228676Y0100351D02*
X0215331Y0100351D01*
X0210680Y0100351D02*
X0205331Y0100351D01*
X0206938Y0099353D02*
X0209074Y0099353D01*
X0208075Y0098354D02*
X0207936Y0098354D01*
X0200680Y0100351D02*
X0195331Y0100351D01*
X0196938Y0099353D02*
X0199074Y0099353D01*
X0198075Y0098354D02*
X0197936Y0098354D01*
X0198886Y0131305D02*
X0194912Y0131305D01*
X0194912Y0132303D02*
X0197432Y0132303D01*
X0196653Y0133302D02*
X0194912Y0133302D01*
X0194912Y0134301D02*
X0196224Y0134301D01*
X0194912Y0135299D02*
X0206913Y0135299D01*
X0199379Y0140292D02*
X0194912Y0140292D01*
X0194912Y0139293D02*
X0197608Y0139293D01*
X0196757Y0138295D02*
X0194912Y0138295D01*
X0194912Y0137296D02*
X0196281Y0137296D01*
X0196046Y0136298D02*
X0194912Y0136298D01*
X0195744Y0141290D02*
X0197597Y0141290D01*
X0170606Y0131305D02*
X0169621Y0131305D01*
X0170606Y0130306D02*
X0167529Y0130306D01*
X0170606Y0129308D02*
X0071930Y0129308D01*
X0071930Y0130306D02*
X0076909Y0130306D01*
X0071930Y0128309D02*
X0170606Y0128309D01*
X0170606Y0127311D02*
X0071930Y0127311D01*
X0071930Y0126312D02*
X0170606Y0126312D01*
X0170606Y0125314D02*
X0071930Y0125314D01*
X0071930Y0124315D02*
X0170606Y0124315D01*
X0170606Y0123317D02*
X0071930Y0123317D01*
X0071930Y0122318D02*
X0170606Y0122318D01*
X0170606Y0121320D02*
X0071930Y0121320D01*
X0071930Y0120321D02*
X0075501Y0120321D01*
X0074355Y0119323D02*
X0071930Y0119323D01*
X0081168Y0120321D02*
X0170606Y0120321D01*
X0170606Y0119323D02*
X0082314Y0119323D01*
X0083101Y0118324D02*
X0170606Y0118324D01*
X0170606Y0117326D02*
X0083515Y0117326D01*
X0087459Y0130306D02*
X0158544Y0130306D01*
X0156452Y0131305D02*
X0131767Y0131305D01*
X0130237Y0131305D02*
X0129237Y0131305D01*
X0129237Y0132303D02*
X0130237Y0132303D01*
X0130237Y0133302D02*
X0129237Y0133302D01*
X0133171Y0132303D02*
X0155454Y0132303D01*
X0154756Y0133302D02*
X0133924Y0133302D01*
X0134343Y0134301D02*
X0153303Y0134301D01*
X0121866Y0140292D02*
X0087624Y0140292D01*
X0090487Y0133302D02*
X0118949Y0133302D01*
X0119702Y0132303D02*
X0090074Y0132303D01*
X0089092Y0131305D02*
X0121106Y0131305D01*
X0175406Y0201201D02*
X0211262Y0201201D01*
X0211262Y0202199D02*
X0175406Y0202199D01*
X0175406Y0203198D02*
X0211262Y0203198D01*
X0211262Y0204196D02*
X0175406Y0204196D01*
X0175406Y0205195D02*
X0211262Y0205195D01*
X0211262Y0206193D02*
X0175406Y0206193D01*
X0175406Y0207192D02*
X0211437Y0207192D01*
X0212167Y0208190D02*
X0175406Y0208190D01*
X0175406Y0209189D02*
X0213165Y0209189D01*
X0214164Y0210187D02*
X0175406Y0210187D01*
X0175406Y0211186D02*
X0215162Y0211186D01*
X0216431Y0212184D02*
X0175406Y0212184D01*
X0175406Y0213183D02*
X0239702Y0213183D01*
X0240701Y0214181D02*
X0175406Y0214181D01*
X0175406Y0215180D02*
X0242554Y0215180D01*
X0245807Y0215180D02*
X0250085Y0215180D01*
X0250085Y0216178D02*
X0175406Y0216178D01*
X0175406Y0217177D02*
X0250085Y0217177D01*
X0250085Y0218175D02*
X0175406Y0218175D01*
X0175406Y0219174D02*
X0250085Y0219174D01*
X0250085Y0220172D02*
X0175406Y0220172D01*
X0175406Y0221171D02*
X0250085Y0221171D01*
X0250085Y0222170D02*
X0175406Y0222170D01*
X0175406Y0223168D02*
X0250085Y0223168D01*
X0250085Y0224167D02*
X0175406Y0224167D01*
X0175406Y0225165D02*
X0250085Y0225165D01*
X0250085Y0226164D02*
X0175406Y0226164D01*
X0175406Y0227162D02*
X0250085Y0227162D01*
X0250085Y0228161D02*
X0175406Y0228161D01*
X0175406Y0229159D02*
X0250085Y0229159D01*
X0250085Y0230158D02*
X0175406Y0230158D01*
X0175406Y0231156D02*
X0250085Y0231156D01*
X0250085Y0232155D02*
X0175406Y0232155D01*
X0175406Y0233153D02*
X0250085Y0233153D01*
X0250085Y0234152D02*
X0175406Y0234152D01*
X0175406Y0235150D02*
X0178612Y0235150D01*
X0177019Y0236149D02*
X0175406Y0236149D01*
X0175406Y0237147D02*
X0176046Y0237147D01*
X0175632Y0238146D02*
X0175406Y0238146D01*
X0175406Y0242140D02*
X0175595Y0242140D01*
X0175406Y0243138D02*
X0176008Y0243138D01*
X0175406Y0244137D02*
X0176928Y0244137D01*
X0178393Y0245135D02*
X0175406Y0245135D01*
X0182751Y0235150D02*
X0250085Y0235150D01*
X0250085Y0236149D02*
X0184345Y0236149D01*
X0185317Y0237147D02*
X0250085Y0237147D01*
X0250085Y0238146D02*
X0189317Y0238146D01*
X0190421Y0239144D02*
X0250085Y0239144D01*
X0250085Y0240143D02*
X0191554Y0240143D01*
X0192687Y0241141D02*
X0250085Y0241141D01*
X0250085Y0242140D02*
X0193819Y0242140D01*
X0194952Y0243138D02*
X0250085Y0243138D01*
X0250085Y0244137D02*
X0196084Y0244137D01*
X0197217Y0245135D02*
X0250085Y0245135D01*
X0250085Y0246134D02*
X0198350Y0246134D01*
X0199482Y0247132D02*
X0250085Y0247132D01*
X0250085Y0248131D02*
X0213443Y0248131D01*
X0214442Y0249129D02*
X0250085Y0249129D01*
X0250085Y0250128D02*
X0215440Y0250128D01*
X0216439Y0251126D02*
X0250085Y0251126D01*
X0250085Y0252125D02*
X0217437Y0252125D01*
X0218436Y0253123D02*
X0250085Y0253123D01*
X0250085Y0254122D02*
X0245242Y0254122D01*
X0245264Y0254125D02*
X0245982Y0254359D01*
X0246656Y0254702D01*
X0247267Y0255146D01*
X0247801Y0255680D01*
X0248245Y0256291D01*
X0248588Y0256965D01*
X0248822Y0257683D01*
X0248920Y0258307D01*
X0238040Y0258307D01*
X0238040Y0254007D01*
X0244518Y0254007D01*
X0245264Y0254125D01*
X0247232Y0255120D02*
X0250085Y0255120D01*
X0250085Y0256119D02*
X0248120Y0256119D01*
X0248638Y0257117D02*
X0250085Y0257117D01*
X0250085Y0258116D02*
X0248890Y0258116D01*
X0250085Y0259114D02*
X0238040Y0259114D01*
X0238040Y0258116D02*
X0237040Y0258116D01*
X0237040Y0258307D02*
X0237040Y0254026D01*
X0236416Y0254125D01*
X0235697Y0254359D01*
X0235024Y0254702D01*
X0234413Y0255146D01*
X0233879Y0255680D01*
X0233434Y0256291D01*
X0233091Y0256965D01*
X0232858Y0257683D01*
X0232759Y0258307D01*
X0237040Y0258307D01*
X0237040Y0259114D02*
X0218985Y0259114D01*
X0218985Y0258116D02*
X0232789Y0258116D01*
X0233042Y0257117D02*
X0218985Y0257117D01*
X0218985Y0256119D02*
X0233560Y0256119D01*
X0234448Y0255120D02*
X0218985Y0255120D01*
X0218957Y0254122D02*
X0236437Y0254122D01*
X0237040Y0254122D02*
X0238040Y0254122D01*
X0238040Y0255120D02*
X0237040Y0255120D01*
X0237040Y0256119D02*
X0238040Y0256119D01*
X0238040Y0257117D02*
X0237040Y0257117D01*
X0232917Y0260113D02*
X0218985Y0260113D01*
X0218985Y0261111D02*
X0233327Y0261111D01*
X0234054Y0262110D02*
X0218985Y0262110D01*
X0218985Y0263108D02*
X0235409Y0263108D01*
X0234776Y0264107D02*
X0218985Y0264107D01*
X0219733Y0265105D02*
X0233605Y0265105D01*
X0232814Y0266104D02*
X0220731Y0266104D01*
X0214186Y0263108D02*
X0209671Y0263108D01*
X0208040Y0263108D02*
X0207040Y0263108D01*
X0207040Y0262110D02*
X0208040Y0262110D01*
X0208040Y0261111D02*
X0207040Y0261111D01*
X0207040Y0260113D02*
X0208040Y0260113D01*
X0208040Y0259114D02*
X0214186Y0259114D01*
X0214186Y0258116D02*
X0212290Y0258116D01*
X0212038Y0257117D02*
X0214186Y0257117D01*
X0214186Y0256119D02*
X0211520Y0256119D01*
X0210632Y0255120D02*
X0213644Y0255120D01*
X0214186Y0260113D02*
X0212162Y0260113D01*
X0211753Y0261111D02*
X0214186Y0261111D01*
X0214186Y0262110D02*
X0211025Y0262110D01*
X0212443Y0281082D02*
X0233312Y0281082D01*
X0234025Y0282080D02*
X0211903Y0282080D01*
X0210905Y0283079D02*
X0235350Y0283079D01*
X0234848Y0284077D02*
X0208927Y0284077D01*
X0210570Y0285076D02*
X0233634Y0285076D01*
X0232827Y0286074D02*
X0211487Y0286074D01*
X0212023Y0287073D02*
X0222447Y0287073D01*
X0221448Y0288071D02*
X0212283Y0288071D01*
X0212177Y0290068D02*
X0219451Y0290068D01*
X0220450Y0289070D02*
X0208040Y0289070D01*
X0207040Y0289070D02*
X0190095Y0289070D01*
X0190095Y0290068D02*
X0196303Y0290068D01*
X0196704Y0291067D02*
X0190301Y0291067D01*
X0191628Y0292065D02*
X0197410Y0292065D01*
X0198721Y0293064D02*
X0192955Y0293064D01*
X0194282Y0294062D02*
X0198284Y0294062D01*
X0197049Y0295061D02*
X0195609Y0295061D01*
X0196196Y0288071D02*
X0190095Y0288071D01*
X0190095Y0287073D02*
X0196456Y0287073D01*
X0196992Y0286074D02*
X0190095Y0286074D01*
X0190095Y0285076D02*
X0197909Y0285076D01*
X0199552Y0284077D02*
X0190095Y0284077D01*
X0190095Y0283079D02*
X0197575Y0283079D01*
X0196576Y0282080D02*
X0190095Y0282080D01*
X0190095Y0281082D02*
X0196037Y0281082D01*
X0195623Y0280083D02*
X0190096Y0280083D01*
X0190096Y0279085D02*
X0195540Y0279085D01*
X0195540Y0278086D02*
X0190096Y0278086D01*
X0190096Y0277088D02*
X0195807Y0277088D01*
X0196221Y0276089D02*
X0190096Y0276089D01*
X0190096Y0275091D02*
X0197019Y0275091D01*
X0198212Y0274092D02*
X0190096Y0274092D01*
X0190096Y0273094D02*
X0198780Y0273094D01*
X0197440Y0272095D02*
X0190096Y0272095D01*
X0190096Y0271097D02*
X0196719Y0271097D01*
X0196312Y0270098D02*
X0190096Y0270098D01*
X0209758Y0293064D02*
X0216456Y0293064D01*
X0217454Y0292065D02*
X0211070Y0292065D01*
X0211776Y0291067D02*
X0218453Y0291067D01*
X0215457Y0294062D02*
X0210196Y0294062D01*
X0211430Y0295061D02*
X0214459Y0295061D01*
X0213460Y0296059D02*
X0212247Y0296059D01*
X0196517Y0322021D02*
X0194244Y0322021D01*
X0193246Y0323019D02*
X0197515Y0323019D01*
X0199408Y0324018D02*
X0192850Y0324018D01*
X0192851Y0325016D02*
X0207470Y0325016D01*
X0208468Y0326015D02*
X0192852Y0326015D01*
X0192853Y0327013D02*
X0209467Y0327013D01*
X0210465Y0328012D02*
X0192853Y0328012D01*
X0203704Y0343988D02*
X0005533Y0343988D01*
X0005533Y0342989D02*
X0053397Y0342989D01*
X0052398Y0341991D02*
X0005534Y0341991D01*
X0029340Y0325016D02*
X0046518Y0325016D01*
X0046518Y0326015D02*
X0033700Y0326015D01*
X0035645Y0327013D02*
X0046518Y0327013D01*
X0046518Y0328012D02*
X0036644Y0328012D01*
X0037177Y0329010D02*
X0046518Y0329010D01*
X0046518Y0330009D02*
X0037590Y0330009D01*
X0037677Y0331007D02*
X0046518Y0331007D01*
X0046518Y0332006D02*
X0037677Y0332006D01*
X0037420Y0333004D02*
X0046518Y0333004D01*
X0046518Y0334003D02*
X0037007Y0334003D01*
X0036233Y0335001D02*
X0046518Y0335001D01*
X0046686Y0336000D02*
X0035119Y0336000D01*
X0030760Y0326015D02*
X0030338Y0326015D01*
X0027620Y0381931D02*
X0240889Y0381931D01*
X0241157Y0380933D02*
X0198919Y0380933D01*
X0198665Y0381187D02*
X0197267Y0381187D01*
X0197267Y0377387D01*
X0196667Y0377387D01*
X0196667Y0381187D01*
X0195269Y0381187D01*
X0192867Y0378785D01*
X0192867Y0377387D01*
X0196667Y0377387D01*
X0196667Y0376787D01*
X0192867Y0376787D01*
X0192867Y0375388D01*
X0195269Y0372987D01*
X0196667Y0372987D01*
X0196667Y0376787D01*
X0197267Y0376787D01*
X0197267Y0377387D01*
X0201067Y0377387D01*
X0201067Y0378785D01*
X0198665Y0381187D01*
X0197267Y0380933D02*
X0196667Y0380933D01*
X0196667Y0379934D02*
X0197267Y0379934D01*
X0197267Y0378936D02*
X0196667Y0378936D01*
X0196667Y0377937D02*
X0197267Y0377937D01*
X0197267Y0376939D02*
X0243998Y0376939D01*
X0244519Y0376419D02*
X0246891Y0375049D01*
X0249538Y0374340D01*
X0252278Y0374340D01*
X0254924Y0375049D01*
X0257297Y0376419D01*
X0259234Y0378356D01*
X0260604Y0380729D01*
X0261313Y0383375D01*
X0261313Y0386115D01*
X0260604Y0388761D01*
X0259234Y0391134D01*
X0257297Y0393071D01*
X0254924Y0394441D01*
X0252278Y0395151D01*
X0249538Y0395151D01*
X0246891Y0394441D01*
X0244519Y0393071D01*
X0242581Y0391134D01*
X0241211Y0388761D01*
X0240502Y0386115D01*
X0240502Y0383375D01*
X0241211Y0380729D01*
X0242581Y0378356D01*
X0244519Y0376419D01*
X0245347Y0375940D02*
X0201067Y0375940D01*
X0201067Y0375388D02*
X0201067Y0376787D01*
X0197267Y0376787D01*
X0197267Y0372987D01*
X0198665Y0372987D01*
X0201067Y0375388D01*
X0200620Y0374942D02*
X0247290Y0374942D01*
X0243000Y0377937D02*
X0201067Y0377937D01*
X0200916Y0378936D02*
X0242246Y0378936D01*
X0241670Y0379934D02*
X0199917Y0379934D01*
X0196667Y0376939D02*
X0191667Y0376939D01*
X0191667Y0377937D02*
X0192867Y0377937D01*
X0193018Y0378936D02*
X0191667Y0378936D01*
X0190766Y0379934D02*
X0194016Y0379934D01*
X0195015Y0380933D02*
X0189767Y0380933D01*
X0191667Y0375940D02*
X0192867Y0375940D01*
X0193313Y0374942D02*
X0191469Y0374942D01*
X0190470Y0373943D02*
X0194312Y0373943D01*
X0196667Y0373943D02*
X0197267Y0373943D01*
X0197267Y0374942D02*
X0196667Y0374942D01*
X0196667Y0375940D02*
X0197267Y0375940D01*
X0199622Y0373943D02*
X0264420Y0373943D01*
X0264420Y0372945D02*
X0189472Y0372945D01*
X0210218Y0353973D02*
X0264431Y0353973D01*
X0264432Y0352974D02*
X0211217Y0352974D01*
X0212215Y0351976D02*
X0264432Y0351976D01*
X0264433Y0350977D02*
X0212577Y0350977D01*
X0212577Y0349979D02*
X0264433Y0349979D01*
X0264434Y0348980D02*
X0212577Y0348980D01*
X0212577Y0347982D02*
X0264434Y0347982D01*
X0264435Y0346983D02*
X0211839Y0346983D01*
X0210840Y0345985D02*
X0264436Y0345985D01*
X0264436Y0344986D02*
X0210277Y0344986D01*
X0210152Y0343988D02*
X0264437Y0343988D01*
X0264437Y0342989D02*
X0209494Y0342989D01*
X0208495Y0341991D02*
X0264438Y0341991D01*
X0264438Y0340992D02*
X0207497Y0340992D01*
X0206498Y0339994D02*
X0264439Y0339994D01*
X0264439Y0338995D02*
X0205485Y0338995D01*
X0240622Y0382930D02*
X0027888Y0382930D01*
X0028118Y0383928D02*
X0240502Y0383928D01*
X0240502Y0384927D02*
X0028118Y0384927D01*
X0028118Y0385925D02*
X0240502Y0385925D01*
X0240719Y0386924D02*
X0028013Y0386924D01*
X0027746Y0387922D02*
X0240987Y0387922D01*
X0241303Y0388921D02*
X0027478Y0388921D01*
X0026981Y0389919D02*
X0241880Y0389919D01*
X0242456Y0390918D02*
X0026405Y0390918D01*
X0025673Y0391916D02*
X0243364Y0391916D01*
X0244362Y0392915D02*
X0024675Y0392915D01*
X0023365Y0393913D02*
X0245977Y0393913D01*
X0248648Y0394912D02*
X0021527Y0394912D01*
X0046140Y0219174D02*
X0046611Y0219174D01*
X0046611Y0218175D02*
X0045142Y0218175D01*
X0044360Y0217177D02*
X0046611Y0217177D01*
X0046611Y0216178D02*
X0044360Y0216178D01*
X0044291Y0215180D02*
X0046611Y0215180D01*
X0046611Y0214181D02*
X0043711Y0214181D01*
X0042712Y0213183D02*
X0046611Y0213183D01*
X0046611Y0212184D02*
X0041714Y0212184D01*
X0040715Y0211186D02*
X0046611Y0211186D01*
X0046611Y0210187D02*
X0039717Y0210187D01*
X0038718Y0209189D02*
X0046611Y0209189D01*
X0046611Y0208190D02*
X0037720Y0208190D01*
X0033927Y0211186D02*
X0005608Y0211186D01*
X0005608Y0212184D02*
X0034926Y0212184D01*
X0035924Y0213183D02*
X0005607Y0213183D01*
X0005607Y0214181D02*
X0036923Y0214181D01*
X0037921Y0215180D02*
X0005606Y0215180D01*
X0005609Y0210187D02*
X0032929Y0210187D01*
X0031930Y0209189D02*
X0005609Y0209189D01*
X0005610Y0208190D02*
X0030932Y0208190D01*
X0029933Y0207192D02*
X0005610Y0207192D01*
X0005611Y0206193D02*
X0028935Y0206193D01*
X0027936Y0205195D02*
X0005612Y0205195D01*
X0005612Y0204196D02*
X0026938Y0204196D01*
X0025939Y0203198D02*
X0005613Y0203198D01*
X0005613Y0202199D02*
X0025438Y0202199D01*
X0025425Y0201201D02*
X0005614Y0201201D01*
X0005614Y0200202D02*
X0025425Y0200202D01*
X0025425Y0199204D02*
X0005615Y0199204D01*
X0005616Y0198205D02*
X0025425Y0198205D01*
X0025425Y0197207D02*
X0005616Y0197207D01*
X0005617Y0196208D02*
X0025425Y0196208D01*
X0025425Y0195210D02*
X0005617Y0195210D01*
X0005618Y0194211D02*
X0025425Y0194211D01*
X0025425Y0193213D02*
X0005618Y0193213D01*
X0005619Y0192214D02*
X0025425Y0192214D01*
X0025425Y0191216D02*
X0005620Y0191216D01*
X0005620Y0190217D02*
X0025425Y0190217D01*
X0025425Y0189219D02*
X0005621Y0189219D01*
X0005621Y0188220D02*
X0025425Y0188220D01*
X0025425Y0187222D02*
X0005622Y0187222D01*
X0005622Y0186223D02*
X0025425Y0186223D01*
X0025425Y0185225D02*
X0005623Y0185225D01*
X0005624Y0184226D02*
X0025425Y0184226D01*
X0025425Y0183228D02*
X0005624Y0183228D01*
X0005625Y0182229D02*
X0025425Y0182229D01*
X0025425Y0181231D02*
X0005625Y0181231D01*
X0005626Y0180232D02*
X0025425Y0180232D01*
X0025425Y0179234D02*
X0005626Y0179234D01*
X0005627Y0178235D02*
X0025425Y0178235D01*
X0025425Y0177237D02*
X0005628Y0177237D01*
X0005628Y0176238D02*
X0025425Y0176238D01*
X0025425Y0175239D02*
X0005629Y0175239D01*
X0005629Y0174241D02*
X0025425Y0174241D01*
X0025425Y0173242D02*
X0005630Y0173242D01*
X0005630Y0172244D02*
X0025425Y0172244D01*
X0025425Y0171245D02*
X0005631Y0171245D01*
X0005632Y0170247D02*
X0025425Y0170247D01*
X0025425Y0169248D02*
X0005632Y0169248D01*
X0005633Y0168250D02*
X0025425Y0168250D01*
X0025425Y0167251D02*
X0005633Y0167251D01*
X0005634Y0166253D02*
X0025425Y0166253D01*
X0025425Y0165254D02*
X0005634Y0165254D01*
X0005635Y0164256D02*
X0025425Y0164256D01*
X0025425Y0163257D02*
X0005635Y0163257D01*
X0005636Y0162259D02*
X0025425Y0162259D01*
X0025425Y0161260D02*
X0005637Y0161260D01*
X0005637Y0160262D02*
X0025425Y0160262D01*
X0025425Y0159263D02*
X0005638Y0159263D01*
X0005638Y0158265D02*
X0025425Y0158265D01*
X0025425Y0157266D02*
X0005639Y0157266D01*
X0005639Y0156268D02*
X0025425Y0156268D01*
X0025425Y0155269D02*
X0005640Y0155269D01*
X0005641Y0154271D02*
X0025425Y0154271D01*
X0025425Y0153272D02*
X0005641Y0153272D01*
X0005642Y0152274D02*
X0025425Y0152274D01*
X0025425Y0151275D02*
X0005642Y0151275D01*
X0005643Y0150277D02*
X0025425Y0150277D01*
X0025425Y0149278D02*
X0005643Y0149278D01*
X0005644Y0148280D02*
X0025425Y0148280D01*
X0025425Y0147281D02*
X0005645Y0147281D01*
X0005645Y0146283D02*
X0025425Y0146283D01*
X0025425Y0145284D02*
X0005646Y0145284D01*
X0005646Y0144286D02*
X0025425Y0144286D01*
X0025425Y0143287D02*
X0005647Y0143287D01*
X0005647Y0142289D02*
X0025425Y0142289D01*
X0025425Y0141290D02*
X0005648Y0141290D01*
X0005649Y0140292D02*
X0025425Y0140292D01*
X0025425Y0139293D02*
X0005649Y0139293D01*
X0005650Y0138295D02*
X0025425Y0138295D01*
X0025425Y0137296D02*
X0005650Y0137296D01*
X0005651Y0136298D02*
X0025425Y0136298D01*
X0025425Y0135299D02*
X0005651Y0135299D01*
X0005652Y0134301D02*
X0025425Y0134301D01*
X0025425Y0133302D02*
X0005653Y0133302D01*
X0005653Y0132303D02*
X0025425Y0132303D01*
X0025425Y0131305D02*
X0005654Y0131305D01*
X0005654Y0130306D02*
X0025425Y0130306D01*
X0025425Y0129308D02*
X0005655Y0129308D01*
X0005655Y0128309D02*
X0025425Y0128309D01*
X0025425Y0127311D02*
X0005656Y0127311D01*
X0005656Y0126312D02*
X0025425Y0126312D01*
X0025425Y0125314D02*
X0005657Y0125314D01*
X0005658Y0124315D02*
X0025425Y0124315D01*
X0025425Y0123317D02*
X0005658Y0123317D01*
X0005659Y0122318D02*
X0025425Y0122318D01*
X0025425Y0121320D02*
X0005659Y0121320D01*
X0005660Y0120321D02*
X0025425Y0120321D01*
X0025425Y0119323D02*
X0005660Y0119323D01*
X0005661Y0118324D02*
X0025425Y0118324D01*
X0025425Y0117326D02*
X0005662Y0117326D01*
X0005662Y0116327D02*
X0025425Y0116327D01*
X0025425Y0115329D02*
X0005663Y0115329D01*
X0005663Y0114330D02*
X0025425Y0114330D01*
X0025425Y0113332D02*
X0005664Y0113332D01*
X0005664Y0112333D02*
X0025425Y0112333D01*
X0025425Y0111335D02*
X0005665Y0111335D01*
X0005666Y0110336D02*
X0025425Y0110336D01*
X0025425Y0109338D02*
X0005666Y0109338D01*
X0005667Y0108339D02*
X0025425Y0108339D01*
X0025425Y0107341D02*
X0005667Y0107341D01*
X0005668Y0106342D02*
X0025425Y0106342D01*
X0025425Y0105344D02*
X0005668Y0105344D01*
X0005669Y0104345D02*
X0025425Y0104345D01*
X0025425Y0103347D02*
X0005670Y0103347D01*
X0005670Y0102348D02*
X0025425Y0102348D01*
X0025425Y0101350D02*
X0005671Y0101350D01*
X0005671Y0100351D02*
X0025425Y0100351D01*
X0025425Y0099353D02*
X0005672Y0099353D01*
X0005672Y0098354D02*
X0025425Y0098354D01*
X0025425Y0097356D02*
X0005673Y0097356D01*
X0005674Y0096357D02*
X0025425Y0096357D01*
X0025425Y0095359D02*
X0005674Y0095359D01*
X0005675Y0094360D02*
X0025425Y0094360D01*
X0025425Y0093362D02*
X0005675Y0093362D01*
X0005676Y0092363D02*
X0025425Y0092363D01*
X0025425Y0091365D02*
X0005676Y0091365D01*
X0005677Y0090366D02*
X0025425Y0090366D01*
X0025425Y0089368D02*
X0005678Y0089368D01*
X0005678Y0088369D02*
X0025425Y0088369D01*
X0025425Y0087370D02*
X0005679Y0087370D01*
X0005679Y0086372D02*
X0025425Y0086372D01*
X0025425Y0085373D02*
X0005680Y0085373D01*
X0005680Y0084375D02*
X0025425Y0084375D01*
X0025425Y0083376D02*
X0005681Y0083376D01*
X0005681Y0082378D02*
X0025425Y0082378D01*
X0025425Y0081379D02*
X0005682Y0081379D01*
X0005683Y0080381D02*
X0025425Y0080381D01*
X0025425Y0079382D02*
X0005683Y0079382D01*
X0005684Y0078384D02*
X0025425Y0078384D01*
X0025425Y0077385D02*
X0005684Y0077385D01*
X0005685Y0076387D02*
X0025425Y0076387D01*
X0025425Y0075388D02*
X0005685Y0075388D01*
X0005686Y0074390D02*
X0025425Y0074390D01*
X0025425Y0073391D02*
X0005687Y0073391D01*
X0005687Y0072393D02*
X0025425Y0072393D01*
X0025425Y0071394D02*
X0005688Y0071394D01*
X0005688Y0070396D02*
X0025425Y0070396D01*
X0025425Y0069397D02*
X0005689Y0069397D01*
X0005689Y0068399D02*
X0025425Y0068399D01*
X0025425Y0067400D02*
X0005690Y0067400D01*
X0005691Y0066402D02*
X0025425Y0066402D01*
X0025425Y0065403D02*
X0005691Y0065403D01*
X0005692Y0064405D02*
X0025649Y0064405D01*
X0026447Y0063406D02*
X0005692Y0063406D01*
X0005693Y0062408D02*
X0027445Y0062408D01*
X0028444Y0061409D02*
X0005693Y0061409D01*
X0005694Y0060411D02*
X0029442Y0060411D01*
X0030441Y0059412D02*
X0005695Y0059412D01*
X0005695Y0058414D02*
X0031439Y0058414D01*
X0032438Y0057415D02*
X0005696Y0057415D01*
X0005696Y0056417D02*
X0033436Y0056417D01*
X0034435Y0055418D02*
X0005697Y0055418D01*
X0005697Y0054420D02*
X0035433Y0054420D01*
X0036432Y0053421D02*
X0005698Y0053421D01*
X0005699Y0052423D02*
X0037430Y0052423D01*
X0039226Y0057415D02*
X0227165Y0057415D01*
X0228164Y0058414D02*
X0038228Y0058414D01*
X0037229Y0059412D02*
X0228676Y0059412D01*
X0228676Y0060411D02*
X0036231Y0060411D01*
X0035232Y0061409D02*
X0228676Y0061409D01*
X0228676Y0062408D02*
X0034234Y0062408D01*
X0033235Y0063406D02*
X0228676Y0063406D01*
X0228676Y0064405D02*
X0032237Y0064405D01*
X0031238Y0065403D02*
X0228676Y0065403D01*
X0228676Y0066402D02*
X0030240Y0066402D01*
X0030225Y0067400D02*
X0228676Y0067400D01*
X0228676Y0068399D02*
X0030225Y0068399D01*
X0030225Y0069397D02*
X0228676Y0069397D01*
X0228676Y0070396D02*
X0030225Y0070396D01*
X0030225Y0071394D02*
X0228676Y0071394D01*
X0228676Y0072393D02*
X0030225Y0072393D01*
X0030225Y0073391D02*
X0228676Y0073391D01*
X0233476Y0063406D02*
X0264596Y0063406D01*
X0264597Y0062408D02*
X0233476Y0062408D01*
X0233476Y0061409D02*
X0264597Y0061409D01*
X0264598Y0060411D02*
X0233476Y0060411D01*
X0233476Y0059412D02*
X0264599Y0059412D01*
X0264599Y0058414D02*
X0233476Y0058414D01*
X0233460Y0057415D02*
X0240064Y0057415D01*
X0240093Y0057444D02*
X0237017Y0054368D01*
X0237017Y0050019D01*
X0240093Y0046944D01*
X0244442Y0046944D01*
X0247517Y0050019D01*
X0247517Y0054368D01*
X0244442Y0057444D01*
X0240093Y0057444D01*
X0239066Y0056417D02*
X0232955Y0056417D01*
X0231956Y0055418D02*
X0238067Y0055418D01*
X0237069Y0054420D02*
X0230958Y0054420D01*
X0229959Y0053421D02*
X0237017Y0053421D01*
X0237017Y0052423D02*
X0228961Y0052423D01*
X0237017Y0051424D02*
X0189509Y0051424D01*
X0188511Y0050426D02*
X0237017Y0050426D01*
X0237609Y0049427D02*
X0187512Y0049427D01*
X0186514Y0048429D02*
X0238608Y0048429D01*
X0239606Y0047430D02*
X0185515Y0047430D01*
X0185334Y0046432D02*
X0264606Y0046432D01*
X0264605Y0047430D02*
X0244928Y0047430D01*
X0245927Y0048429D02*
X0249456Y0048429D01*
X0250341Y0047544D02*
X0251967Y0047544D01*
X0251967Y0051894D01*
X0247617Y0051894D01*
X0247617Y0050268D01*
X0250341Y0047544D01*
X0251967Y0048429D02*
X0252567Y0048429D01*
X0252567Y0047544D02*
X0252567Y0051894D01*
X0252567Y0052494D01*
X0251967Y0052494D01*
X0251967Y0056844D01*
X0250341Y0056844D01*
X0247617Y0054120D01*
X0247617Y0052494D01*
X0251967Y0052494D01*
X0251967Y0051894D01*
X0252567Y0051894D01*
X0256917Y0051894D01*
X0256917Y0050268D01*
X0254193Y0047544D01*
X0252567Y0047544D01*
X0252567Y0049427D02*
X0251967Y0049427D01*
X0251967Y0050426D02*
X0252567Y0050426D01*
X0252567Y0051424D02*
X0251967Y0051424D01*
X0251967Y0052423D02*
X0247517Y0052423D01*
X0247517Y0053421D02*
X0247617Y0053421D01*
X0247466Y0054420D02*
X0247917Y0054420D01*
X0248916Y0055418D02*
X0246467Y0055418D01*
X0245469Y0056417D02*
X0249914Y0056417D01*
X0251967Y0056417D02*
X0252567Y0056417D01*
X0252567Y0056844D02*
X0252567Y0052494D01*
X0256917Y0052494D01*
X0256917Y0054120D01*
X0254193Y0056844D01*
X0252567Y0056844D01*
X0252567Y0055418D02*
X0251967Y0055418D01*
X0251967Y0054420D02*
X0252567Y0054420D01*
X0252567Y0053421D02*
X0251967Y0053421D01*
X0252567Y0052423D02*
X0264603Y0052423D01*
X0264602Y0053421D02*
X0256917Y0053421D01*
X0256617Y0054420D02*
X0264601Y0054420D01*
X0264601Y0055418D02*
X0255619Y0055418D01*
X0254620Y0056417D02*
X0264600Y0056417D01*
X0264600Y0057415D02*
X0244470Y0057415D01*
X0247517Y0051424D02*
X0247617Y0051424D01*
X0247617Y0050426D02*
X0247517Y0050426D01*
X0246925Y0049427D02*
X0248458Y0049427D01*
X0255078Y0048429D02*
X0264605Y0048429D01*
X0264604Y0049427D02*
X0256077Y0049427D01*
X0256917Y0050426D02*
X0264604Y0050426D01*
X0264603Y0051424D02*
X0256917Y0051424D01*
X0264606Y0045433D02*
X0185334Y0045433D01*
X0185334Y0044434D02*
X0264607Y0044434D01*
X0264608Y0043436D02*
X0185334Y0043436D01*
X0185334Y0042437D02*
X0264608Y0042437D01*
X0264609Y0041439D02*
X0185334Y0041439D01*
X0185334Y0040440D02*
X0264609Y0040440D01*
X0264610Y0039442D02*
X0185334Y0039442D01*
X0185334Y0038443D02*
X0264610Y0038443D01*
X0264611Y0037445D02*
X0185334Y0037445D01*
X0185334Y0036446D02*
X0264612Y0036446D01*
X0264612Y0035448D02*
X0185334Y0035448D01*
X0185334Y0034449D02*
X0264613Y0034449D01*
X0264613Y0033451D02*
X0254106Y0033451D01*
X0252847Y0033788D02*
X0255494Y0033079D01*
X0257866Y0031709D01*
X0259804Y0029772D01*
X0261174Y0027399D01*
X0261883Y0024753D01*
X0261883Y0022013D01*
X0261174Y0019366D01*
X0259804Y0016994D01*
X0257866Y0015056D01*
X0255494Y0013686D01*
X0252847Y0012977D01*
X0250107Y0012977D01*
X0247461Y0013686D01*
X0245088Y0015056D01*
X0243151Y0016994D01*
X0241781Y0019366D01*
X0241072Y0022013D01*
X0241072Y0024753D01*
X0241781Y0027399D01*
X0243151Y0029772D01*
X0245088Y0031709D01*
X0247461Y0033079D01*
X0250107Y0033788D01*
X0252847Y0033788D01*
X0256579Y0032452D02*
X0264614Y0032452D01*
X0264614Y0031454D02*
X0258122Y0031454D01*
X0259120Y0030455D02*
X0264615Y0030455D01*
X0264616Y0029457D02*
X0259986Y0029457D01*
X0260562Y0028458D02*
X0264616Y0028458D01*
X0264617Y0027460D02*
X0261139Y0027460D01*
X0261425Y0026461D02*
X0264617Y0026461D01*
X0264618Y0025463D02*
X0261692Y0025463D01*
X0261883Y0024464D02*
X0264618Y0024464D01*
X0264619Y0023466D02*
X0261883Y0023466D01*
X0261883Y0022467D02*
X0264620Y0022467D01*
X0264620Y0021469D02*
X0261737Y0021469D01*
X0261469Y0020470D02*
X0264621Y0020470D01*
X0264621Y0019472D02*
X0261202Y0019472D01*
X0260658Y0018473D02*
X0264622Y0018473D01*
X0264622Y0017475D02*
X0260081Y0017475D01*
X0259286Y0016476D02*
X0264623Y0016476D01*
X0264624Y0015478D02*
X0258288Y0015478D01*
X0256867Y0014479D02*
X0264624Y0014479D01*
X0264625Y0013481D02*
X0254726Y0013481D01*
X0248228Y0013481D02*
X0019516Y0013481D01*
X0018210Y0013131D02*
X0020856Y0013840D01*
X0023229Y0015210D01*
X0025166Y0017147D01*
X0026536Y0019520D01*
X0027245Y0022166D01*
X0027245Y0024906D01*
X0026536Y0027552D01*
X0025166Y0029925D01*
X0023229Y0031863D01*
X0020856Y0033233D01*
X0018210Y0033942D01*
X0015470Y0033942D01*
X0012823Y0033233D01*
X0010451Y0031863D01*
X0008513Y0029925D01*
X0007143Y0027552D01*
X0006434Y0024906D01*
X0006434Y0022166D01*
X0007143Y0019520D01*
X0008513Y0017147D01*
X0010451Y0015210D01*
X0012823Y0013840D01*
X0015470Y0013131D01*
X0018210Y0013131D01*
X0014164Y0013481D02*
X0005721Y0013481D01*
X0005720Y0014479D02*
X0011716Y0014479D01*
X0010183Y0015478D02*
X0005720Y0015478D01*
X0005719Y0016476D02*
X0009184Y0016476D01*
X0008324Y0017475D02*
X0005718Y0017475D01*
X0005718Y0018473D02*
X0007748Y0018473D01*
X0007171Y0019472D02*
X0005717Y0019472D01*
X0005717Y0020470D02*
X0006889Y0020470D01*
X0006621Y0021469D02*
X0005716Y0021469D01*
X0005716Y0022467D02*
X0006434Y0022467D01*
X0006434Y0023466D02*
X0005715Y0023466D01*
X0005714Y0024464D02*
X0006434Y0024464D01*
X0006583Y0025463D02*
X0005714Y0025463D01*
X0005713Y0026461D02*
X0006851Y0026461D01*
X0007119Y0027460D02*
X0005713Y0027460D01*
X0005712Y0028458D02*
X0007666Y0028458D01*
X0008243Y0029457D02*
X0005712Y0029457D01*
X0005711Y0030455D02*
X0009043Y0030455D01*
X0010042Y0031454D02*
X0005710Y0031454D01*
X0005710Y0032452D02*
X0011472Y0032452D01*
X0013638Y0033451D02*
X0005709Y0033451D01*
X0005709Y0034449D02*
X0180534Y0034449D01*
X0180534Y0033451D02*
X0020041Y0033451D01*
X0022207Y0032452D02*
X0070145Y0032452D01*
X0068852Y0031454D02*
X0023638Y0031454D01*
X0024636Y0030455D02*
X0067922Y0030455D01*
X0067509Y0029457D02*
X0025437Y0029457D01*
X0026013Y0028458D02*
X0067095Y0028458D01*
X0067067Y0027460D02*
X0026561Y0027460D01*
X0026829Y0026461D02*
X0067067Y0026461D01*
X0067067Y0025463D02*
X0027096Y0025463D01*
X0027245Y0024464D02*
X0067067Y0024464D01*
X0067067Y0023466D02*
X0027245Y0023466D01*
X0027245Y0022467D02*
X0067067Y0022467D01*
X0067067Y0021469D02*
X0027058Y0021469D01*
X0026791Y0020470D02*
X0067067Y0020470D01*
X0067067Y0019472D02*
X0026508Y0019472D01*
X0025932Y0018473D02*
X0067067Y0018473D01*
X0067430Y0017475D02*
X0025355Y0017475D01*
X0024495Y0016476D02*
X0067844Y0016476D01*
X0068662Y0015478D02*
X0023497Y0015478D01*
X0021964Y0014479D02*
X0069686Y0014479D01*
X0076325Y0014479D02*
X0079686Y0014479D01*
X0078662Y0015478D02*
X0077350Y0015478D01*
X0086325Y0014479D02*
X0089686Y0014479D01*
X0088662Y0015478D02*
X0087350Y0015478D01*
X0096325Y0014479D02*
X0099686Y0014479D01*
X0098662Y0015478D02*
X0097350Y0015478D01*
X0106325Y0014479D02*
X0109686Y0014479D01*
X0108662Y0015478D02*
X0107350Y0015478D01*
X0116325Y0014479D02*
X0119686Y0014479D01*
X0118662Y0015478D02*
X0117350Y0015478D01*
X0126325Y0014479D02*
X0129686Y0014479D01*
X0128662Y0015478D02*
X0127350Y0015478D01*
X0136325Y0014479D02*
X0139686Y0014479D01*
X0138662Y0015478D02*
X0137350Y0015478D01*
X0146325Y0014479D02*
X0149686Y0014479D01*
X0148662Y0015478D02*
X0147350Y0015478D01*
X0156325Y0014479D02*
X0159686Y0014479D01*
X0158662Y0015478D02*
X0157350Y0015478D01*
X0166325Y0014479D02*
X0169686Y0014479D01*
X0168662Y0015478D02*
X0167350Y0015478D01*
X0176325Y0014479D02*
X0179686Y0014479D01*
X0178662Y0015478D02*
X0177350Y0015478D01*
X0186325Y0014479D02*
X0189686Y0014479D01*
X0188662Y0015478D02*
X0187350Y0015478D01*
X0196325Y0014479D02*
X0199686Y0014479D01*
X0198662Y0015478D02*
X0197350Y0015478D01*
X0206325Y0014479D02*
X0209686Y0014479D01*
X0208662Y0015478D02*
X0207350Y0015478D01*
X0216325Y0014479D02*
X0246088Y0014479D01*
X0244667Y0015478D02*
X0217350Y0015478D01*
X0218168Y0016476D02*
X0243668Y0016476D01*
X0242873Y0017475D02*
X0218581Y0017475D01*
X0218944Y0018473D02*
X0242296Y0018473D01*
X0241753Y0019472D02*
X0218944Y0019472D01*
X0218944Y0020470D02*
X0241485Y0020470D01*
X0241217Y0021469D02*
X0218944Y0021469D01*
X0218944Y0022467D02*
X0241072Y0022467D01*
X0241072Y0023466D02*
X0218944Y0023466D01*
X0218944Y0024464D02*
X0241072Y0024464D01*
X0241262Y0025463D02*
X0218944Y0025463D01*
X0218944Y0026461D02*
X0241530Y0026461D01*
X0241816Y0027460D02*
X0218944Y0027460D01*
X0218916Y0028458D02*
X0242392Y0028458D01*
X0242969Y0029457D02*
X0218503Y0029457D01*
X0218089Y0030455D02*
X0243834Y0030455D01*
X0244833Y0031454D02*
X0217160Y0031454D01*
X0215866Y0032452D02*
X0246375Y0032452D01*
X0248848Y0033451D02*
X0185334Y0033451D01*
X0185866Y0032452D02*
X0190145Y0032452D01*
X0188852Y0031454D02*
X0187160Y0031454D01*
X0180145Y0032452D02*
X0175866Y0032452D01*
X0177160Y0031454D02*
X0178852Y0031454D01*
X0180534Y0035448D02*
X0005708Y0035448D01*
X0005708Y0036446D02*
X0180534Y0036446D01*
X0180534Y0037445D02*
X0005707Y0037445D01*
X0005706Y0038443D02*
X0180534Y0038443D01*
X0180534Y0039442D02*
X0005706Y0039442D01*
X0005705Y0040440D02*
X0180534Y0040440D01*
X0180534Y0041439D02*
X0005705Y0041439D01*
X0005704Y0042437D02*
X0180534Y0042437D01*
X0180534Y0043436D02*
X0005704Y0043436D01*
X0005703Y0044434D02*
X0180534Y0044434D01*
X0180534Y0045433D02*
X0005703Y0045433D01*
X0005702Y0046432D02*
X0180534Y0046432D01*
X0180353Y0047430D02*
X0005701Y0047430D01*
X0005701Y0048429D02*
X0179355Y0048429D01*
X0178356Y0049427D02*
X0005700Y0049427D01*
X0005700Y0050426D02*
X0177358Y0050426D01*
X0176359Y0051424D02*
X0005699Y0051424D01*
X0005721Y0012482D02*
X0264625Y0012482D01*
X0264626Y0011484D02*
X0005722Y0011484D01*
X0075866Y0032452D02*
X0080145Y0032452D01*
X0078852Y0031454D02*
X0077160Y0031454D01*
X0085866Y0032452D02*
X0090145Y0032452D01*
X0088852Y0031454D02*
X0087160Y0031454D01*
X0095866Y0032452D02*
X0100145Y0032452D01*
X0098852Y0031454D02*
X0097160Y0031454D01*
X0105866Y0032452D02*
X0110145Y0032452D01*
X0108852Y0031454D02*
X0107160Y0031454D01*
X0115866Y0032452D02*
X0120145Y0032452D01*
X0118852Y0031454D02*
X0117160Y0031454D01*
X0125866Y0032452D02*
X0130145Y0032452D01*
X0128852Y0031454D02*
X0127160Y0031454D01*
X0135866Y0032452D02*
X0140145Y0032452D01*
X0138852Y0031454D02*
X0137160Y0031454D01*
X0145866Y0032452D02*
X0150145Y0032452D01*
X0148852Y0031454D02*
X0147160Y0031454D01*
X0155866Y0032452D02*
X0160145Y0032452D01*
X0158852Y0031454D02*
X0157160Y0031454D01*
X0165866Y0032452D02*
X0170145Y0032452D01*
X0168852Y0031454D02*
X0167160Y0031454D01*
X0182149Y0052423D02*
X0183720Y0052423D01*
X0184718Y0053421D02*
X0181150Y0053421D01*
X0180152Y0054420D02*
X0185717Y0054420D01*
X0186715Y0055418D02*
X0179153Y0055418D01*
X0178028Y0056417D02*
X0187753Y0056417D01*
X0195866Y0032452D02*
X0200145Y0032452D01*
X0198852Y0031454D02*
X0197160Y0031454D01*
X0205866Y0032452D02*
X0210145Y0032452D01*
X0208852Y0031454D02*
X0207160Y0031454D01*
X0245283Y0065403D02*
X0250399Y0065403D01*
X0249401Y0066402D02*
X0246281Y0066402D01*
X0247280Y0067400D02*
X0248402Y0067400D01*
X0247767Y0068399D02*
X0247667Y0068399D01*
X0247667Y0069397D02*
X0247767Y0069397D01*
X0247767Y0070396D02*
X0247667Y0070396D01*
X0247667Y0071394D02*
X0247767Y0071394D01*
X0247410Y0072393D02*
X0248272Y0072393D01*
X0249270Y0073391D02*
X0246412Y0073391D01*
X0245413Y0074390D02*
X0250269Y0074390D01*
X0255563Y0073391D02*
X0264591Y0073391D01*
X0264591Y0072393D02*
X0256562Y0072393D01*
X0257067Y0071394D02*
X0264592Y0071394D01*
X0264592Y0070396D02*
X0257067Y0070396D01*
X0257067Y0069397D02*
X0264593Y0069397D01*
X0264593Y0068399D02*
X0257067Y0068399D01*
X0256431Y0067400D02*
X0264594Y0067400D01*
X0264595Y0066402D02*
X0255433Y0066402D01*
X0249150Y0188220D02*
X0248818Y0188220D01*
X0248142Y0189219D02*
X0250085Y0189219D01*
X0250085Y0190217D02*
X0247143Y0190217D01*
X0247155Y0191216D02*
X0250085Y0191216D01*
X0250085Y0192214D02*
X0248154Y0192214D01*
X0248823Y0193213D02*
X0250085Y0193213D01*
X0250085Y0194211D02*
X0249237Y0194211D01*
X0249413Y0195210D02*
X0250085Y0195210D01*
X0250085Y0196208D02*
X0249413Y0196208D01*
X0249238Y0197207D02*
X0250085Y0197207D01*
X0250085Y0198205D02*
X0248825Y0198205D01*
X0248156Y0199204D02*
X0250085Y0199204D01*
X0250085Y0200202D02*
X0247158Y0200202D01*
X0250085Y0201201D02*
X0216062Y0201201D01*
X0216062Y0202199D02*
X0250085Y0202199D01*
X0250085Y0203198D02*
X0216062Y0203198D01*
X0216062Y0204196D02*
X0250085Y0204196D01*
X0250085Y0205195D02*
X0246912Y0205195D01*
X0248118Y0206193D02*
X0250085Y0206193D01*
X0250085Y0207192D02*
X0248930Y0207192D01*
X0249343Y0208190D02*
X0250085Y0208190D01*
X0250085Y0209189D02*
X0249627Y0209189D01*
X0249627Y0210187D02*
X0250085Y0210187D01*
X0250085Y0211186D02*
X0249567Y0211186D01*
X0249154Y0212184D02*
X0250085Y0212184D01*
X0250085Y0213183D02*
X0248658Y0213183D01*
X0247660Y0214181D02*
X0250085Y0214181D01*
X0241449Y0205195D02*
X0216062Y0205195D01*
X0216958Y0206193D02*
X0240243Y0206193D01*
X0239431Y0207192D02*
X0217956Y0207192D01*
X0211262Y0200202D02*
X0210558Y0200202D01*
X0248762Y0260113D02*
X0250085Y0260113D01*
X0250085Y0261111D02*
X0248353Y0261111D01*
X0247625Y0262110D02*
X0250085Y0262110D01*
X0250085Y0263108D02*
X0246271Y0263108D01*
X0246904Y0264107D02*
X0250085Y0264107D01*
X0250085Y0265105D02*
X0248075Y0265105D01*
X0248865Y0266104D02*
X0250085Y0266104D01*
X0250085Y0267103D02*
X0249279Y0267103D01*
X0249540Y0268101D02*
X0250085Y0268101D01*
X0250085Y0269100D02*
X0249540Y0269100D01*
X0249450Y0270098D02*
X0250085Y0270098D01*
X0250085Y0271097D02*
X0249036Y0271097D01*
X0248489Y0272095D02*
X0250085Y0272095D01*
X0250085Y0273094D02*
X0247490Y0273094D01*
X0247191Y0275091D02*
X0250085Y0275091D01*
X0250085Y0276089D02*
X0248098Y0276089D01*
X0248628Y0277088D02*
X0250085Y0277088D01*
X0250085Y0278086D02*
X0248885Y0278086D01*
X0250085Y0274092D02*
X0245491Y0274092D01*
X0254525Y0374942D02*
X0264419Y0374942D01*
X0264418Y0375940D02*
X0256469Y0375940D01*
X0257817Y0376939D02*
X0264418Y0376939D01*
X0264417Y0377937D02*
X0258816Y0377937D01*
X0259569Y0378936D02*
X0264417Y0378936D01*
X0264416Y0379934D02*
X0260146Y0379934D01*
X0260659Y0380933D02*
X0264416Y0380933D01*
X0264415Y0381931D02*
X0260926Y0381931D01*
X0261194Y0382930D02*
X0264414Y0382930D01*
X0264414Y0383928D02*
X0261313Y0383928D01*
X0261313Y0384927D02*
X0264413Y0384927D01*
X0264413Y0385925D02*
X0261313Y0385925D01*
X0261097Y0386924D02*
X0264412Y0386924D01*
X0264412Y0387922D02*
X0260829Y0387922D01*
X0260512Y0388921D02*
X0264411Y0388921D01*
X0264411Y0389919D02*
X0259936Y0389919D01*
X0259359Y0390918D02*
X0264410Y0390918D01*
X0264409Y0391916D02*
X0258452Y0391916D01*
X0257453Y0392915D02*
X0264409Y0392915D01*
X0264408Y0393913D02*
X0255839Y0393913D01*
X0253168Y0394912D02*
X0264408Y0394912D01*
D17*
X0123057Y0212084D03*
X0105874Y0202427D03*
D18*
X0106428Y0202981D01*
M02*
