%
M48
M72
T01C0.0310
T02C0.0320
T03C0.0400
T04C0.0410
T05C0.0512
T06C0.1181
%
T01
X7833Y11560
X8810Y11024
X14460Y15557
X12306Y21208
X10587Y20243
X7397Y23691
X6375Y21397
X4196Y22270
X2293Y22083
X3223Y33130
X11314Y33342
X15243Y24216
X18068Y24019
X24418Y20996
X19251Y11422
T02
X24242Y6996
X25242Y6996
X25227Y5219
X24227Y5219
X9830Y21849
X9823Y23255
X8823Y23255
X8830Y21849
X8329Y35019
X9246Y37702
X10246Y37702
X11329Y35019
X13061Y34986
X14006Y37707
X15006Y37707
X16061Y34986
X17788Y34967
X18697Y37709
X19697Y37709
X20788Y34967
T03
X20754Y31881
X20754Y30881
X20754Y29881
X20754Y28881
X20754Y27881
X20754Y26881
X20754Y25881
X23754Y25881
X23754Y26881
X23754Y27881
X23754Y28881
X23754Y29881
X23754Y30881
X23754Y31881
X7892Y31881
X7892Y30881
X7892Y29881
X7892Y28881
X7892Y27881
X7892Y26881
X7892Y25881
X4892Y25881
X4892Y26881
X4892Y27881
X4892Y28881
X4892Y29881
X4892Y30881
X4892Y31881
T04
X12967Y31881
X12967Y30881
X12967Y29881
X12967Y28881
X12967Y27881
X12967Y26881
X12967Y25881
X15967Y25881
X15967Y26881
X15967Y27881
X15967Y28881
X15967Y29881
X15967Y30881
X15967Y31881
X15974Y19566
X15974Y18566
X15974Y17566
X15974Y16566
X15974Y15566
X15974Y14566
X15974Y13566
X12974Y13566
X12974Y14566
X12974Y15566
X12974Y16566
X12974Y17566
X12974Y18566
X12974Y19566
X7888Y19533
X7888Y18533
X7888Y17533
X7888Y16533
X7888Y15533
X7888Y14533
X7888Y13533
X4888Y13533
X4888Y14533
X4888Y15533
X4888Y16533
X4888Y17533
X4888Y18533
X4888Y19533
X20741Y19571
X20741Y18571
X20741Y17571
X20741Y16571
X20741Y15571
X20741Y14571
X20741Y13571
X23741Y13571
X23741Y14571
X23741Y15571
X23741Y16571
X23741Y17571
X23741Y18571
X23741Y19571
T05
X21301Y8721
X20301Y8721
X19301Y8721
X18301Y8721
X17301Y8721
X16301Y8721
X15301Y8721
X14301Y8721
X13301Y8721
X12301Y8721
X11301Y8721
X10301Y8721
X9301Y8721
X8301Y8721
X7301Y8721
X7301Y2721
X8301Y2721
X9301Y2721
X10301Y2721
X11301Y2721
X12301Y2721
X13301Y2721
X14301Y2721
X15301Y2721
X16301Y2721
X17301Y2721
X18301Y2721
X19301Y2721
X20301Y2721
X21301Y2721
T06
X1684Y2354
X25148Y2338
X25091Y38475
X1771Y38516
M30
